/* XPM */
static char *result[] = {
/* columns rows colors chars-per-pixel */
"64 64 185 2 ",
"   c #151B2D",
".  c #1A1D2F",
"X  c #1D1E31",
"o  c #1D2131",
"O  c #232434",
"+  c #292334",
"@  c #252936",
"#  c #2B2B36",
"$  c #2B2439",
"%  c #262B3C",
"&  c #2B2D39",
"*  c #382736",
"=  c #33263B",
"-  c #34283C",
";  c #3B2A3D",
":  c #312736",
">  c #32333B",
",  c #39333D",
"<  c #462D3B",
"1  c #46313C",
"2  c #55343E",
"3  c #3B2B41",
"4  c #3D3B41",
"5  c #383E4E",
"6  c #313644",
"7  c #482F49",
"8  c #432C45",
"9  c #433C41",
"0  c #493940",
"q  c #483548",
"w  c #473141",
"e  c #543B42",
"r  c #54344E",
"t  c #5C364A",
"y  c #5F3A41",
"u  c #633744",
"i  c #643945",
"p  c #763F4B",
"a  c #6E3E56",
"s  c #633A58",
"d  c #723E52",
"f  c #703F5B",
"g  c #444245",
"h  c #4C4547",
"j  c #4E4549",
"k  c #484849",
"l  c #544C4B",
"z  c #584245",
"x  c #59524D",
"c  c #454750",
"v  c #5C4D52",
"b  c #555253",
"n  c #644648",
"m  c #6B4A4A",
"M  c #7C4047",
"N  c #7E4148",
"B  c #7B4A4C",
"V  c #74484C",
"C  c #60524C",
"Z  c #76514F",
"A  c #7A4252",
"S  c #645B51",
"D  c #6E5D58",
"F  c #715F59",
"G  c #5E6058",
"H  c #6C6154",
"J  c #65665B",
"K  c #756359",
"L  c #756A5B",
"P  c #7D6F5D",
"I  c #79655D",
"U  c #7E715E",
"Y  c #676A69",
"T  c #78797B",
"R  c #804449",
"E  c #904E4F",
"W  c #8C4752",
"Q  c #874A51",
"!  c #934A56",
"~  c #9D4D57",
"^  c #944A58",
"/  c #805351",
"(  c #975D58",
")  c #AC5354",
"_  c #A55657",
"`  c #B55455",
"'  c #B85957",
"]  c #BA5D59",
"[  c #94635A",
"{  c #9F6A5E",
"}  c #83725E",
"|  c #A7635B",
" . c #BC675E",
".. c #836F62",
"X. c #847561",
"o. c #8C7A63",
"O. c #8A7E68",
"+. c #847A66",
"@. c #927F65",
"#. c #977763",
"$. c #AC6C61",
"%. c #BD6A60",
"&. c #B76C61",
"*. c #A47062",
"=. c #BF7564",
"-. c #C17465",
";. c #C37B69",
":. c #87806C",
">. c #8F846C",
",. c #978367",
"<. c #9A806B",
"1. c #9A876B",
"2. c #8C8671",
"3. c #8E8A76",
"4. c #9B957A",
"5. c #9C9A7D",
"6. c #A48C6E",
"7. c #BB826A",
"8. c #AF9572",
"9. c #A39171",
"0. c #B19773",
"q. c #BB9C79",
"w. c #BCA177",
"e. c #C6866D",
"r. c #C88971",
"t. c #C3A57B",
"y. c #CFA27B",
"u. c #CCAD7F",
"i. c #C5A97D",
"p. c #D2AD7F",
"a. c #9F9E97",
"s. c #A0998E",
"d. c #A19980",
"f. c #A7A083",
"g. c #BAA581",
"h. c #BFB18C",
"j. c #B6A899",
"k. c #BFB094",
"l. c #A6A5A5",
"z. c #B3ADAF",
"x. c #B8B6A8",
"c. c #BDBAB1",
"v. c #BFB4B3",
"b. c #C2AC84",
"n. c #CFAF80",
"m. c #D4A985",
"M. c #D2A680",
"N. c #CCB98C",
"B. c #D5B583",
"V. c #D3B987",
"C. c #D8B986",
"Z. c #DBBE8A",
"A. c #D9B68D",
"S. c #C0B794",
"D. c #C9BA97",
"F. c #D5BD93",
"G. c #DBC08B",
"H. c #DFC795",
"J. c #D8C593",
"K. c #E1CA94",
"L. c #E5D19B",
"P. c #D8CDA3",
"I. c #CCC7BB",
"U. c #D5CDBC",
"Y. c #DAD5BE",
"T. c #E4D4A2",
"R. c #E3D4AC",
"E. c #EEDFA9",
"W. c #E9D7A8",
"Q. c #EFE1AC",
"!. c #F0E0A9",
"~. c #EFE1B3",
"^. c #F1E4B2",
"/. c #F4E7BC",
"(. c #F4E9BB",
"). c #E2DFD4",
"_. c #EDE1CB",
"`. c #F4EBC9",
"'. c #F8EFCB",
"]. c #F3E6C5",
"[. c #EFECDD",
"{. c #F3EDD8",
"}. c #F9F2D3",
"|. c #F9F6E4",
" X c None",
/* pixels */
" X X X X X X X X X X X X X X X X X X X X X X X X X X X X X X X X X X X X X X X X X X X X X X X X X X X X X X X X X X X X X X X X",
" X X X X X X X X X X X X X X X X X X X X X X X X X X X X X X X X X X X X X X X X X X X X X X X X X X X X X X X X X X X X X X X X",
" X X X X X X X X X X X X X X X X X X X X X X X X X X X X X X X X X X X X X X X X X X X X X X X X X X X X X X X X X X X X X X X X",
" X X X X X X X X X X X X X X X X X X X X X X X X X X X X X X X X X X X X X X X X X X X X X X X X X X X X X X X X X X X X X X X X",
" X X X X X X X X X X X X X X X X X X X X X X X X X X X X X X X X X X X X X X X X X X X X X X X X X X X X X X X X X X X X X X X X",
" X X X X X X X X X X X X X X X X X X X X X X X X X X X X X X X X X X X X X X X X X X X X X X X X X X X X X X X X X X X X X X X X",
" X X X X X X X X X X X X X X X X X X X X X X X X X X X X X X X X X X X X X X X X X X X X X X X X X X X X X X X X X X X X X X X X",
" X X X X X X X X X X X X X X X X X X X X X X X X X X X X X X X X X X X X X X X X X X X X X X X X X X X X X X X X X X X X X X X X",
" X X X X X X X X X X X X X X X X X X X X X X X X X X X X X X X X X X X X X X X X X X X X X X X X X X X X X X X X X X X X X X X X",
" X X X X X X X X X X X X X X X X X X X X X X X X X X X X X X X X X X X X X X X X X X X X X X X X X X X X X X X X X X X X X X X X",
" X X X X X X X X X X X X X X X X X X X X X X X X X X X X X X X X X X X X X X X X X X X X X X X X X X X X X X X X X X X X X X X X",
" X X X X X X X X X X X X X X X X X X X X X X X X X X X X X X X X X X X X X X X X X X X X X X X X X X X X X X X X X X X X X X X X",
" X X X X X X X X X X X X X X X X X X X X X X X X X X X X X X X X X X X X X X X X X X X X X X X X X X X X X X X X X X X X X X X X",
" X X X X X X X X X X X X X X X X X X X X X X X X X X X X X X X X X X X X X X X X X X X X X X X X X X X X X X X X X X X X X X X X",
" X X X X X X X X X X X X X X X X X X X X X X X X X X X X X X X X X X X X X X X X X X X X X X X X X X X X X X X X X X X X X X X X",
" X X X X X X X X X X X X X X X X X X X X X X X X X X X X X X X X X X X X X X X X X X X X X X X X X X X X X X X X X X X X X X X X",
" X X X X X X X X X X X X X X X X X X X X X X X X X X Xi n 0 #  X X X X X X X X X X X X X X X X X X X X X X X X X X X X X X X X X",
" X X X X X X X X X X X X X X X X X X X X X X X X XX < | e.&.| Z 1  X X X X X X X X X X X X X X X X X X X X X X X X X X X X X X X",
" X X X X X X X X X X X X X X X X X X X X X X X X X< ) ;.e.;.-.;.( :  X X X X X X X X X X X X X X X X X X X X X X X X X X X X X X",
" X X X X X X X X X X X X X X X X X X X X X X X XX p ) n e [ ;.[ *.Z  X X X X X X X X X X X X X X X X X X X X X X X X X X X X X X",
" X X X X X X X X X X X X X X X X X X X X X X X X= ^ p 3 $ o Z $.m ( :  X X X X X X X X X X X X X X X X X X X X X X X X X X X X X",
" X X X X X X X X X X X X X X X X X X X X X X X X$ W ^ f s $ o Q V A +  X X X X X X X X X X X X X X X X X X X X X X X X X X X X X",
" X X X X X X X X X X X X X X X X X X X X X X X X X3 t r 8 X . u i u  X X X X X X X X X X X X X X X X X X X X X X X X X X X X X X",
" X X X X X X X X X X X X X X X X X X X X X X X X X XX . > l - 3 ; v c  X X X X X X X X X X X X X X X X X X X X X X X X X X X X X",
" X X X X X X X X X X X X X X X X X X X X X X X X X X X. b j.v.z.l.U.a.@  X X X X X X X X XF.b. X X X X X X X X X X X X X X X X X",
" X X X X X X X X X X X X X X X X X X X X X X X X X X  9 ..b././.].`.R.9.>  X X X X X X Xg._.T  X X X X X X X X X X X X X X X X X",
" X X X X X X X X X X X X X X X X X X X X X X X X X Xo D q.K.Q./.`.[.I.T.L  X X X X X XU c.|.Y  X X X X X X X X X X X X X X X X X",
" X X X X X X X X X X X X X X X X X X X X X X X X X XO ..b.C.L.!.^.Y.b F.d..  X X X X Xk.{.R.L  X X X X X X X X X X X X X X X X X",
" X X X X X X X X X X X X X X X X X X X X X X X X X X4 #.B.B.C.K./._.6 >.D.g  X X X X@ x.W.g.g  X X X X X X X X X X X X X X X X X",
" X X X X X X X X X X X X X X X X X X X X XO >  X X  4 <.n.n.w.b.P.c.% g 2.%  X X X XG T.C.H  X X X X X X X X X X X X X X X X X X",
" X X X X X X X X X X X X X X X X X X X X Xo S H  X  o F q.t.+.k 6 % .   4 6  X X X@ 5.N.0.>  X X X X X X X X X X X X X X X X X X",
" X X X X X X X X X X X X X X X X X X X X X* 2 } S . . H q.b.Z.N.f.a.5 , D.3. X X XJ 5.6.H  X X X X X X X X X X X X X X X X X X X",
" X X X X X X X X X X X X X X X X X X X X X2 ) E o.} l , I 0.B.Z.!.'.Y U ].4.   X@ 4.O.1.>  X X X X X X X X X X X X X X X X X X X",
" X X X X X X X X X X X X X X X X X X X X X2 ` ` 7.>.L } 2.l t.V.L.^.a.k.W.b z e l X.o.H  X X X X X X X X X X X X X X X X X X X X",
" X X X X X X X X X X X X X X X X X X X X X2 `  .y.V.8.S :.> 9 } J.^.}.^.>.0 Z 2 o.l X.>  X X X X X X X X X X X X X X X X X X X X",
" X X X X X X X X X X X X X X X X X X X X X2 `  .m.L.Z.,.U > $ X 4 :.k.3.q e | 2 9 j j .  X X X X X X X X X X X X X X X X X X X X",
" X X X X X X X X X X X X X X X X X X X X XC r. .e.H.G.8.o., A p 8 X @ 3 d 3 1 R t ; # w +  X X X X X X X X X X X X X X X X X X X",
" X X X X X X X X X X X X X X X X X X X X Xx B.H.m.y.B.w.9., W ` ~ a r A t O K K w 7 3 +  X X X X X X X X X X X X X X X X X X X X",
" X X X X X X X X X X X X X X X X X X X X X, w.K.A.-.e.#.o., d ~ ) ~ ^ u . O @.C.@.O $ X  X X X X X X X X X X X X X X X X X X X X",
" X X X X X X X X X X X X X X X X X X X X X X} C.y.%.] R S - $ = ; 8 * .  XX j X.L O  X X X X X X X X X X X X X X X X X X X X X X",
" X X X X X X X X X X X X X X X X X X X X X X# o.p. .` B j o            X X$ -      X X X X X X X X X X X X X X X X X X X X X X X",
" X X X X X X X X X X X X X X X X X X X X X X X@ o.-.M , O   .  X    .  X X. X  X X X X X X X X X X X X X X X X X X X X X X X X X",
" X X X X X X X X X X X X X X X X X X X X X X X X# e 9 O  X. .  X. .    X X X X X X X X X X X X X X X X X X X X X X X X X X X X X",
" X X X X X X X X X X X X X X X X X X X X X X X X X  o  X X X X X X X X X X X X X X X X X X X X X X X X X X X X X X X X X X X X X",
" X X X X X X X X X X X X X X X X X X X X X X X X X X X X X X X X X X X X X X X X X X X X X X X X X X X X X X X X X X X X X X X X",
" X X X X X X X X X X X X X X X X X X X X X X X X X X X X X X X X X X X X X X X X X X X X X X X X X X X X X X X X X X X X X X X X",
" X X X X X X X X X X X X X X X X X X X X X X X X X X X X X X X X X X X X X X X X X X X X X X X X X X X X X X X X X X X X X X X X",
" X X X X X X X X X X X X X X X X X X X X X X X X X X X X X X X X X X X X X X X X X X X X X X X X X X X X X X X X X X X X X X X X",
" X X X X X X X X X X X X X X X X X X X X X X X X X X X X X X X X X X X X X X X X X X X X X X X X X X X X X X X X X X X X X X X X",
" X X X X X X X X X X X X X X X X X X X X X X X X X X X X X X X X X X X X X X X X X X X X X X X X X X X X X X X X X X X X X X X X",
" X X X X X X X X X X X X X X X X X X X X X X X X X X X X X X X X X X X X X X X X X X X X X X X X X X X X X X X X X X X X X X X X",
" X X X X X X X X X X X X X X X X X X X X X X X X X X X X X X X X X X X X X X X X X X X X X X X X X X X X X X X X X X X X X X X X",
" X X X X X X X X X X X X X X X X X X X X X X X X X X X X X X X X X X X X X X X X X X X X X X X X X X X X X X X X X X X X X X X X",
" X X X X X X X X X X X X X X X X X X X X X X X X X X X X X X X X X X X X X X X X X X X X X X X X X X X X X X X X X X X X X X X X",
" X X X X X X X X X X X X X X X X X X X X X X X X X X X X X X X X X X X X X X X X X X X X X X X X X X X X X X X X X X X X X X X X",
" X X X X X X X X X X X X X X X X X X X X X X X X X X X X X X X X X X X X X X X X X X X X X X X X X X X X X X X X X X X X X X X X",
" X X X X X X X X X X X X X X X X X X X X X X X X X X X X X X X X X X X X X X X X X X X X X X X X X X X X X X X X X X X X X X X X",
" X X X X X X X X X X X X X X X X X X X X X X X X X X X X X X X X X X X X X X X X X X X X X X X X X X X X X X X X X X X X X X X X",
" X X X X X X X X X X X X X X X X X X X X X X X X X X X X X X X X X X X X X X X X X X X X X X X X X X X X X X X X X X X X X X X X",
" X X X X X X X X X X X X X X X X X X X X X X X X X X X X X X X X X X X X X X X X X X X X X X X X X X X X X X X X X X X X X X X X",
" X X X X X X X X X X X X X X X X X X X X X X X X X X X X X X X X X X X X X X X X X X X X X X X X X X X X X X X X X X X X X X X X",
" X X X X X X X X X X X X X X X X X X X X X X X X X X X X X X X X X X X X X X X X X X X X X X X X X X X X X X X X X X X X X X X X",
" X X X X X X X X X X X X X X X X X X X X X X X X X X X X X X X X X X X X X X X X X X X X X X X X X X X X X X X X X X X X X X X X",
" X X X X X X X X X X X X X X X X X X X X X X X X X X X X X X X X X X X X X X X X X X X X X X X X X X X X X X X X X X X X X X X X"
};
