/* XPM */
static char *result[] = {
/* columns rows colors chars-per-pixel */
"64 64 6 1 ",
"  c #506A69",
". c #161C2E",
"X c #669D9D",
"o c #8CC3C4",
"O c #D0DEB5",
"+ c white",
/* pixels */
"   .....       XXXXXXooooooooooooooooooXXooooooooo      ........",
"....     XXXXXooooXXXXoooooXXoooooooooooooooooooooo       ......",
"...   XXXXXXXooooooo   oooXXoooooooooooooooooooooooooo   XXXX ..",
"...  XXXXXooXoooooooo     XXoooooooooooooooooooooooooo  XXXXX ..",
"... XXXXXXooooooooooo  XXXXoooooooooooooooooooooooooooo  XXXXX..",
"... XXXXXXooooooooooo XXoooooXXXooooooooooooooooooooooo  XXXXX..",
"... XXXXXXXoXooooooo  XoooXXXXXXooooooooooooooooooooooo  XXXXX  ",
"..  XXXXXXXXXooooooo  XoooXXXXXoooooooooooooooooooooooo  XXXXX  ",
"..   XXXXXXXXooooooo  oooXXXXXXoooooooooooooooooooooooo XXXXX   ",
"..   XXXXXXXXXoooo    oooXXXXXXXXooooooooooooooooooOOOoooXXX    ",
"..XXX XXXXXXXXXXX    XXooooXXXXXXooooooooooooooooOOOOOoooXX  XX ",
"..XXXXXXXXXXXXXXX   XXXXXXoooooooooooooooooooooOOOOOOooooXX XXX ",
".. XXX XXXXXXXXXXXXXXXXoooooooooooooooooooooOOOOOOOOOoooXXXXXXX ",
".   XX  XXXXXXooooooooooooooooooooooooooOOOOOOOOOOOOOooXX  XXXX ",
".         XXXoooooooooooooooooooooooooooOOOOOOOOOOoX       XXX  ",
".       XXXXooooooooooooooooooooooooooooooooooooooooooo         ",
".    XXXXXXooooooooooooooooooooooooooooooooooooooooooooo   XX   ",
"    XXXXXXXoooooooooooooooooooooooooooooooooooooooooooooo  XXX  ",
"    XXXXXXXXoooooooooooooooooooooooooooooooooooooooooooooo XXX  ",
"   XXXXXoooXooooooooooooooooooooooooooooooooooooooooooooooXXXX  ",
"   XXXXXoooXooooooooooooooooooooooooooooooooooooooooooooooXXXX  ",
"   XXXXXXooXXooooooooooooooooooooooooooooooooooooooooooooXXXXX  ",
"   XXXXXXXXXXXoooooooooooooooooooooooooooooooooooooooooooXXXXX  ",
"   XXXXXXXXXXXXooooooooooooooooooooooooooooooooooooooooooXoooX  ",
"    XXXXXXXXXXXooooooooooooooooooooooooooooooooooooooooooXoooX  ",
"    XXXXXXXXXXXoooooooooooooooooooooooooooooooooooooooooXoooXX  ",
" XX ooooXXXXXXXXoooooooooooooooooooooooooooooooooooooooXXoooXX  ",
" XXXoooooXXXXXXXXXoooooooooooooooooooooooooooOOOOOOOOOXXXXXX    ",
" XXXXoooooooXXXXXXXXooXXooooooooooooooooooOOOOOOOOOOOOXXXX      ",
" XXXX  ooooooXXooXXXooXXXoooooooooooooooooooOOOOOXXXXXXXXXXX    ",
"  XXX     XXXXoooooooooXXXXXooooooooooooooooooX   XXXXXXXXXXX   ",
"   XX   XXXXXXoooooooooXXXXXXXoooooooooXXXXXXX   XXXXXooooXXX   ",
"       XXXXXXXoooooooooXXXXX XXXXXXXXXXXXXXX     XXXooooooXXX  .",
"      XXXXXXXXoooooooooooXXX   XXXXXXXXXX        XXXooooooXXX  .",
".     XXXXXXoXXooooooooooXXX     XXX       ooo       ooooXXXX ..",
".    .XXXXXXoooooooooooXXXXXX         oooooooooo   XooooXXXX  ..",
".    .XXXXoooooooooooXXXXXXXXXXXXXXooooooooooooooooXoooXXXX   ..",
"..  ..XXXooooooooooooooooooooXXXooooooooooooooooooooXXXXXX    ..",
"......XXXoooooooooooooooooooooooooooooooooooooooooooXXXXX    ...",
".......XXooooooooooooooooooooooooooooooooooooooooooooXX    .....",
".......ooooooooooooooooooooooooooooooooooooooooooooooXXX      ..",
"...  ...ooooooooooooooooooooooooooooooooooooooooooooXXX  XXX  ..",
"..    ..ooooooooooooooooooooooooooooooooooooooooooooXX  XXXX  ..",
"..     ..OOooooooooooooooooooooooooooooooooooooooXXXX   XXXX  ..",
"..     ..OOOoooooooooooXXoooooooooooooooooooooooooo           ..",
".       ..OOOOOooooooXXXXooooooooooooooooooooooooooXXXX       ..",
".           OOOOOOXXXXXXoooooooooooooooooooooooooXXXXXXX     ...",
".    XX         XXXXXXoooooooooXoooooooooooooooXXXXXXXXX     ...",
".   XXXX        XXXXXXooooooooXXoooooooooooooooooooXXXX   ......",
".   XXXXXX          XOooooooooXXoooooooooooooooooooooo..........",
"..  XXXXXXXX       XXOooooooooXooooooooooooooooooooooOo..... ...",
"..  XXXXXXXXXX . XXXOOooooooooXXooooooooooooooooooooOOXX...   ..",
"..   XXXXXXXXX.. XXXOOOoooooooXXXooooooooooooooooooOOOXX .    ..",
"..    XXXXXXXX... XXXOOOOoooooXX.oooooooooooooooooOOOXXX .XX   .",
"...    XXXXXXX... XXXOOOOOOOooXX.ooooooooooooOOOOOOOXXXX XXX   .",
"...      XXXX..X...XXXOOOOOOOOX...oooooooOOOOOOOOOOOXXXXXXXX   .",
".....     XX...XooXXXXXXOOOOOO.....ooooooOOOOOOOOOOXXXXXXXXX   .",
".......    ...XXooooXXXXXXXOOX......oooooooOOOOOOOXXXXX  XXX   .",
".......XXXXXXXXXooooooXXXXXXXXoo.       oooOOOOOXXXXXXX  XX    .",
"...  . XXXXXXXXXoooooooooooXXXooo            XXXXXXXXX        ..",
"..     XXXXooXXXooooooooooooooooooo          XXXXXXXX         ..",
"..     XXXXoooXXooooooooooooooooooooooo    XXXXXXXXXX  oo    ...",
"..      XoooooooooooooooooooooooooooooXXXXXXXXXXXXXXXooooo  ....",
"...     XoooooooooooooooooooooooooooooXXXXXXXXXXXX  oooooo ....."
};
