/* XPM */
static char *result[] = {
/* columns rows colors chars-per-pixel */
"64 64 6 1 ",
"  c #506A69",
". c #161C2E",
"X c #669D9D",
"o c #8CC3C4",
"O c #D0DEB5",
"+ c white",
/* pixels */
"   .XXXXXXXXXXXXXXXXXXoooooooooooooooooXXoooooooXX      .....  .",
"   ....XXXXXXXXXooXXXXXooooooooooooooooooooooooooXX   XXXXX..  .",
"..........XXXoooooooXXXXXXooooooooooooooooooooooooXX  XXXXXX....",
".....oooooooooooooooooXXXXXXooooooooooooooooooooooooX XXXXXXX...",
"....ooooooooooooooooooXXXXXooooooooooooooooooooooooooX  XXXXX...",
"...oooooooooooooooooooooXXoooXXXoooooooooooooooooooooXX XXXXX ..",
"...oooooooooooooooooooooooXXXXXooooooooooooooooooooooXX  XXXX ..",
"..ooooooooooooooooooooooooXXXXXooooooooooooooooooooooXX  XXXX ..",
"..oooooooooooooooooooXXooXXXXXXoooooooooooooooooooooooX  XXXX  .",
"..oooooooooooooooXXXXXoooXXXXXXXooooooooooooooooooooooXXXXXX   .",
"..XooooooooooXXXXXXXXXXooooXXXXXXoooooooooooooooooooooXXXXXX   .",
"..XXXoooooooXXXXXXXXXXXXXXooooooooooooooooooooooooooooXXXXX    .",
".  XXXXXXXXXXXXXXXXXXXXoooooooooooooooooooooooooooOoooXXXXX  XX ",
"   XXXXXXXXX oooooooooooooooooooooooooooooooooooooooXXXXX   XXX ",
"    XXXXX   oooooooooooooooooooooooooooooooooooooXXXXXXX    XXX ",
"            oooooooooooooooooooooooooooooooooooooooooXXXXXXX    ",
"           ooooooooooooooooooooooooooooooooooooooooooooXXXXXX   ",
"           oooooooooooooooooooooooooooooooooooooooooooooXXXXX   ",
"      XX   oooooooooooooooooooooooooooooooooooooooooooooXXXXXX  ",
"   XXXXXXX  ooooooooooooooooooooooooooooooooooooooooooooXXXXXX  ",
"   XXXXXXXX  oooooooooooooooooooooooooooooooooooooooooooXXXXXXX ",
"   XXXXXXXX   ooooooooooooooooooooooooooooooooooooooooooXXXXXXX ",
"  XXXXXXXXXX   oooooooooooooooooooooooooooooooooooooooooXXXXXXX ",
"  XXXXXXXXXX   oooooooooooooooooooooooooooooooooooooooooXXXXXXX ",
"  XXXXXXXXXXX   oooooooooooooooooooooooooooooooooooooooXXoooXX  ",
". XXXXXXXXXXXXXXXoooooooooooooooooooooooooooooooooooooXXooooX  .",
".. XXoooXXXXXXXXXXXXoooooooooooooooooooooooooooooooooXoooooXX ..",
"... XooooXXXXXXXXXXXoooooooooooooooooooooooooOOOOOOOooooooXX  ..",
"   . oooooooXXXXooooooXXooooooooooooooooooOOOOOOOOOXXXXXXXX  ...",
"   .  ooooooXXXoooooooXXXoooooooooooooooooooOOOOOXXXXXXXXXX..  .",
".  ...      XXoooooooooXXXXXooooooooooooooooooXXXXXXXXXXXX..   .",
"......      XXoooooooooXXXXXXXoooooooooXXXXXXXXXX  XXXX.....   .",
"...  XX    XXXoooooooooXXXX   XXXXXXXXXXXXXXXXXX   XXXXXXXXXX...",
"...XXXXXXXXXXXoooooooooooXXX   XXXXXXXXXXXXXXX    XXXoXXXXXXX...",
".. XXXXXXXXXoooooooooooooXXXX     XX               XXoooooooX...",
".. XXXXXXXXooooooooooooXXXXXXX        XXXooooooo   XXXooooooXX..",
". XXXXXXXXXooooooooooXXXXXXXXXXXXXXooooooooooooooooooXoooooXXX..",
". XXXXXXXXXooooooooooooooooooXXXooooooooooooooooooooooXXXXXXXX  ",
"  XXXXXXXXXoooooooooooooooooooooooooooooooooooooooooooXXXXXXX   ",
"  XXXXXXXXXoooooooooooooooooooooooooooooooooooooooooooXXXXXXX   ",
"  XXXXXXXXXoooooooooooooooooooooooooooooooooooooooooooooXXX     ",
"   XoooXXXXoooooooooooooooooooooooooooooooooooooooooooooooX     ",
"   XooooXXXXoooooooooooooooooooooooooooooooooooooooooooooXXX    ",
"    XooooXXXXXoooooooooooooooooooooooooooooooooooooooooooooXXX  ",
"     XoooXXXXXoooooooooooooooooooooooooooooooooooooooooooooXXXX ",
"  X    ooXXXXXXXoooooooooooooOoooooooooooooooooooooooooooooXXXX ",
"  XXXX  XXXXXXXXooooooooooooOOoooooooooooooXoooooooooooooooXXXX ",
"  XXXXXXXXXXooooooooooooooOOOoXXoooooooooooXXooooooooooooOOXXX  ",
"   XXXXXXXXXXooooooooooOOOOOOoXXoooooooooooXXooooooooooOOOOXXX  ",
"    XXXXXXXXXXooooooooOOOOOoXXXoooooooooooooXXXoooooOOOOOOXXX  .",
"      XXXXXXXXXXXoooooooooXXX XooooooooooooooXXXXXooOOOOOXXXX  .",
"   XXXXXXXXXXXXXXXXXoooXXXX   XXoooooooooooooXXXXXXXXXXXXXXX ...",
"   XXXXXXXXXoooooooooooXXXX    XXoooooooooooXXooooooXXXXXXX ....",
"  XXXXXXXXoooooooooooooooooXX   XooooooooooooooooooooXXXX     ..",
"  XXXXXXXooooooooooooooooooXXX   oooooooooooooooooooooXXXXXX  ..",
"  XXXXXXXooooooooooooooooooooo   XooooooooooooooooooooXXXXXXX   ",
"  XXXXXXooooooooooooooooooooooXXXXXXXooooooooooooOOooXoooXXX    ",
"   XXXXXoooooooooooooooooooooooXXXXXXoOOoooooooOOOOooooooXX     ",
".  XXXXXoOOooooooooooooooooooooXXXXXXXOOOOOOOOOOOOXXooooXX  XXX ",
".   XXXXoOOOooooooooooooooooooXXXXXXXXXXOOOOOOOOXXXXXXXXX  XXXX ",
"..   XXXXOOOOoooooooooooooooooXXXXoooXXXXXooooXXXXXXXXXX  XXXXX ",
"...     XXOOOOOoXXoooooooooooXXXXoooooXXXXXXXXXXXXXXX     XXXXX.",
"  .       ooooooXXXoooooooooooXXooooooooXXXXXXX           XXXX..",
"   ..          XXXXooooooooooooooooooXXXXXXXXXXX           ....."
};
