/* XPM */
static char *result[] = {
/* columns rows colors chars-per-pixel */
"64 64 6 1 ",
"  c #161C2E",
". c #506A69",
"X c #669D9D",
"o c #D0DEB5",
"O c #8CC3C4",
"+ c None",
/* pixels */
"   .....XOOOOOOOOOOOOOOOOOOOOOOOOOOOOOOX...oooOOOOOOOOOOO.....  ",
"    ....XXOOOOOOXOOOOOOOOOOOOOOOoooo...XoooXooooooooooooX.....  ",
"    .....XOOOOOOXXOOOOOOOOOOOOOoooooX..  XXXooooooXXXXXXXXXX... ",
"    XXX..XXXXXOOXXXOOOOOOooooooooooo .. ..OOXXXXXXXXXXXXXXXXX...",
"    XXXX..XXXXXXXXXooooooooooooooo     .OOOOOOOOOXXXXXXXXXXXX...",
"   ..XXXXXX.XXXXXXXXXXoooooooooo       .OOOOOOOOOXXXXXXXXXXXXX..",
"   ..XXXXXX........XXXXXXXXXXXXXXXXX.  .OOOOOOOXXXXXXXXXXXXXXX..",
"   ....XXXX.....XXXXXXXXXXXXXXXXX....  .XXOOXXXXXXXXXXXXXXXXXX..",
"   ............XXXXXXXXXXXXXXXXXXX...  XXXXXXXXXXXXXXXXXXXXXXXX.",
"   ............XXXXXXXXXXXXXXXXXXXX..  XXXXXXXXXXXXXXXXXXXXXXXX.",
"   ...........XXXXXXXXXXXXXXXXXXXXX....XXXXXXXXXXXXXXXXXXXXXXXX.",
"  ............XXXXXXXXXXXXXXXXXXXXX....XXXXXXXXXXXXXXXXXXXXXXXX.",
"  ....X.......XXXXXXXXXXXXXXXXXXXXX....XXXXXXXXXXXXXXXXXXXXXXXX.",
"  ....XX.....XXXXXXXXXXXXXXXXXXXXXXX.....XXXXXXXXXXXXXXXXXXXXXX.",
"  ....XXXXXXXXXXXXXXXXXXXXXXXXXXXXXX......XXXXXXXXXXXXXXXXXXXXX.",
"  ....XXXXXXXXXXXXXXXXXXXXXXXXXXXXX.........XXXXXXXXXXXXXXXXXXXX",
"  ......XXXXXXXXXXXXXXXXXXXXXXXXX..............XXXXXXXXXXXXXXXXX",
"  ..........XXXXXXXXXXXXXXXXXXXX.......OOO.......XXXXXXXXXXXXXXX",
"   ...........XXXXXXXXXXXXXXXXXXXXX....OOOOOOOOOOXXXXXXXXXXXXXXX",
"   .............XXXXXXXXXXXXXXXXXXX....XOOOOOOOOOOOOXXXXXXXXXXX.",
"   ................XXXXXXXXXXXXXXXX......OOOOOOOOOXXXXXXXXXXXXX.",
"   ..........XXXXXXXXXXXXXXXXXXXXXX......XOOOOXXXXXXXXXXXXXXXXX.",
"    .........XXXXXXXXXXXXXXXXXXXXXX... ...XXXXXXXXXXXXXXXXXXXX. ",
"      .....XXXXXXXXXXXXXXXXXXXXXXXXX.. ...XXXXXXXXXXXXXXXXXXX.. ",
"       .....XXXXXXXXXXXXXXXXXX..XXXX..  ...XXXXXXXXXXXXXXXXXX.. ",
"        ......XXXXXXXXXXXXXXX...XXXX..  ...XXXXXXXXXXXXXXX..... ",
"    ..     .....XXXXXXXXXXXX....XXXX..    ..XXXXXXXXXXXXX...... ",
"   .............XXXXXXXXXX....OOXXX...   XX....XXXXXXX.......OOO",
"   ...........XXXXXXXXXXXX..OOOOXXX...   XXXOOOOOOOOOOOOOOOOOOOO",
"    ..........XXXXXXXXXXXXX.OOOXXXX..     oooOOOOOOOOOOOOOOOOooo",
"    .......XXXXXXXXXXXXXXXXXXXXXXX..      oooooooOOOOOOOOOoooooo",
"   XXX.....XXXXXXXXXXXXXXXXXXXXXXX.        oooooooooooooOOoooooX",
"  XXXXXXXXXXXXXXXXXXXXXXXXXXXXXXX          OOOOoooooooOOOOoooXXX",
"  XXXXXXXXXOOOXXXXXXXXXXXXXXX      XX      XXXXOXXOOOXXXXXXXXXXX",
"  XXXXXXXXOOOOOOOOOOOXXXXXOOOOOOOOOXXXXX  XXXXXXXXXXXXXXXXXXOOXX",
"  .XXXXXXXOOOOOOOOOOOOOOOOOOOOOOOOOXXXo   XXXXXXXXXXXXXXXOOOOOX.",
"  ...XXXXooooOOOOOOOOOOOOOOOOOOOOOooooX   XXXXXXXXXXXXXXXOOOXXX.",
"  ...XXXXoooooooOOOOOOOOOOOOOOOoooooooX   XXXXXXXXXXXXXXXXXXXXX.",
"  ......OOooooooOOOOOOOOOOOOoooooooooOX ..XXXXXXXXXXXXXXXXXXXX..",
"  ........XXXXXXXXooooooooooooooooooX.....XXXXXXXXXXXXXXXXXXXX..",
"  ..........XXXXXXXXXooooooooooooXXXX....XXXXXXXXXXXXXXXXXXXXX..",
"  ..........XXXXXXXXXXXXXXXXXXXXXXXXXX...XXXXXXXXXXXXXXXXXXXXX..",
"  .........XXXXXXXXXXXXXXXXXXXXXXXXXXX...XXXXXXXXXXXXXXXXXXXXX..",
"  .........XXXXXXXXXXXXXXXXXXXXXXXXXXXX..XXXXXXXXXXXXXXXXXXXXX..",
"   ........XXXXXXXXXXXXXXXXXXXXXXXXXXXX...XXXXXXXXXXXXXXXXXXXX..",
"   ........XXXXXXXXXXXXXXXXXXXXXXXXXXXX...XXXXXXXXXXXXXXXXXXX...",
"   .........XXXXXXXXXXXXXXXXXXXXXXXXXX....XXXXXXXXXXXXXXXXX.....",
"   ....XX....XXXXXXXXXXXXXXXXXXXXXXXX......XXXXXXXXXXXXXXX......",
"   ....XXXX...XXXXXXXXXXXXXXXXXXXXXX..XXX..XXXXXXXXXXXXXXXXXXX..",
"   ....XXXXX....XXXXXXXXXXXXXXXXXXX..XXXX...XXXXXXXXXXXXXXXXXXX.",
"   .....XXXXXOOOOXXXXXXXXXXXXXXXX..OOOXX....XXXXXXXXXXXXXXXXXXX.",
"   ......XXOOOOOOOXXXXXXXXXXXXX.OOOOOO.....XXXXXXXXXXXXXXXXXXXX.",
"   ........OOOOOOOOOOXXXXOOOOOOOOOOOOXX...XXXXXXXXXXXXXXXXXXXXX.",
"   ..........OOOOOOOOOXXXXXOOOOOOXXXXXX....XXXXXXXXXXXXXXXXXXXX.",
"    ...........XXXOOOOOXXXXXXXXXXXXXXXX....XX...XXXXXXXXXXXXXXX ",
"+   ...........XXXXXXXXXXXXXXXXXXXXXXX. ....X....XXXXXXXXXXXXXX ",
"++   ..........XXXXXXXXXXXXXXXXXXXXXX..  ...X.....XXXXXXXXXXXXX ",
"++    .......XXXXXXXXXXXXXXXXXXXXXXX...   ...X....XXXXXXXXXXXXX ",
"+++   .....XXXXXXXXXXXXXXXXXXXXXXXX..      ....X..XXXXXXXXXXXX  ",
"+++++  .....XXXXXXXXXXXXXXXXXXXXXXX.          XXXXXXXXXXXXXXX   ",
"++++++  .......XXXXXXXXXXXXXXXX....   +++      XXXXXXXXXXXXX    ",
"++++++++++.......XXXXXXXXXXXXX.....++++++++++++++XXXXXXXX       ",
"+++++++++++++++++XXXXXXXXX......++++++++++++++++++++++++++++   +",
"++++++++++++++++++++++++++++++++++++++++++++++++++++++++++++++++"
};
