/* XPM */
static char *result[] = {
/* columns rows colors chars-per-pixel */
"64 64 6 1 ",
"  c #506A69",
". c #161C2E",
"X c #669D9D",
"o c #8CC3C4",
"O c #D0DEB5",
"+ c white",
/* pixels */
"   .XXXXXXXXXXXXXXXXXXoooooooooooooooooXXoooooooXX     XXXOOOooo",
"   ....XXXXXXXXXooXXXXXooooooooooooooooooooooooooXX    XXXoOOOoo",
"..........XXXoooooooXXXXXXooooooooooooooooooooooooXX    XXXOOOOo",
".....oooooooooooooooooXXXXXXooooooooooooooooooooooooX   XXXXOOOO",
"....ooooooooooooooooooXXXXXooooooooooooooooooooooooooX   XXXoOOO",
"...oooooooooooooooooooooXXoooXXXoooooooooooooooooooooXX  XXXXXoo",
"...oooooooooooooooooooooooXXXXXXoooooooooooooooooooooXX  XXXXoOO",
"..ooooooooooooooooooooooooXXXXXooooooooooooooooooooooXX  XXOOOOO",
"..oooooooooooooooooooXXooXXXXXXXXoooooooooooooooooooooX  XoOOOOo",
"..oooooooooooooooXXXXXoooXXXXXXXXooooooooooooooooooooo   XoOOOOO",
"..XooooooooooXXXXXXXXXXooooXXXXXXooooooooooooooooooooo   XooOOOO",
"..XXXoooooooXXXXXXXXXXXXXXooooooooooooooooooooooOOOooo    XooOOO",
".  XXXXXXXXXXXXXXXXXXXXoooooooooooooooooooOOOOOOOOOooo      Xooo",
"   XXXXXXXXX oooooooooooooooooooooooooOOOOOOOOOOOOooo          o",
"    XXXXX   oooooooooooooooooooooooooooooooooooooXXX   XXX      ",
"            oooooooooooooooooooooooooooooooooooooooooooXXXXXXXXX",
"           ooooooooooooooooooooooooooooooooooooooooooooooXXXXXXo",
"           ooooooooooooooooooooooooooooooooooooooooooooooXXXXooo",
"      XX   ooooooooooooooooooooooooooooooooooooooooooooooXXXoooo",
"   XXXXXXX  oooooooooooooooooooooooooooooooooooooooooooooXXXoooo",
"   XXXXXXXX  oooooooooooooooooooooooooooooooooooooooooooXXXooooo",
"   XXXXXXXX   ooooooooooooooooooooooooooooooooooooooooooXXXXoooo",
"  XXXXXXXXXX   oooooooooooooooooooooooooooooooooooooooooXXXXoooo",
"  XXXXXXXXXX   oooooooooooooooooooooooooooooooooooooooooXXXooooo",
"  XXXXXXXXXXX   oooooooooooooooooooooooooooooooooooooooooXXooooo",
". XXXXXXXXXXXXXXXooooooooooooooooooooooooooooooooooooooooooooooo",
".. XXoooXXXXXXXXXXXXoooooooooooooooooooooooooooooooooooooXXXoooo",
"... XooooXXXXXXXXXXXoooooooooooooooooooooooooOOOOOOOooXXXXXXoooo",
"   . oooooooXXXXooooooXXooooooooooooooooooOOOOOOOOOXXXXXXXXooooo",
"   .  ooooooXXXoooooooXXXoooooooooooooooooooOOOOOXXXXXXXXooooooo",
".  ...      XXoooooooooXXXXXooooooooooooooooooXXXXXXXXXooooooooo",
"......      XXoooooooooXXXXXXXoooooooooXXXXXXXXX XXXXXoooooooooo",
"...  XX    XXXoooooooooXXXX   XXXXXXXXXXXXXXXXXX XXXXXoooooooooo",
"...XXXXXXXXXXXoooooooooooXXX     XXX              XXXXoooooooooo",
".. XXXXXXXXXoooooooooooooXXXX            oooo      XXXoooooooooo",
".. XXXXXXXXooooooooooooXXXXXXXX       XXXoooooXX   XXXoooooooooo",
". XXXXXXXXXooooooooooXXXXXXXXXXXXXXoooooooooooooo   XXoooooooooo",
". XXXXXXXXXooooooooooooooooooXXXoooooooooooooooooXXXXXXooooooooo",
"  XXXXXXXXXooooooooooooooooooooooooooooooooooooooooXXXXXXXoooooo",
"  XXXXXXXXXooooooooooooooooooooooooooooooooooooooooooXXXXXXoooOO",
"  XXXXXXXXXooooooooooooooooooooooooooooooooooooooooooooooooooOOO",
"   XoooXXXXooooooooooooooooooooooooooooooooooooooooooooooooOOOOO",
"   XooooXXXXoooooooooooooooooooooooooooooooooooooooooooooooOOOOO",
"    XooooXXXXXooooooooooooooooooooooooooooooooooooooooooooXoOOOO",
"     XoooXXXXXooooooooooooooooOoooooooooooooooooooooooooooXXooOO",
"  X    ooXXXXXXXoooooooooooooOOooXooooooooooooooooooooooooXXXooo",
"  XXXX  XXXXXXXXooooooooooooOOooXXoooooooooooooooooooooooooXXXXX",
"  XXXXXXXXXXooooooooooooooOOOooXXoooooooooooooooooooooooooooXXXX",
"   XXXXXXXXXXooooooooooOOOOOOoXXXooooooooooooooooooooooooooooXXX",
"    XXXXXXXXXXooooooooOOOOOoXXXXoooooooooooooooooooooooooooooXXX",
"      XXXXXXXXXXXoooooooooXXX XXooooooooooooooooooooooooooooooXX",
"   XXXXXXXXXXXXXXXXXoooXXXX   XXooooooooooooooooooooooooOOOoooXX",
"   XXXXXXXXXoooooooooooXXXX    XooooooooooooooooooooOOOOOOOoooXX",
"  XXXXXXXXoooooooooooooooooXX  XoooooooooooooooOOOOOOOOOOOOooXXo",
"  XXXXXXXooooooooooooooooooXXX   oooooooooooooooooOOOOOOOOOoXXoo",
"  XXXXXXXoooooooooooooooooooooX  XooooooooooooooooooOOOOOooXXooo",
"  XXXXXXoooooooooooooooooooooooXXXoooooooooooooooooOOOOOooXXoooo",
"   XXXXXoooooooooooooooooooooooXXXXXooooooooooooOOOOOOOoXXXooooo",
".  XXXXXoOOooooooooooooooooooooXXXXXXXXooooooOOOOOOOOOoXXXoooooo",
".   XXXXoOOOooooooooooooooooooXXXXXXXXXooooOOOOOOOOOooXXXooooooo",
"..   XXXXOOOOoooooooooooooooooXXXXoooXXXXXooooooooooXXXXXooooooo",
"...     XXOOOOOoXXoooooooooooXXXXoooooXXXXXXXXXXXXXXXXXXooOooooX",
"  .       ooooooXXXoooooooooooXXooooooooXXXXXXXXXXXXXXXXXoOOoooX",
"   ..          XXXXooooooooooooooooooXXXXXXXXXXXXX     XXoOOOooX"
};
