/* XPM */
static char *result[] = {
/* columns rows colors chars-per-pixel */
"64 64 6 1 ",
"  c #161C2E",
". c #506A69",
"X c #669D9D",
"o c #D0DEB5",
"O c #8CC3C4",
"+ c None",
/* pixels */
"   oooOOOOOOOOOOOOOOOOOOOOOOOOOOoooo...oooooooooooooooooooXX....",
"   ooooOOOOOOOOOOOOOOOOOOOOOOOOOoooo...oooooooooooooooooXXXX....",
"   ooooooOOOOOOOOOOOOOOOOOOOOOOooooo....ooooooooXXXXXXXXXXXX....",
"    oooooooooOOOOOOOOOOOOooooooooooo......OOOOOOOOOOXXXXXXXXX...",
"      oooXXXXXOOOOoooooooooooooooo     .OOOOOOOOOOOOXXXXXXXXX...",
".  ..    XXXXXXXXXXXXXoooooooooo       .OOOOOOOOOOXXXXXXXXXXXX..",
".  .......XXXXXXXXXXXXXXXOOOOOOOOOOX.  .OOOOOOOXXXXXXXXXXXXXXX..",
". ......XXXXXXXXXXXXXXXXOOOOOOOOOOO..  .XXXXXXXXXXXXXXXXXXXXXX..",
". .....XXXXXXXXXXXXXXXXXXXXXXOOOO..... XXXXXXXXXXXXXXXXXXXXXXXX.",
"...XXXXXXXXXXXXXXXXXXXXXXXXXXXXXX..... XXXXXXXXXXXXXXXXXXXXXXXX.",
"...XXXXXXXXXXXXXXXXXXXXXXXXXXXXXXX.....XXXXXXXXXXXXXXXXXXXXXXXX.",
"....XXXXXXXXXXXXXXXXXXXXXXXXXXXXXXX....XXXXXXXXXXXXXXXXXXXXXXXX.",
".......XXXXXXXXXXXXXXXXXXXXXXXXXXXX....XXXXXXXXXXXXXXXXXXXXXXX..",
"....XXXXXXXXXXXXXXXXXXXXXXXXXXXXXXX......XXXXXXXXXXXXXXXXXXXXX..",
"....XXXXXXXXXXXXXXXXXXXXXXXXXXXXXXXX......XXXXXXXXXXXXXXXXXXXX..",
"....XXXXXXXXXXXXXXXXXXXXXXXXXXXXXXXX.......XXXXXXXXXXXXXXXXXXX..",
".....XXXXXXXXXXXXXXXXXXXXXXXXXXXXXX...........XXXXXXXXXXXXXXXX..",
".....XXXXXXXXXXXXXXXXXXXXXXXXXXXXXX......OOO......XXXXXXXXXXXXX.",
"......XXXXXXXXXXXXXXXXXXXXXXXXXXXXX.....XOOOOOOOOXXXXXXXXXXXXXX.",
".XXX....XXXXXXXXXXXXXXXXXXXXXXXXXXX...  XOOOOOOOOXXXXXXXXXXXXXX.",
"..XXXXO............XXXXXXXXXXXXXXXX...   XOOOOOXXXXXXXXXXXXXXXX.",
"  .XXXOOOOOOO....XXXXXXXXXXXXXXXXXX...   XXXXXXXXXXXXXXXXXXXXXX.",
"  ..OOOOOOOOOOOOOXXXXXXXXXXXXXXXXXXX..   XXXXXXXXXXXXXXXXXXXXXX.",
"  ...OOOOOOOOOOXXXXXXXXXXXXXXXXXXXXX...  XXXXXXXXXXXXXXXXXXXXX..",
" .....XXXXXXXXXXXXXXXXXXXXXXXXXXXXXX...  XXXXXXXXXXXXXXXXXXXX.. ",
" ....XXXXXXXXXXXXXXXXXXXXXXXXXXXXX.....   XXXXXXXXXXXXXXXXXX..  ",
"  ...XXXXXXXXXXXXXXXXXXXXXXXXXX........    XXXXXXXXXXXXXX...    ",
"  .....XXXXXXXXXXXXXXXXXXXXXX..........  XXOXXXXXXXXXXXXX..  OOX",
"   .......XXXXXXXXXXXXXXXXXXXXXXXXX....  XXXOOXXXOOOOOOOOOOOOOOX",
"   ...XXXXXXXXXXXXXXXXXXXXXXXXXXXXX...    oooOOOOOOOOOOOOOOOOOOX",
"   ...XXXXXXXXXXXXXXXXXXXXXXXXXXXXX...    oooooooOOOOOOOOOooooXX",
"    .....XXXXXXXXXXXXXXXXXXXXXXXXXX.. ..   oooooooooooooOOoooooX",
"    .....XXXXXXXXXXXXXXXXXXXXXXXXX.. ...   OOOooooooooOOOOoooXXX",
"    X.......XXXXXXXXXXXXXXXXXXXXX..  ...   XXXXXXXXXXXXXXXXXXXXX",
".  XXXXOOOOXXXXXXXXXXXXXXXXXXXX...        XXXXXXXXXXXXXXXXXXOOXX",
".  XXXOOOOOOOOXXXXXXXXXXXXXXX      XX     XXXXXXXXXXXXXXXOOOOOXX",
".  XXOOOOOOOOOOOOOOOOXXXXXOOOOOOOOOXXXXX  XXXXXXXXXXXXXXXOOOXXXX",
".  XXOOOOOOOOOOOOOOOOOOOOOOOOOOOOOOXXXo   XXXXXXXXXXXXXXXXXXXXXX",
".  XXOOOOooooOOOOOOOOOOOOOOOOOOOOOooooX  .XXXXXXXXXXXXXXXXXXXXXX",
".  XXXOOOoooooooOOOOOOOOOOOOOOOoooooooX ..XXXXXXXXXXXXXXXXXXXXXX",
".  XXXXOOOooooooOOOOOOOOOOOOoooooooooOX ..XXXXXXXXXXXXXXXXXXXXXX",
".. XXXXXXXXXXXXXXXooooooooooooooooooX.....XXXXXXXXXXXXXXXXXXXXXX",
".. XXXXXXXXXXXXXXXXXXooooooooooooXXXX.....XXXXXXXXXXXXXXXXXXXXXX",
".. XXXXXXXXXXXXXXXXXXXXXXXXXXXXXXXXXXX....XXXXXXXXXXXXXXXXXXXXXX",
"...XXXXXXXXXXXXXXXXXXXXXXXXXXXXXXXXXXX....XXXXXXXXXXXXXXXXXXXXXX",
"...XXXXXXXXXXXXXXXXXXXXXXXXXXXXXXXXXXXX...XXXXXXXXXXXXXXXXXXXXXX",
"...XXXXXXXXXXXXXXXXXXXXXXXXXXXXXXXXXXXX...XXXXXXXXXXXXXXXXXXXXXX",
"..XXXXXXXXXXXXXXXXXXXXXXXXXXXXXXXXXXXX.....XXXXXXXXXXXXXXXXXXXXX",
"..XXXXXXXXXXXXXXXXXXXXXXXXXXXXXXXXXX.......XXXXXXXXXXXXXXXXXXXXX",
"...XXXXXXXXXXXXXXXXXXXXXXXXXXXXXXXXX........XXXXXXXXXXXXXXXXXXXX",
"...XXXXXXXXXXXXXXXXXXXXXXXXXXXXXXX..........XXXXXXXXXXXXXXXXXXXX",
"...XXXXXXXXXXXXXXXXXXXXXXXXXXXXXXX.OOO.....XXXXXXXXXXXXXXXXXXXXX",
"..XXXXXXXXXX...............XXXX..OOOOOX...XXXXXXXXXXXXXXXXXXXXX.",
"..XXXXXXXXXXXXX.........XXXXXXXOOOOOOXX....XXXXXXXXXXXXXXXXXXXX.",
"....XXXXXXXXXXXXXOOOOOOXXXXXOOOOOOOXXXX....XX...XXXXXXXXXXXXXXX.",
"......XXXXXXXXXXXXOOOOOXXXXXXXXOOXXXXX.....XXX...XXXXXXXXXXXXX..",
"......XXXXXXXXXXXXXXXXXXXXXXXXXXXXXXX..  ..XXX....XXXXXXXXXXXX..",
" ...XXXXXXXXXXXXXXXXXXXXXXXXXXXXXXXXX..  ...XXX...XXXXXXXXXXX...",
" ....XXXXXXXXXXXXXXXXXXXXXXXXXXXXXXX..   ...XXXX..XXXXXXXXXXX.. ",
" .....XXXXXXXXXXXXXXXXXXXXXXXXXXXXXX.     ..XXXXXXXXXXXXXXXX... ",
"   ....XXXXXXXXXXXXXXXXXXXXXXXXXXX.        ..XXXXXXXXXXXXXXX..  ",
"    .....XXXXXXXXXXXXXXXXXXXXXXXX.    +++    .XXXXXXXXXXXXXX+   ",
"++++......XXXXXXXXXXXXXXXXXXXXX...  ++++++      ...XXXXXXX++++++",
"+++++++++++++++XXXXXXXXX++++++++++++++++++++++++++++++++++++++++"
};
