/* XPM */
static char *result[] = {
/* columns rows colors chars-per-pixel */
"64 64 5 1 ",
"  c #8CC3C4",
". c #669D9D",
"X c #506A69",
"o c #D0DEB5",
"O c white",
/* pixels */
"         .............                 ..       ..XXXXXX..      ",
"        ........  ...XX.. ...                    ..XXXX..  ooo  ",
"        .....     ...XXX....                      ..XXXX.  oooo ",
"ooooooo           ..XXXX....                        .XXX....oooo",
"ooooo             XXXXX....                          .XXX... ooo",
"                 XXXXXX.     ...                     ..XX.....  ",
"                 ...XX.   ......                     ..XX.... oo",
"                 ...XX.   .....                      ..XX..ooooo",
"                ...XXX   ........                     ..X. o  o ",
"ooooo          ....XX    ........                     .... o   o",
"ooooooo      .....XX       ......                 oo  ....  o  o",
"ooooooooo  ......XX                         oooooooo  .....    o",
"ooooooooo......XXX                       oooooooooo   ....XX.   ",
"        ......                       oooooooo   oo  ......XXXXX ",
".............                     oooooooooo    oo .......XXXXXX",
"............                            oooooo       ...........",
"        ...                                              ...... ",
"        ...                                              ....   ",
"        ....                                             ...    ",
"         ...                                             ...    ",
"         ....                                           ...     ",
"         ....                                           ....    ",
"          ....                                          ....    ",
"            ...                                         ...     ",
"            ...                                          ..     ",
"             .. .                                               ",
"              . ..                                       ...    ",
"             ......                          ooooooo  ......    ",
"           .......    ..                  ooooooooo........     ",
"      .........  .    ...                   ooooo........       ",
"     .........   .     .....                  .........         ",
"    ..........         .......         ...............          ",
"          ....         .....X...................X.....          ",
"           ...           ...XXX...............XXXX.....         ",
"             ..          ...XXXXXX..XXXX...XXXXXXXX....         ",
"                       ......XXXXXXXXX........ .XXX....         ",
"                     ..............              .......        ",
"                             ...                 ........       ",
"                                                      ...       ",
"                                                      ...     oo",
"o                                                      .     ooo",
"ooo                                                        ooooo",
"oooo                                                       ooooo",
"o  oooo                                                   . oooo",
"o   oooooooooo                                            ..  oo",
"oo  oooooooooooo                                          ...   ",
".         .......                                          .....",
".........................     ..                            ....",
"...XXXX.............         ..                              ...",
"XXXXXXXX...........    ........                              ...",
"XXXXXX...              ........                               ..",
"....                        ....                        ooo   ..",
".                          ......                   ooooooo   ..",
"                           ......              ooooooo  ooo  .. ",
"                             ....                 ooo   ooo ..  ",
"                              ....                  o  oo  ..   ",
"                               ....                ooooo  ..    ",
"                               .....            ooooooo ...     ",
"               .               .......       ooooooooo ...      ",
"               .              .........    ooooo      XX.       ",
"              ..            ......   .....            XX.     ..",
".             ...         .......     ........XXX   XXXX  o   ..",
"..          ......            ..        ......XXXXXXXXX.. oo   .",
"...       .........                  ..........XXXXXXXX.. ooo  ."
};
