/* XPM */
static char *result[] = {
/* columns rows colors chars-per-pixel */
"64 64 6 1 ",
"  c #8CC3C4",
". c #669D9D",
"X c #506A69",
"o c #161C2E",
"O c #D0DEB5",
"+ c white",
/* pixels */
"         .............                 ..       ..XXXXXXoooooXXo",
"        ........  ....X.. ...                    ..XXX.....ooXXo",
"        .....     ...XXX....                      ..XX......oooo",
"OOOOOOO           XXXXXX....                        .X.......ooo",
"OOOOO              XXXXX...                          .XX.....ooo",
"                    XX..     ...                     ..X.....Xoo",
"                    XX.   .....                      ..XX....Xoo",
"                  ..XX.   .....                      ..XX....Xoo",
"                ....XX    .....                       .XX....XXo",
"OOOOO         .....X...   ......                      ......XXXo",
"OOOOOOO      ..........    ......                     ......XXXo",
"OOOOOOOOO  .............                              .....XXXXo",
"OOOOOOOOO..............                           O   .....XX..X",
"        ......                                      .....XXX...X",
".............                                    .......XXXX...X",
"............                                         .......XXXX",
"        ...                                            ......XXX",
"        ...                                             .....XXX",
"        ....                                            ......XX",
"         ...                                            ......XX",
"         ....                                           .......X",
"         ....                                           .......X",
"          ....                                          .......X",
"            ...                                         .......X",
"            ...                                        ..   ..XX",
"             ...                                      ..    .XXo",
"              .....                                  .     ..Xoo",
"             ......                          OOOOOOO      ..XXoo",
"           ......     ..                  OOOOOOOOO........XXooo",
"     ..........       ...                   OOOOO..........ooXXo",
"    ..........         .....                  ............ooXXXo",
"    ..........         .......         ..........XX....oooooXXXo",
"          ....         .....X...................XXX..........ooo",
"           ...           ...XXX...............XXXX... .......ooo",
"             ..          ...XXXXXX..XXXXXXXXXXXXXXX..       .ooo",
"                       ......XXXXXXXXX...       XXX...      ..oo",
"                     ..............                  .     ...oo",
"                             ...                      ........XX",
"                                                      .......XXX",
"                                                      .......XXX",
"O                                                       ...XXXXX",
"OOO                                                       .XXXXX",
"OOOO                                                     ...XXXX",
"OOOOOOO                                                    ...XX",
"OOOOOOOOOOOOOO                                             ....X",
"OOOOOOOOOOOOOOOO                                           ....X",
".         .......                          .               ....X",
".........................     ..           ..            OO...XX",
"...XXXX.............         ...           ..          OOOO...XX",
"XXXXXXXX...........    ........             ...     OOOOOO...XXo",
"XXXXXX...              ........              .....  OOOOO....XXo",
"....                        ....             ...............Xooo",
"                             ....           ..      .......Xoooo",
"                             ....                    ....XXXXXoo",
"                            .....                     ......XXoo",
"                          ........                    .......XXX",
"                              .......            OO  .   ...XXXX",
"                               ...... OO       OOOO      ..XXXXX",
"               .               .......OOOOOOOOOOOO..    ..XX...X",
"               .              ..........OOOOOOOO.........XX....X",
"              ..             .....   .....    ..........XX.....X",
".             ...            ....     ...............XXXXX.....o",
"..            ....            ..        .......XXXXXXXXXXX....oo",
"..        .........                  ...........XXXXXXXXXXXooooo"
};
