/* XPM */
static char *result[] = {
/* columns rows colors chars-per-pixel */
"64 64 6 1 ",
"  c #161C2E",
". c #506A69",
"X c #669D9D",
"o c #D0DEB5",
"O c #8CC3C4",
"+ c None",
/* pixels */
"     XXXXOXXXXXOOOOOOOOOOOOOOOOOOOOOOOOXXXXXXXXXXXOOOOOOOO...   ",
"    XXX..XXXXOOOOOOOOOOOOOOOOOOOoooo...XXXXXOOOOOOOOOOOOO....   ",
"  ......XOOOOOOOOOOOOOOOOOOOOOOoooooX.. XXXOOOOOOOOOOOO......   ",
"  ....XXOOOOOOOOOOOOOOOOOooooooooooo .. .OOOOOOOOOoOOoo.......  ",
" ...XXXXXXXXXXOOOOoooooooooooooooo     .OOOOOOOOooooooX.......  ",
" ..XXXXXXXXXXXXXXXXXXXoooooooooo ....  .OOOOOOOoooooXXX..XXXX.  ",
" ...XXXXXXXXXXXXXXXXXXXXXXXXXXXX.....  .OOOOOOOooXXXXXX.XXXXX.  ",
" ...XXXXXXXXXXXXXXXXXXXXXXXXXXXXX....  .XXOOXOOXXXXXXXXXXXXXX.  ",
" ....XXXXXXXXXXXXXXXXXXXXXXXXXXXXX...  XXXXXXXXXXXXXXXXXXXXX..  ",
" XX...XXXXXXXXXXXXXXXXXXXXXXXXXXXXX... XXXXXXXXXXXXXXXXXXX....  ",
".XXX.X.XXXXXXXXXXXXXXXXXXXXXXXXXXXX....XXXXXXXXXXXXXXXXXX.....  ",
".XXX.XXXXXXXXXXXXXXXXXXXXXXXXXXXXXX....XXXXXXXXXXXXXXXXXX.....  ",
".XXX.XXXXXXXXXXXXXXXXXXXXXXXXXXXXXX....XXXXXXXXXXXXXXXXXX.....  ",
".XXXXXXXXXXXXXXXXXXXXXXXXXXXXXXXXXXX.....XXXXXXXXXXXXXXXX.....  ",
"..X..XXXXXXXXXXXXXXXXXXXXXXXXXXXXXXX.....XXXXXXXXXXXXX........  ",
"..X..XXXXXXXXXXXXXXXXXXXXXXXXXXXXXX......XX....XXXXX..........  ",
". ...XXXXXXXXXXXXXXXXXXXXXXXXXXX..............OOOXXX....X.....  ",
". ...XXXXXXXXXXXXXXXXXXXXXXXX................OOOOXXXXXXXX....   ",
".  ..XXXXXXXXXXXXXXXXXXXXXXXX.....XXX...XOOOOOOOOXXXXXXXX....   ",
".  ...XXXXXXXXXXXXXXXXXXXOOOOOOXXXXXX...XOOOOOOXXXXXXXXXX....   ",
".  ...XXXXXXXXXXXXXXXXXOOOOOOOXXXXXX.....XOOXXXXXXXXXXXXX...    ",
".  ..XXXXXXXXXXXXXXXXXXXXXXXXXXXXXX......XXXXXXXXXXXXXXXX..     ",
"   ..XXXXXXXXXXXXXXXXXXXXXXXXXXXXXX... ...XXXXXXXXXXXXXX...     ",
"    .XXXXXXXXXXXXXXXXXXXXXXXXXXXXXX... ....XXXXXXXXXXXXX....XXX ",
"    .XXXXXXXXXXXXXXXXXXXXXXXXXXXXX....  ...XXXXXXXXXXXXX..XXXXX ",
"    .XXXXXXXXXXXXXXXXXXXXXXXXXXXXX....   ...XXXXXXXXXXXXXOXXXXX ",
"  ...XXXXXXXXXXXXXXXXXXXXXXXXXXXXX....    .....XXXXXXXXXOXXXXX  ",
"X ....XXXXXXXXXXXXXXXXXXXXXXXXXXX....   XXXOOOXXXXXOOOOOOXXXXX  ",
"X ....XXXXXXXXXXXXXXXXXXXXXXXXXX.....    XXXOOOOOOOOOOOOOXXXX.  ",
"X  ....XXXXXXXXXXXXXXXXXXXXXXXX.....      oooOOOOOOOOOOOOXX...  ",
"X  ......XXXXXXXXXXXXXXXXXXXX......       oooooooOOOOOOOO.....  ",
"   XX.....XXXXXXXXXXXXXXXXXXX......        oooooooooOOO.......  ",
"   XXXXXXOOXXXXXXXXXXXXXXXXX..        ..   OOOOoooXXXX........  ",
"   XXXXXOOOOOOXXXXXXXXXXXXXXX      XXX..   XXXXOXXXXXX........  ",
".. XXOOOOOOOOOOOOOOOOXXXXXOOOOOOOOOXXX..  XXXXXXXXXXXXXXXX....  ",
"....XOOOOOOOOOOOOOOOOOOOOOOOOOOOOOOXXX..  XXXXXXXXXXXXXXXX....  ",
"...XXOOOOOoooOOOOOOOOOOOOOOOOOOOOOoooo..  XXXXXXXXXXXXXXXX....  ",
"...XXXOOOoooooooOOOOOOOOOOOOOOOooooooo..  XXXXXXXXXXXXXXXX..... ",
"...XXXXOOOooooooOOOOOOOOOOOOooooooooo.....XXXXXXXXXXXXXXXX..... ",
"...XXXXXXXXXXXXXXXooooooooooooooooooXX....XXXXXXXXXXXXXXXX..... ",
"..XXXXXXXXXXXXXXXXXXXooooooooooooXXXXXX...XXXXXXXXXXXXXXXX..... ",
"..XXXXXXXXXXXXXXXXXXXXXXXXXXXXXXXXXXXXX...XXXXXXXXXXXXXXXX...   ",
"..XXXXXXXXXXXXXXXXXXXXXXXXXX.XXXXXXXXXX...XXXXXXXXXXXXXXX....   ",
"...XXXXXXXXXXXXXXXXXXXXXXXX....XXXXXXXX...XXXXXXXXXXXXXXX...    ",
"...XXXXXXXXXXXXXXXXXXXXXXX.....XXXXXXXX...XXXXXXXXXXXXXXXXX  .  ",
"...XXXXXXXXXXXXXXXXXXXXXX...OOOXXXXXXXX...XXXXXXXXXXXXXXXXXXXX  ",
"....XXXXXXXXXXXXXXXXXXXXX..OOOOOXXXXXX....XXXXXXXXXXXXXXXXXXXX  ",
".....XXXXXXXXXXXXXXXXXXXX..OOOXXXXXXXX.....XXXXXXXXXXXXXXOOXX.  ",
"......XXXXXXXXXXXXXXXXXXXXXOOXXXXXXX..XXX..XXXXXXXXXXXOOOOOX..  ",
".......XXXXXXXXXXXXXXXXXXXXXXXXXXXX..XXXX...XXXXXXXXXOOOOO....  ",
".........XXXXXXXXXXXXXXXXXXXXXXXX..OOOXX.....XXXXXXXXXXXX.....  ",
"....X.......XXXXXXXXXXXXXXXXXXX..OOOOO........XXXXXXXXX.......  ",
".X.XXXXXXXXXXXXXXXXXXXXXXOOOOOOOOOOOOXX...XXXXXXXXXXXXXXXX....  ",
".XXXXXXXXXXXXXXXXXXXOOOOOOOOOOOOOOOOXXX....XXXXXXXXXXXXXXX....  ",
".XXXXXXXXXXXXXXXXXXXXXOOOOOOOOOXXXXXXXX....XX...XXXXXXXXXX...   ",
".XXXXXXXXXXXXXXXXXXXXXXXXXXXXXXXXXXXXX.....XX....XXXXXXXXXX..  +",
" XX.XXXXXXXXXXXXXXXXXXXXXXXXXXXXXXXXX..  ...X.....XXXXXXXXX..  +",
" XX..XXXXXXXXXXXXXXXXXXXXXXXXXXXXXXX...  ....X....XXXXXXXXX    +",
"  X...XXXXXXXXXXXXXXXXXXXXXXXXXXXXX...    .......XXXXXXXXXX    +",
"  ......XXXXXXXXXXXXXXXXXXXXXXXXXX        ......XXXXXXXXX..   ++",
"    .....XXXXXXXXXXXXXXXXXXXXXXX           ......XXXXXXX..    ++",
"     .......XXXXXXXXXXXXXXXXXX               .....XXX.....  ++++",
"++++++........XXXXXXXXXXXXXXX++++++++++++++     ++++++++++++++++",
"++++++++++++++++++++++++++++++++++++++++++++++++++++++++++++++++"
};
