/* XPM */
static char * solo_xpm[] = {
"64 64 9 1",
" 	c #9BB94E",
".	c #BFBA5B",
"+	c #79A863",
"@	c #679175",
"#	c #506A69",
"$	c #161C2E",
"%	c #8CC3C4",
"&	c #669D9D",
"*	c #D0DEB5",
"     ..........+++++++++++++++++++++++++++++++++++++++++++++++++",
"      ...... +++   +++++++++++++++++++++@@@@+++++++++++++++++   ",
"  .........            +++###########++@@@@@@        @@@@+++    ",
"...........       +####$$$$#############@@@@@@@@@@  @@@@@@@+    ",
"..........        ####$$$%%%%%%%%&&&######@@@@@@@@@@@...@@@@   .",
"     .....   ########$$$%%%%%%%%%%%&&######@@@....@@.....@@@@...",
"      ..... #####$$$$$$%%%%%%%%%%%%%&&############............  ",
"        ...####$$$$$$$$%%%%%%%%%%%%%%%%%%%############........  ",
"..       .######%%$$$$$%%%%%%%%%%%%%%%%%%%%%%##########....... .",
"...       ####&%%%%%%$$%%%%%%%%%%%%%%%%%%%%%%%###&&&####........",
"...   ..#####&%%%%%%%&$$%%%%%%%%%%%%%%%%%%%%%%%%#&&&&&###.......",
"...  .######%%%%%%%%%&%&&&&%%%%%%%%%%%%%%%%%%***%&&&&&&###......",
"......##&&#%%%%%%%%%%%%%&&&&&%&&%%%%%%%*********%%&&&&&###......",
".....##&&&&%%%%%%%%%%%%%%&&&&&&&&&&%***********%%&&&&&&&###..   ",
"     #&&&&&%%%%%%%%%%%%%%%%&&&&&&&&&&&&&&&&&&&&&&&&&&&&&&##     ",
"    ##&&&&&%%%%%%%%%%%%%%%%&&&%%%&&&&&&&&&&&&&&&&%%%%&&&&##     ",
"    #&&&&&&&**%%%%%%%%%%%%%&&&%%%%&&&&&%%%%%%%%%%%%%%%&&&##     ",
"    #&&&&#&&**%%%%%%%%%%%%%&&&%%%%%&&&%%%%%%%%%%%%%%%%&&&##     ",
"    #&&&##&&*****%%%%%%%%%&&&&%%%%%%&&%%%%%%%%%%%%%%%%&&&##     ",
"   +######&&&*********%&&&&&&&%%%%%%&&%%%%%%%%%%%%%%%%%&&##   ++",
"+   ###&&&&&&********&&&&&&&&%%%%%%%%&&%%%%%%%%%%%%%%%%&&##+++++",
"+++####&&&&&&&&****&&&&&&&&&%%%%%%%%%%&%%%%%%%%%%%%%%%%&&&##++++",
"   ###&&&&%%&&&&&&%%%&&&&&%%%%%%%%%%%%%%%%%%%%%%%%%%%%%&&&##++++",
"   ###&&%%%%%&&&&&%%%%&&&&%%%%%%%%%%%%%%%%%%%%%%%%%%%%&&&&##    ",
"   ##&&&%%%%%%%&&&%%%%%%&&%%%%%%%%%%%%%%%%%%%%%%%%%%%%&&&###    ",
"  $##&&%%%%%%%%%%&&%%%%%&&%%%%%%%%%%%%%%%%%%%%%%%%%%%%%%#####   ",
"  $$#&&%%%%%%%%%%%&&&&&&&%%%%%%%%%%%%%%%%%%%%%%%%%%%%%%&##$$#&  ",
".@$$$&&%%%%%%%%%%%%&&&&&&&%%%%%%%%%%%%%%%%%*******%%&&&&##$$$$++",
"..$$$&&%%%%%%%%%%%%%%&&&&&&%%%%%%%%%%%%%*********&&&&&&&$$$$$$..",
"  $$$&&&%%%%%%%%%%%%%%%&&&&&%%%%%%%%%%%%%%*****&&&&&&&#$$$$$$$$.",
"  $$##&&%%%%%%%%%%%%%%%&&&&&%%%%%%%%%%%%%%%%%%&###&&&&&&&&&&$$$ ",
"  $$####&%%%%%%%%%%%%%%&&&&&&&%%%%%%%%%&&&&&&&###&&&&&%%%%&&&$$ ",
"..$####&&&&&&&%%%%%%%%%&&&&&#&&&&&&&&&&&&&&&#####&&&%%%%%%&&&##$",
".#####&&&&&&&&%%%%%%%%%%%&&&###&&&&&&&&&&########&&&%%%%%%&&&##$",
".#####&&&&&&%&&%%%%%%%%%%&&&#####&&&#######%%%#######%%%%&&&&#$$",
" ####$&&&&&&%%%%%%%%%%%&&&&&&#########%%%%%%%%%%###&%%%%&&&&##$$",
" ####$&&&&%%%%%%%%%%%&&&&&&&&&&&&&&%%%%%%%%%%%%%%%%&%%%&&&&###$$",
"$$##$$&&&%%%%%%%%%%%%%%%%%%%%&&&%%%%%%%%%%%%%%%%%%%%&&&&&&####$$",
"$$$$$$&&&%%%%%%%%%%%%%%%%%%%%%%%%%%%%%%%%%%%%%%%%%%%&&&&&####$$$",
"$$$$$$$&&%%%%%%%%%%%%%%%%%%%%%%%%%%%%%%%%%%%%%%%%%%%%&&####$$$$$",
"$$$$$$$%%%%%%%%%%%%%%%%%%%%%%%%%%%%%%%%%%%%%%%%%%%%%%&&&######$$",
"$$$##$$$%%%%%%%%%%%%%%%%%%%%%%%%%%%%%%%%%%%%%%%%%%%%&&&##&&&##$$",
"$$####$$%%%%%%%%%%%%%%%%%%%%%%%%%%%%%%%%%%%%%%%%%%%%&&##&&&&##$$",
"$$#####$$**%%%%%%%%%%%%%%%%%%%%%%%%%%%%%%%%%%%%%%&&&&###&&&&##$$",
"$$#####$$***%%%%%%%%%%%&&%%%%%%%%%%%%%%%%%%%%%%%%%%###########$$",
"$#######$$*****%%%%%%&&&&%%%%%%%%%%%%%%%%%%%%%%%%%%&&&&#######$$",
"$###########******&&&&&&%%%%%%%%%%%%%%%%%%%%%%%%%&&&&&&&#####$$$",
"$####&&#########&&&&&&%%%%%%%%%&%%%%%%%%%%%%%%%&&&&&&&&&#####$$$",
"$###&&&&########&&&&&&%%%%%%%%&&%%%%%%%%%%%%%%%%%%%&&&&###$$$$$$",
"$###&&&&&&##########&*%%%%%%%%&&%%%%%%%%%%%%%%%%%%%%%%$$$$$$$$$$",
"$$##&&&&&&&&#######&&*%%%%%%%%&%%%%%%%%%%%%%%%%%%%%%%*%$$$$$#$$$",
"$$##&&&&&&&&&&#$#&&&**%%%%%%%%&&%%%%%%%%%%%%%%%%%%%%**&&$$$###$$",
"$$###&&&&&&&&&$$#&&&***%%%%%%%&&&%%%%%%%%%%%%%%%%%%***&&#$####$$",
"$$####&&&&&&&&$$$#&&&****%%%%%&&$%%%%%%%%%%%%%%%%%***&&&#$&&###$",
"$$$####&&&&&&&$$$#&&&*******%%&&$%%%%%%%%%%%%*******&&&&#&&&###$",
"$$$######&&&&$$&$$$&&&********&$$$%%%%%%%***********&&&&&&&&###$",
"$$$$$#####&&$$$&%%&&&&&&******$$$$$%%%%%%**********&&&&&&&&&###$",
"$$$$$$$####$$$&&%%%%&&&&&&&**&$$$$$$%%%%%%%*******&&&&&##&&&###$",
"$$$$$$$&&&&&&&&&%%%%%%&&&&&&&&%%$#######%%%*****&&&&&&&##&&####$",
"$$$##$#&&&&&&&&&%%%%%%%%%%%&&&%%%############&&&&&&&&&########$$",
"$$#####&&&&%%&&&%%%%%%%%%%%%%%%%%%%##########&&&&&&&&#########$$",
"$$#####&&&&%%%&&%%%%%%%%%%%%%%%%%%%%%%%####&&&&&&&&&&##%%####$$$",
"$$######&%%%%%%%%%%%%%%%%%%%%%%%%%%%%%&&&&&&&&&&&&&&&%%%%%##$$$$",
"$$$#####&%%%%%%%%%%%%%%%%%%%%%%%%%%%%%&&&&&&&&&&&&##%%%%%%#$$$$$"};
