/* XPM */
static char * solo_down_xpm[] = {
"64 64 8 1",
" 	c #161C2E",
".	c #506A69",
"+	c #669D9D",
"@	c #8CC3C4",
"#	c #D0DEB5",
"$	c #9BB94E",
"%	c #BFBA5B",
"&	c #79A863",
"   .....+@@@@@@@@@@@@@@@@@@@@@@@@@@@@@@+++++++++++@@@@@@@@...   ",
"    ....++@@@@@@+@@@@@@@@@@@@@@@####...+++++@@@@@@@@@@@@@....   ",
"    .....+@@@@@@++@@@@@@@@@@@@@#####+.. +++@@@@@@@@@@@@......   ",
"    +++..+++++@@+++@@@@@@########### .. .@@@@@@@@@#@@##.......  ",
"    ++++..+++++++++###############     .@@@@@@@@######+.......  ",
"   ..++++++.++++++++++##########       .@@@@@@@#####+++..++++.  ",
"   ..++++++........+++++++++++++.....  .@@@@@@@##++++++.+++++.  ",
"   ....++++.....+++++++++++++++++....  .++@@+@@++++++++++++++.  ",
"   ............+++++++++++++++++++...  +++++++++++++++++++++..  ",
"   ............++++++++++++++++++++... +++++++++++++++++++....  ",
"   ...........+++++++++++++++++++++....++++++++++++++++++.....  ",
"  ............+++++++++++++++++++++....++++++++++++++++++.....  ",
"  ....+.......+++++++++++++++++++++....++++++++++++++++++.....  ",
"  ....++.....+++++++++++++++++++++++.....++++++++++++++++.....  ",
"  ....++++++++++++++++++++++++++++++.....+++++++++++++........  ",
"  ....+++++++++++++++++++++++++++++......++....+++++..........  ",
"  ......++++++++++++++++++++++++..............@@@+++....+.....  ",
"  ..........++++++++++++++++++...............@@@@++++++++....   ",
"   ...........+++++++++++++++++++++++...+@@@@@@@@++++++++....   ",
"   .............+++++++++++++++++++++...+@@@@@@++++++++++....   ",
"   ................+++++++++++++++++.....+@@+++++++++++++...    ",
"   ..........+++++++++++++++++++++++.....++++++++++++++++..     ",
"    .........+++++++++++++++++++++++.. ...++++++++++++++...     ",
"      .....+++++++++++++++++++++++++.. ....+++++++++++++....+++ ",
"       .....+++++++++++++++++++++++...  ...+++++++++++++..+++++ ",
"        ......+++++++++++++++.+++++...   ...+++++++++++++@+++++ ",
"    ..     .....++++++++++++..++++.++.    .....+++++++++@+++++  ",
"   .............++++++++++...@@++.+++   +++@@@+++++@@@@@@+++++  ",
"   ...........++++++++++++..@@@+..++.    +++@@@@@@@@@@@@@++++.  ",
"    ..........+++++++++++++.@@+.....      ###@@@@@@@@@@@@++...  ",
"    .......+++++++++++++++++++.....       #######@@@@@@@@.....  ",
"   +++.....+++++++++++++++++++.....        #########@@@.......  ",
"  ++++++++++++++++++++++++++++        ..   @@@@###++++........  ",
"  +++++++++@@@+++++++++++++++      +++..   ++++@++++++........  ",
"  ++++++++@@@@@@@@@@@+++++@@@@@@@@@+++..  ++++++++++++++++....  ",
"  .+++++++@@@@@@@@@@@@@@@@@@@@@@@@@+++..  ++++++++++++++++....  ",
"  ...++++####@@@@@@@@@@@@@@@@@@@@@####..  ++++++++++++++++....  ",
"  ...++++#######@@@@@@@@@@@@@@@#######..  ++++++++++++++++..... ",
"  ......@@######@@@@@@@@@@@@#########.....++++++++++++++++..... ",
"  ........++++++++##################++....++++++++++++++++..... ",
"  ..........+++++++++############++++++...++++++++++++++++..... ",
"  ..........+++++++++++++++++++++++++++...++++++++++++++++...   ",
"  .........++++++++++++++++++++++++++++...+++++++++++++++....   ",
"  .........+++++++++++++++++++...++++++...+++++++++++++++...    ",
"   ........++++++++++++++++++....++++++...+++++++++++++++++  .  ",
"   ........+++++++++++++++++++@@@@+++++...++++++++++++++++++++  ",
"   .........++++++++++++++++++@@@+++++....++++++++++++++++++++  ",
"   ....++....+++++++++++++++++++++++++.....++++++++++++++@@++.  ",
"   ....++++...++++++++++++++++++++++..+++..+++++++++++@@@@@+..  ",
"   ....+++++....+++++++++++++++++++..++++...+++++++++@@@@@....  ",
"   .....+++++@@@@++++++++++++++++..@@@++.....++++++++++++.....  ",
"   ......++@@@@@@@+++++++++++++..@@@@@........+++++++++.......  ",
"   ........@@@@@@@@@@++++@@@@@@@@@@@@++...++++++++++++++++....  ",
"   ..........@@@@@@@@@+++++@@@@@@@@@+++....+++++++++++++++....  ",
"    ...........+++@@@@@++++++++++++++++....++...++++++++++...   ",
"$   ...........+++++++++++++++++++++++.....++....++++++++++..  %",
"$$   ..........++++++++++++++++++++++..  ...+.....+++++++++..  $",
"$$    .......+++++++++++++++++++++++...  ....+....+++++++++    $",
"$$$   .....++++++++++++++++++++++++...    .......++++++++++    $",
"$$$$$  .....++++++++++++++++++++++        ......+++++++++..   $$",
"$$$$$$  .......+++++++++++++++++           ......+++++++..    $$",
"$$$$$%%%%$.......+++++++++++++               .....+++.....  $$$$",
"$$$%%%%%%%%%%%%%%+++++++++......$$$$$$$$$$$     &&&&&&&&&&&&&$$$",
"&&%%%%%%%%%%%%%%&&&&$$&&&&&&&&&&&$$&&&&$$$$&&&&&&&&&&&&&&&&&&&&&"};
