/* XPM */
static char *result[] = {
/* columns rows colors chars-per-pixel */
"64 64 6 1 ",
"  c #161C2E",
". c #506A69",
"X c #669D9D",
"o c #D0DEB5",
"O c #8CC3C4",
"+ c None",
/* pixels */
"   +++++++++++++++++++++++++++++++++++++++++++++++++++++++++++++",
"O   ...+++++++++++++++++++++++++++++++++++++++++++++++++++++++++",
"OOOO........++++++++++++++++++.......+++++++++++++++++++++++++++",
"OOOOO...................................++++++++++++++++++++++++",
"OOOOOXXXX.....................XXXXXX......++++++++++++++++++++++",
"OOOOOOOXXXXXXOOOOOXX...OOOOXXXXXXXXXX......+++++++++++++++++++++",
"OOOOOOOOOXXXXOOOOOX..OOOOOOOOXXXXXXXXX............++++++++++++++",
"OOOOOOOOOOOXXXOOXXX..OOOOOOOOXXOOOOOOOOOOO............++++++++++",
"OOOOOOOOOOOXXXXXXXX..OOOOOOOOXOOOOOOOOOOOOOOO..........+++++++++",
"oooOOOOOOOOXXXXXXX.....OOOOXXXOOOOOOOOOOOOOOOO...XXX....++++++++",
"ooooOOOOOOOXXXXXX...XXXXXXXXXXOOOOOOOOOOOOOOOOOO.XXXXX...+++++++",
"oooooooooOXXXXXXXXXXXXXXXXXXXXOOOOOOOOOOOOOOOoooOXXXXXX...++++++",
"oooooooXXXXXXXXXXXXXXXXXXXXXXXXXOOOOOOOoooooooooOOXXXXX...++++++",
"XXXXXXXXXXXXXXOOOOOOOXXXOOOOOXXXXXXOoooooooooooOOXXXXXXX...+++++",
"XXXXXXXXXXXXXOOOOOOOOOOOOOOOOOXXXXXXXXXXXXXXXXXXXXXXXXXXX..+++++",
"XXXXXXXXXXXXOOOOOOOOOOOOOOOOOOOOOXXXXXXXXXXXXXXXXOOOOXXXX..+++++",
"OOOOOOOOXXXOOOOOOOOOOOOOOOOOOOOOOOXXXXXOOOOOOOOOOOOOOOXXX..+++++",
"OOOOOOOOXXXOOOOOOOOOOOOOOOOOOOOOOOOXXXOOOOOOOOOOOOOOOOXXX..+++++",
"OOOOOOOOXXXXOOOOOOOOOOOOOOOOOOOOOOOOXXOOOOOOOOOOOOOOOOXXX..+++++",
"OOOOOOOOOXXXOOOOOOOOOOOOOOOOOOOOOOOOXXOOOOOOOOOOOOOOOOOXX..+++++",
"OOOOOOOOOXXXXOOOOOOOOOOOOOOOOOOOOOOOOXXOOOOOOOOOOOOOOOOXX..+++++",
"OOOOOOOOOXXXXOOOOOOOOOOOOOOOOOOOOOOOOOXOOOOOOOOOOOOOOOOXXX..++++",
"OOOOOOOOOOXXXXOOOOOOOOOOOOOOOOOOOOOOOOOOOOOOOOOOOOOOOOOXXX..++++",
"OOOOOOOOOOOOXXXOOOOOOOOOOOOOOOOOOOOOOOOOOOOOOOOOOOOOOOXXXX..++++",
"OOOOOOOOOOOOXXXXXOOOOOOOOOOOOOOOOOOOOOOOOOOOOOOOOOOOOOXXX...++++",
"OOOOOOOOOOOOOXXXXXOOOOOOOOOOOOOOOOOOOOOOOOOOOOOOOOOOOOOO.....+++",
"OOOOOOOOOOOOOOXXOOOOOOOOOOOOOOOOOOOOOOOOOOOOOOOOOOOOOOOX..  .+++",
"OOOOOOOOOOOOOXXXXOOOOOOOOOOOOOOOOOOOOOOOOOOoooooooOOXXXX..   +++",
"OOOOOOOOOOOXXXXXXXOOOOXXOOOOOOOOOOOOOOOOoooooooooXXXXXXX     +++",
"OOOOOXXXXXXXXXXOXXXOOOXXXOOOOOOOOOOOOOOOOOoooooXXXXXXX.       ++",
"OOOOXXXXXXXXXXOOOOOOOOOXXXXXOOOOOOOOOOOOOOOOXXXXXXX...XXXXX.  ++",
"OOOOXXXXXXXXXXOOOOOOOOOXXXXXXXOOOOOOOOXXXXXXXXXX......XXXXXX..++",
"OOOOOOOOOOXXXXOOOOOOOOOXXXXX.XXXXXXXXXXXXXXXXX.......XXXOXXX..++",
"OOOOOOOOOOOXXXOOOOOOOOOOOXXX..XXXXXXXXXXXXXX.......XXXXOOOXX..++",
"OOOOOOOOOOOOOXXOOOOOOOOOOXXX.....XX...............XXXXOOOOXX..++",
"OOOOOOOOOOOOOOOOOOOOOOOXXXXXX........OOOOOOOOX....XXXOOOOXXX..++",
"OOOOOOOOOOOOOOOOOOOOOXXXXXXXXXXXXXOOOOOOOOOOOOOX..OOOOOOOXXX..++",
"OOOOOOOOOOOOOOOOOOOOOOOOOOOOOXXOOOOOOOOOOOOOOOOX...OOOOOOXXX...+",
"OOOOOOOOOOOOOOOOOOOOOOOOOOOOOOOOOOOOOOOOOOOOOOOOO...OOOOXXXX...+",
"OOOOOOOOOOOOOOOOOOOOOOOOOOOOOOOOOOOOOOOOOOOOOOOOOOO...XXXXXX...+",
"oOOOOOOOOOOOOOOOOOOOOOOOOOOOOOOOOOOOOOOOOOOOOOOOOOOOOX.XXX.....+",
"oooOOOOOOOOOOOOOOOOOOOOOOOOOOOOOOOOOOOOOOOOOOOOOOOOOOOXX...XX..+",
"ooooOOOOOOOOOOOOOOOOOOOOOOOOOOOOOOOOOOOOOOOOOOOOOOOOOOXXX..XXX..",
"oOOOoooOOOOOOOOOOOOOOOOOOOOOOOOOOOOOOOOOOOOOOOOOOOOOOOXXXX.XXX..",
"oOOOooooooooooOOOOOOOOOOOOOOOOOOOOOOOOOOOOOOOOOOOOOOXXXXXXXXXX..",
"ooooooooooooooooOOOOOOOOOOOOOOOOOOOOOOOOOOOOXXXXXXXXXXXXXXXX....",
"XOOOOOOOOOXXXXXXXOOOOOOOOOOOOOOOOOOOOOOOOOOOOXXXXXXXXXXXOOOXXX..",
"XXXXXXXXXXXXXXXXXXXXXXXXXOOOOOXXOOOOOOOOOOOOOOOOOOXXXXXXOOOXXX..",
"XXX...XXXXXXXXXXXXXXOOOOOOOOOXXOOOOOOOOOOOOOOOOOOOOOOOXOOOOXXX..",
"........XXXXXXXXXXXOOOOXXXXXXXXOOOOOOOOOOOOOOOOOOOOOOOXOOOOXXX..",
"......XXXOOXXOOOOOOOOOOXXXXXXXXOOOOOOOOOOOOOOOOOOOOOOOXOOXXXXX..",
"XXXXOOOOOOOOOOOOOOOOOOOOOOOOXXXXOOOOOOOOOOOOOOOOOOOOOOXXXXXXX...",
"OOOOOOOOOOOOOOOOOOOOOOOOOOOXXXXXXOOOOOOOOOOOOOOOOOOOOXXXXXXXX...",
"OOOOOOOOOOOOOOOOOOOOOOOOOOOXXXXXXOOOOOOOOOOOOOOoooooXXXXXXXX....",
"OOOOOOOOOOOOOOOOOOOOOOOOOOOXXXXXXOOOOOOOOOOOOOOOOOoooooXXXooo...",
"OOOOOOOOOOOOOOOOOOOOOOOOOOOOOOXXXXOOOOOOOOOOOOOOOOOOooooooooo.. ",
"OOOOOOOOOOOOOOOOOOOOOOOOOOOOOOOXXXXXXOOOOOOOOOOOOOOooOOoooooX.. ",
"OOOOOOOOOOOOOOOOOOOOOOOOOOOOOOOXXXXXXOOOOOOOOOOOoooOOOOooooX... ",
"OOOOOOOOOOOOOOOXOOOOOOOOOOOOOOOXXXXXXXXOOOOooooooooOOOooooXX... ",
"OOOOOOOOOOOOOOOXOOOOOOOOOOOOOOXXXXXXXXXOOOOooooooooOOoooXXXX..  ",
"OOOOOOOOOOOOOOXXOOOOOOOOOOOOOXXXXXOOOXXXXXOOOOOOOooooXXXXXX...  ",
"OOOOOOOOOOOOOOXXXOOOOOOOOOOOOXXXXOOOOOXXXXXXXXXXXXXXXXXXX.....  ",
"OOOOOOOOOOOOOOXXXXOOOOOOOOOOOOXXOOOOOOOOXXXXXXXXXXXXXXX.......  ",
"OOOOOOOOOOXXXXXXXXXOOOOOOOOOOOOOOOOOOXXXXXXXXXXXXX............. "
};
