/* XPM */
static char *result[] = {
/* columns rows colors chars-per-pixel */
"64 64 6 1 ",
"  c #161C2E",
". c #506A69",
"X c #669D9D",
"o c #D0DEB5",
"O c #8CC3C4",
"+ c None",
/* pixels */
"+++++++++++++++++++++++++++++++++++++++++++++++++++++++++++     ",
"++++++++++++++++++++++++++++++++++++++++++++++++...++++++.     O",
"++++++++++++++++++++++++++.........++++++++++.................OO",
"+++++++++++++++++++....    .................................XXOO",
"++++++++++++++++++....   OOOOOOOOOO........................XXXOO",
"+++++++++++++........   OOOOOOOOOOOOOOOOOO.....OOOOOO.....XXXOOO",
"++++++++++++.....      OOOOOOOOOOOOOOOOOOOOOOOOOOOOOOXX..XXXXOoo",
"+++++++++++....        OOOOOOOOOOOOOOOOOOOOOOOOOOOOOOXX..XXooooO",
"++++++++++......OO     OOOOOOOOOOOOOOOOOOOOOOOOOOOOOOOXX.XoooooO",
"++++++++++....XOOOOOO  OOOOOOOOOOOOOOOOOOOOOOOOOOOOOOOXXXXoooooO",
"++++++++.....XOOOOOOOX  OOOOOOOOOOOOOOOOOOOOOOOOOOOOOOXXXXoooooo",
"++++++......OOOOOOOOOXOXXXXOOOOOOOOOOOOOOOOOOOOOoooOOOXXXXXXoooo",
"++++++..XX.OOOOOOOOOOOOOXXXXXOOOOOOOOOOOOOoooooooooOOXXXXXXXXXoo",
"+++++..XXXXOOOOOOOOOOOOOOXXXXXOOOOOOOOOoooooooooooOOXXXX..XXXXXo",
"+++++.XXXXXOOOOOOOOOOOOOOOOXXXXXXXOOOOOOOOOOOOOOOXXXXXXX....XXXX",
"++++..XXXXXOOOOOOOOOOOOOOOOXXXXXXXXXXXXOOOOOOOOOOOOOOXXXXX....XX",
"++++.XXXXXXXooOOOOOOOOOOOOOXXXXXXXXXOOOOOOOOOOOOOOOOOOOOOX..XXXO",
"++++.XXXX.XXooOOOOOOOOOOOOOXXXXXXXOOOOOOOOOOOOOOOOOOOOOOOXXXXOOO",
"++++.XXX..XXoooooOOOOOOOOOXXXXXXXOOOOOOOOOOOOOOOOOOOOOOOOXXXOOOO",
"++++......XXXoooooooooOXXXXXXXXOOOOOOOOOOOOOOOOOOOOOOOOOOXXXOOOO",
"++++...XXXXXXooooooooXXXXXXXXOOOOOOOOOOOOOOOOOOOOOOOOOOOXXXOOOOO",
"+++....XXXXXXXXooooXXXXXXXXXOOOOOOOOOOOOOOOOOOOOOOOOOOOOXXXOOOOO",
"+++...XXXXOOXXXXXXOOOXXXXXOOOOOOOOOOOOOOOOOOOOOOOOOOOOOOXXXOOOOO",
"+++...XXOOOOOXXXXXOOOOXXXXOOOOOOOOOOOOOOOOOOOOOOOOOOOOOOXXXOOOOO",
"+++..XXXOOOOOOOXXXOOOOOOXXOOOOOOOOOOOOOOOOOOOOOOOOOOOOOOXXXOOOOO",
"++...XXOOOOOOOOOOXXOOOOOXXOOOOOOOOOOOOOOOOOOOOOOOOOOOOOOXXXOOOOO",
"++...XXOOOOOOOOOOOXXXXXXXOOOOOOOOOOOOOOOOOOOOOOOOOOOOOOOXXXXOOOO",
"++...XXOOOOOOOOOOOOXXXXXXXOOOOOOOOOOOOOOOOOOOoooooooOOXXXXXXXOOO",
"++...XXOOOOOOOOOOOOOOXXXXXXOOOOOOOOOOOOOOOoooooooooXXXXXXXXOOOOO",
"++...XXOOOOOOOOOOOOOOOOXXXXXOOOOOOOOOOOOOOOOoooooXXXXXXXXOOOOOOO",
"++ ..XXOOOOOOOOOOOOOOOOOXXXXXOOOOOOOOOOOOOOOOOXXXXXXXXXOOOOOOOOO",
"++  XXXOOOOOOOOOOOOOOOOOXXXXXXXOOOOOOOOXXXXXXXXXXXX.XXOOOOOOOOOO",
"+.  XXXOOOOOOOOOOOOOOOOOXXXXX.XXXXXXXXXXXXXXXXXXXX..XXOOOOOOOOOO",
"+   XXXOOOOOOOOOOOOOOOOOOOXXX...XXXXXXXXXXXXXXXX....XXXOOOOOOOOO",
"+    XXXOOOOOOOOOOOOOOOOOOXXX......XX.....XXXX......XXXOOOOOOOOO",
"+    .XXOOOOOOOOOOOOOOOOXXXXXX......................XXXOOOOOOOOO",
"+.   ..XXOOOOOOOOOOOOOXXXXXXXXXXXXXXOOOOOOOOOOOOOX...XXXOOOOOOOO",
"+.   XXXXXOOOOOOOOOOOOOOOOOOOOXXXOOOOOOOOOOOOOOOOXX...XXXOOOOOOO",
"+.  XXXXXXXOOOOOOOOOOOOOOOOOOOXXXOOOOOOOOOOOOOOOOOOOOOXXXOOOOOOO",
"+. XXXXXXXXOOOOOOOOOOOOOOOOOOOOXXOOOOOOOOOOOOOOOOOOOOOXXXOOOOOoo",
"+..XXXXXOOOOOOOOOOOOOOOOOOOOOOOXOOOOOOOOOOOOOOOOOOOOOOOXOOOOOooo",
"+..XXXXXOOOOOOOOOOOOOOOOOOOOOOOXOOOOOOOOOOOOOOOOOOOOOOOOOOOooooo",
"+..XXXXXOOOOOOOOOOOOOOOOOOOOOOOOOOOOOOOOOOOOOOOOOOOOOOOOOOOooooo",
"+...XXXXOOOOOOOOOOOOOOOOOOOOOOOOOOOOOOOOOOOOOOOOOOOOOOOOOOXOoooo",
"....XXXXXOOOOOOOOOOOOOOOOOOOOOOOOOOOOOOOOOOOOOOOOOOOOOOOOOXXOOoo",
"......XXXOOOOOOOOOOOOOOOOOOOOOOOOOOOOOOOOOOOOOOOOOOOOOOOOOXXXOOO",
".XX...XXXOOOOOOOOOOOOOOOOOOOOOOOOOOOOOOOOOOOOOOOOOOOOOOOOOOXXXXX",
".XXX....XXXOOOOOOOOOOOOOOOOOOOXXOOOOOOOOOOOOOOOOOOOOOOOOOOOOXXXX",
".XXXX.......OOOOOOOOOOOOOOOOOXXXOOOOOOOOOOOOOOOOOOOOOOOOOOOOOXXX",
"..XXX.........XXXXXXOOOXXXXXXXXOOOOOOOOOOOOOOOOOOOOOOOOOOOOOOXXX",
".......XXXXXXOOOOOOOOOOXXXXXXXXOOOOOOOOOOOOOOOOOOOOOOOOOOOOOOOXX",
".....XXXXXOOOOOOOOOOOOOOOOOOXXXXOOOOOOOOOOOOOOOOOOOOOOOOoooOOOXX",
"...XXXXXOOOOOOOOOOOOOOOOOOOXXXXXXOOOOOOOOOOOOOOOOOOOoooooooOOOXX",
"...XXXXOOOOOOOOOOOOOOOOOOOOXXXXXXOOOOOOOOOOOOOOooooooooooooOOXXO",
"..XXXXXOOOOOOOOOOOOOOOOOOOOXXXXXXOOOOOOOOOOOOOOOOOoooooooooOXXOO",
"..XXXOOXOOOOOOOOOOOOOOOOOOOOOOXXXXOOOOOOOOOOOOOOOOOOoooooOOXXOOO",
"..XXXOOOOOOOOOOOOOOOOOOOOOOOOOOXXXXXXOOOOOOOOOOOOOOoooooOOXXOOOO",
"..XXXOOOXOOOOOOOOOOOOOOOOOOOOOOXXXXXXOOOOOOOOOOOoooooooOXXXOOOOO",
"..XXXOOOOXOOOOOOOOOOOOOOOOOOOOOXXXXXXXXOOOOoooooooooooOXXXOOOOOO",
" XXXXXOOOXXOOOOOOOOOOOOOOOOOOOXXXXXXXXXOOOOoooooooooOOXXXOOOOOOO",
" XXXXXXOOXXXOOOOOOXXOOOOOOOOOXXXOOOOOXXXXXOOOOOOOOOOXXXXXOOOOOOO",
"  XXXXXXXXXXXOOOOXXXOOOOOOOOOXOOOOOOOOXXXXXXXXXXXXXXXXXXOOoOOOOO",
"  XXXXXXXXXXXXXXXXXOOOOOOOOOOOOOOOOOOOOOXXXXXXXXXXXXXXXXXOooOOOO",
"  XXXXXXXXXXXXXXXXXOOOOOOOOOOOOOOOOOOXXXXXXXXXXXXX.....XXOoooOOO"
};
