/* XPM */
static char *result[] = {
/* columns rows colors chars-per-pixel */
"64 64 6 1 ",
"  c #161C2E",
". c #506A69",
"X c #669D9D",
"o c #D0DEB5",
"O c #8CC3C4",
"+ c None",
/* pixels */
"     ++++++++++++++++++++++++++++++++++++++++++++++++++++++++   ",
"OO       +++++++++++++++++++.....++++++++++++++++++++++         ",
"OOOO.........+++++++........................++++++...........OOO",
"OOOOOOO.......................OOOOOO......................OOOOOO",
"OOOOOOOOOOOO................OOOOOOOOOOOOO.........XXXX...XOOOOOO",
"OOOOOOOOOOOOOOOXXXXXXXXXX..OOOOOOOOOOOOOOOOOOOOOOXXXXX...XXOOOOO",
"OOOOOOOOOOOOOOOOXXXXOOOXX..OOOOOOOOOOOOOOOOOOOOOOOOOXXX..XXXXOoO",
"OOOOOOOOOOOOOOOOXXXXOOOOOO.OOOOOOOOOOOOOOOOOOOOOOOOOOXXX.XXooooO",
"OOOOOOOOOOOOOooOXXXOOOOOOOOXXOOOOOOOOOOOOOOOOOOOOOOOOXXX.XXooooO",
"OOOOOOOOOOOooooXXXXOOOOOOOOXXXOOOOOOOOOOOOOOOOOOOOOOOOXX.XXooooo",
"OOOOOOOOOOoooXXXXXXXXOOOOOXXXXXXXXOOOOOOOOOOOOOOOOOOOOXXXXXooooo",
"oooooOOOOOOXXXXXXXXXXXXXXXXXXXXXXXXXOOOOOOOOOOOOoooOOOXXX..Xoooo",
"oooooooooXXXXXXXXXXXXXXOOOOOOOOOOOOOOOOOOOoooooooooOOXXXX...XXXo",
"oooooooOXXXXXXOOOOOOOOOOOOOOOOOOOOOOOOooooooooooooOOXXXOOX.....X",
"XXXXXXXXXXXXXOOOOOOOOOOOOOOOOOOOOOOOOOOOOOOOOOOOOXXXXXXOOOX.....",
"XXXXXXXXXXXXOOOOOOOOOOOOOOOOOOOOOOOOOOOOOOOOOOOOOOOOOXXOOOOXXXXX",
"OOOOOOOOXXXOOOOOOOOOOOOOOOOOOOOOOOOOOOOOOOOOOOOOOOOOOOOXOOOXXXXO",
"OOOOOOOOXXXOOOOOOOOOOOOOOOOOOOOOOOOOOOOOOOOOOOOOOOOOOOOXXXXXXOOO",
"OOOOOOOOXXXXOOOOOOOOOOOOOOOOOOOOOOOOOOOOOOOOOOOOOOOOOOOOOXXXOOOO",
"OOOOOOOOOXXXOOOOOOOOOOOOOOOOOOOOOOOOOOOOOOOOOOOOOOOOOOOOOXXXOOOO",
"OOOOOOOOOXXXXOOOOOOOOOOOOOOOOOOOOOOOOOOOOOOOOOOOOOOOOOOOOXXOOOOO",
"OOOOOOOOOXXXXOOOOOOOOOOOOOOOOOOOOOOOOOOOOOOOOOOOOOOOOOOOOXXOOOOO",
"OOOOOOOOOOXXXXOOOOOOOOOOOOOOOOOOOOOOOOOOOOOOOOOOOOOOOOOOOXXOOOOO",
"OOOOOOOOOOOOXXXOOOOOOOOOOOOOOOOOOOOOOOOOOOOOOOOOOOOOOOOOOOXOOOOO",
"OOOOOOOOOOOOOXXOOOOOOOOOOOOOOOOOOOOOOOOOOOOOOOOOOOOOOOOOOOXOOOOO",
"OOOOOOOOOOOOOXXXOOOOOOOOOOOOOOOOOOOOOOOOOOOOOOOOOOOOOOOOOOOOOOOO",
"OOOOOOOOOOOOOXXXXXOOOOOOOOOOOOOOOOOOOOOOOOOOOOOOOOOOOOOOOXXOOOOO",
"OOOOOOOOOOOOOXXXXXXOOOOOOOOOOOOOOOOOOOOOOOOOOoooooooOOXXXXXXOOOO",
"OOOOOOOOOOOXXXXXXXXXOOXXOOOOOOOOOOOOOOOOOOoooooooooXXXXXXXXOOOOO",
"OOOOOOOOOXXXXXXOOOOOOOXXXOOOOOOOOOOOOOOOOOOOoooooXXXXXXXXOOOOOOO",
"OOOOOOOOOXXXXXOOOOOOOOOXXXXXOOOOOOOOOOOOOOOOOOXXX...XXXOOOOOOOOO",
"OOOOXXXXXXXXXXOOOOOOOOOOXXXXXXOOOOOOOOOXXXXXXXXX...XXXOOOOOOOOOO",
"OOOOOOOOOOXXXXOOOOOOOOOOOXXX.XXXXXXXXXXXXXXXXXXX...XXXOOOOOOOOOO",
"OOOOOOOOOOOXXXOOOOOOOOOOOXXX...XXXXXXXXXXXX........XXXOOOOOOOOOO",
"OOOOOOOOOOOOOXXOOOOooooOOXXX......XX...............XXXOOOOOOOOOO",
"OOOOOOOOOOOOOOOOOooooooOXXXXX...........XXXXOOOO...XXXOOOOOOOOOO",
"OOOOOOOOOOOOOOOOOOOOOXXXXXXXXXXXXXXOOOOOOOOOOOOOO...XXXOOOOOOOOO",
"OOOOOOOOOOOOOOOOOOOOOOOOOOOOOXXXXXOOOOOOOOOOOOOOOOOOOXXOOOOOOOOO",
"OOOOOOOOOOOOOOOOOOOOOOOOOOOOOOXXXOOOOOOOOOOOOOOOOOOOOOXXOOOOOOOO",
"OOOOOOOOOOOOOOOOOOOOOOOOOOOOOOXXXOOOOOOOOOOOOOOOOOOOOOOXXXXOOOoo",
"oOOOOOOOOOOOOOOOOOOOOOOOOOOOOOXOOOOOOOOOOOOOOOOOOOOOOOOOOOOOOooo",
"oooOOOOOOOOOOOOOOOOOOOOOOOOOOOXOOOOOOOOOOOOOOOOOOOOOOOOOOOOooooo",
"oOOOOOOOOOOOOOOOOOOOOOOOOOOOOOOOOOOOOOOOOOOOOOOOOOOOOOOOOOOooooo",
"oOOOoooOOOOOOOOOOOOOOOOOOOOOOOOOOOOOOOOOOOOOOOOOOOOOOOOOOOXOoooo",
"ooOOoooooooooooOOOOOOOOOOOOOOOOOOOOOOOOOOOOOOOOOOOOOOOOOOOXXOOoo",
"ooooooooooooooooOOOOOOOOOOOOOOOOOOOOOOOOOOOOOOOOOOOOOOOOOOXXXOOO",
"XOOOOOOOOOXXXXXXXOOOOOOOOOOOOOOOOOOOOOOOOOOOOOOOOOOOOOOOOOOXXXXX",
"XXXXXXXXXXXXXXXXXXXXXXXXXOOOOOXXOOOOOOOOOOOOOOOOOOOOOOOOOOOOXXXX",
"XXX.....XXXXXXXXXXXXOOOOOOOOOXXXOOOOOOOOOOOOOOOOOOOOOOOOOOOOOXXX",
"........XXXXXXXXXXXOOOOXXXXXXXXOOOOOOOOOOOOOOOOOOOOOOOOOOOOOOXXX",
"......XXXOOXXOOOOOOOOOOXXXXXXXXOOOOOOOOOOOOOOOOOOOOOOOOOOOOOOOXX",
"XXXXOOOOOOOOOOOOOOOOOOOOOOOOXXXXOOOOOOOOOOOOOOOOOOOOOOOOoooOOOXX",
"OOOOOOOOOOOOOOOOOOOOOOOOOOOXXXXXXOOOOOOOOOOOOOOOOOOOoooooooOOOXX",
"OOOOOOOOOOOOOOOOOOOOOOOOOOOXXXXXXOOOOOOOOOOOOOOooooooooooooOOXXO",
"OOOOOOOOOOOOOOOOOOOOOOOOOOOXXXXXXOOOOOOOOOOOOOOOOOoooooooooOXXOO",
"OOOOOOOOOOOOOOOOOOOOOOOOOOOOOOXXXXOOOOOOOOOOOOOOOOOOoooooOOXXOOO",
"OOOOOOOOOOOOOOOOOOOOOOOOOOOOOOOXXXXXXOOOOOOOOOOOOOOoooooOOXXOOOO",
"OOOOOOOOOOOOOOOOOOOOOOOOOOOOOOOXXXXXXOOOOOOOOOOOoooooooOXXXOOOOO",
"OOOOOOOOOOOOOOOXOOOOOOOOOOOOOOOXXXXXXXXOOOOoooooooooooOXXXOOOOOO",
"OOOOOOOOOOOOOOOXOOOOOOOOOOOOOOXXXXXXXXXOOOOoooooooooOOXXXOOOOOOO",
"OOOOOOOOOOOOOOXXOOOOOOOOOOOOOXXXXXOOOXXXXXOOOOOOOOOOXXXXXOOOOOOO",
"OOOOOOOOOOOOOOXXXOOOOOOOOOOOOXXXXOOOOOXXXXXXXXXXXXXXXXXXOOoOOOOO",
"OOOOOOOOOOOOOOXXXXOOOOOOOOOOOOXXOOOOOOOOXXXXXXXXXXXXXXXXXOooOOOO",
"OOOOOOOOOOXXXXXXXXXOOOOOOOOOOOOOOOOOOXXXXXXXXXXXXX.....XXOoooOOO"
};
