/* XPM */
static char *_cac965dae264f3ef5291bf93cb8a3e34Tf3DWC0MtLNOkPW[] = {
/* columns rows colors chars-per-pixel */
"64 64 5 1 ",
"  c #161C2E",
". c #506A69",
"X c #669D9D",
"o c #D0DEB5",
"O c #8CC3C4",
/* pixels */
"..    ....................        ..   ............           ..",
"..  ........................     ...  ..............          ..",
".  ....XXXX.....XXX....XXXXX..   ... .XXXX..........XXOOO     ..",
" ....XXXXXXXX..XXX...XXXXXXXXXX.    .XXXXXXXX.....XXXOOOOOO     ",
" ...XXXXXXXXX.XXXX..XOOXXXXXXXX.  ..XXXXXXXXX....XXXXOOOOOOO   X",
"...XXXXXXXXXX.XXXX.XOOOXXXXXXXXX  .OOOXXXXXXX....XXXOOOOOOOOO  X",
"...XXXXXXXXXXXXXX..OOOOXXXXXXXXX..OOOOXXXXXXXX...XXXOOOOOOOOO  X",
"...XXXXXXXXXXXXXX.OOOOXXXXXXXXX...OOOOXXXXXXXX...XXXOOOOOOOOO XX",
"..XXOOOOXXXXXXXXXXOOOXXXXXXXXXX...OOOXXXXXXXX....XXXOOOOOOOOO XX",
"..XoooOOOOXXXXXXXXXXXXXXXXXXXXX...OOXXXXXXXXX.....XXOOOOOOOOO XX",
".OooooOOOOOXXXXXXXXXXXXXXXXXXXX...OOXXXXXXXX......XXOOOOOOOOOXXX",
".OoooOOOOOOXXXXXXXXXXXOOOOOOOXXX..OOXXXXXX...OOO..XXOOOOOOOOOXXX",
".OooOOOOOOOOXXXXOXXXXOOOOOOOOOXXXXXXXXXX....OOOOOO.XXOOOOOOOOXXX",
".OoOOOOOOOOOXXXOOXXXXOOOOOOOOOXXXXXXXXX....OOOOOOOOXXXOOOOOOOOXX",
".OoOOOOOOOOOXXOOOXXOOOOOOOOOOOOOOOXXXXX...OOOOOOOOOXXXOOOOOOOOXX",
"XOOOOOOOOOOOXXOOOXXOOOOOOOOOOOOOOOOXXXX.OOOOOOOOOOOXXXOOOOOOOOXX",
"XXXOOOOOOOOOXXOOOOOOOOOOOOOOOOOOOOOOXXXOOOOOOOOOOOOXXXOOOOOOOOOX",
"XXXOOOOOOOOOXOOOOOOOOOOOOOOOOOOOOOOOXXOOOOOOOOOOOOOXXXXOOOOOOOOX",
"XXOOOOOOOOOOXOOOOOOOOOOOOOOOOOOOOOOOXXOOOOOOOOOOOOOXXXXOOOOOOOXX",
"OOOOOOOOOOOOXOOOOOOOOOOOOOOOOOOOOOOOXXOOOOOOOOOOOOOXXXXOOOOOOOXX",
"OOOOOOOOOOOOOOOOOOOOOOOOOOOOOOOOOOOOOOOOOOOOOOOOOOOXXXXOOOOOOXXX",
"OOOOOOOOOOOOOOOOOOOOOOOOOOOXOOOOOOOOOOOOOOOOOOOOOOOXXXXXOOOOOXXX",
"OOOOOOOOOOOOOOoOOOOOOOOOOOOXOOOOOOXXOOOOOOOOOOOOOOOXXXOXOOOXXXXO",
"OOOOOOOOOOOXXOooOOOOOOOOOOOXXOOXXXXXOOOOOOOOOOOOOOOOXOOOOOOXXXOO",
"OOOOOOOOOOOXXOooOOOOOOOOOOOXXOOXXXXOOOOOOOOOOOOOOOOOXOOOOOXXXXOO",
"OOOOOOOOOOOXXOooOOOOOOOOOOOXXXXXXXOOOOOOOOOOOOOOOOOOXOXXOOXXXXOO",
"OOOOOOOOOOOXXXoooOOOOOOOOOOXXXXXXXOOOOOOOOOOOOOOOOOOOOXXXXOXXOOO",
"OOOOOOOOOXX..XOooOOOOOOOOOOXXXX.XXOOOOOOOOOOOOOOOOOOOXXXXXOOXOOO",
"OOOOOOOOOXX..XXoooOOOOOOOOOXXX..XOOOOOOOOOOOOOOOOOOOOXXXXXOOOOOO",
"OOXOOOOOOX....XOOooOOOOOOOXXX...XOOOOOOOOOOOOOOOOOOOOXXXXXXOOOOO",
"OXXXXOOX....XXXXXOOOOOOOOOXX...XOOOOOOOOOOOOOOOOOOOOOXXXXXXOOOOO",
"OXXXXXXX...XXOOXXOOOOOOOOOXX..XXOOOOOOOOOOOOOOOOOOOOOXXOOOXOOOOO",
"OOXXXXXX..XXOOOOOOOOOOOOOOOX..XXOOOOOOOOOOOOOOOOOOOOOXOOOOOOOOOO",
"OOOXXXXXXOOOOOOOOOOOOOOOOOOX..XXOOOOOOOOOOOOOOOOOOOOOOOOOOOOOOOO",
"OOOOXXXXOOOOOOOOOOOOOOOOOOOX.XXXOOOOOOOOOOOOOOOOOOOOOOOOOOOOOOOO",
"OOOOXXXXOOOOOOOOOOOOOOOOOOOO.XXXOOOOOOOOOOOOOOOOOOOOOOOOOOOOOOOO",
"OOOOXXXXOOOOOOOOOOOOOOOOOOOO..XXOOOOOOOOOOOOOOOOOOOOOOOOOOOOOOOO",
"XOOXXXOOOOOOOOOOOOOOOOOOOOOO..XXOOOOOOOOOOOOOOOOOOOOOOOOOOOOOOOO",
"XOXXXooOOOOOOOOOOOOOOOOOOOOOX.XXOOOOOOOOOOOOOOOOOOOOOOOOOOOOOOOO",
"XOXXXooOOOOOOOOOOOOOOOOOOOOOX.XXXOOOOOOOOOOOOOOOOOOOOOOOOOOOOOOX",
"XXXXooOOOOOOOOOOOOOOOOOOOOOOX.XXXOOOOOOOOOOOOOOOOOOOOOOOOOOOOOOX",
"XXXXooOOOOOOOOOOOOOOOOOOOOOOO.XXXOOOOOOOOOOOOOOOOOOOOOOOOOOOOOOO",
"XXXOooOOOOOOOOOOOOOOOOOOOOOOO.XXXOOoOOOOOOOOOOOOOOOOOOOOOOOOOOOO",
"XXXOooOOOOOOOOOXXXOOOOOOOOOOO.XXXOOoOOOOOOOOOOOOOOOOOOOOOOOOOOOO",
"XXXOooOOOOOXOOXXXOOOOOOOOOOOO.XXXOooOOOOOOOOOOOOOOOOOOOOOOOOOOOO",
"XXXOooOOOOOXXXXOOOOOOOOOOOOOO.XXXOoooOOOOOOOOOOOOOOOOOOOOOOOOOOO",
"XXXXooOOOOOOXXXOOOOOOOOOOOOOO..XXXoooOOOOOOOOOOOOOOOOOOOOOOOOOOO",
"X.XXoooOOOOOXXOOOOOOOOOOOOOOO..XXXoooOOOOOOOOOOOOOOOOOOOOOOOOOOO",
"..XXXooOOOOOXXOOOOOOOOOOOOOO....XXoooOOOOOOOOOOOOOOOOOOOOOOOOOOX",
"..XXXoooOOOOXXOOOOOOOOOOOOOO.....XXooOOOOOOOOOOOOXOOOOOOOOOOOOXX",
"..XXXXooOOOOXOOOOOOOOOOOOOOO..X..XXooOOOOOOOOOOOOXOoOOOOOOOOOXX.",
"..XXXXOOOOOOXOOOOOOOOOOOOOOOXXXXXXXXoOOOOOOOOOOOOXOOOOOOOOOOOX..",
"..XXXOOOOOOXXooOOOOOOOOOOOOOXXXXXXXXOOOOOOOOOOOOOXXOOOOOOOOOX...",
"...XXOOXOOXXXooOOOOOOOOOOOOXXOOXXXXXOXOOOOOOOOOOXXXOOOOOXXXX....",
"...XXOOOXXXXXooOOOOOOOOOXXXOOOXXXXXXOOXOOOOOOOOOXXXXXXXXXXX.XXX.",
"...XXOOOXXXXXoooOOOOOOOOXXXOOOXX XXXOOXXOOOOOOOXXXXXXXX.....XXX.",
"....XXOOXXXXXoooOOOOOOOXXXXOOOXX XXXOOOXXXXXXXXXX.XXXXX...XXXXX ",
".....XXXXX.XXXoooOOOOXOXXXXOOOXX XXXOOOOXXXXXXXXX..XXXXXXXXXXXX ",
".XXX..XXXX.XXXXooOOOOXXXXXXOOOXX  XXXOOOXXXXXXXXX..XXXXXXXXXXXX ",
" XXXX..XXX..XXXXXXXXXX..XXXXOOXX   .XXOOXXXXXXXXX....XXXXXXXXX  ",
" XXXXX..X.. .XXXXXXXX...XXXXXXXX.. ..XXXXXXXXXXX.XX....XXXXXX   ",
" XXXXX.....  ..XXXXXX.....XXX   ... ...XXXXXXX...XXX.......   ..",
"  XXXX...    ....XXX.......     ...   ..XXXX.....XXX....      ..",
"   ......      ............            .............            "
};
