/* XPM */
static char * c_xpm[] = {
"40 40 228 2",
"  	c #A13823",
". 	c #9F3723",
"+ 	c #682519",
"@ 	c #89301E",
"# 	c #A03823",
"$ 	c #89301F",
"% 	c #832E1D",
"& 	c #993521",
"* 	c #692519",
"= 	c #812D1D",
"- 	c #9E3722",
"; 	c #7A2B1C",
"> 	c #973521",
", 	c #882F1E",
"' 	c #6F271A",
") 	c #8A301F",
"! 	c #963421",
"~ 	c #882F1F",
"{ 	c #73291B",
"] 	c #70271A",
"^ 	c #792A1C",
"/ 	c #8F321F",
"( 	c #5E2217",
"_ 	c #953421",
": 	c #9B3622",
"< 	c #74291B",
"[ 	c #983521",
"} 	c #5C2117",
"| 	c #782A1C",
"1 	c #9C3622",
"2 	c #8D321F",
"3 	c #973421",
"4 	c #76291C",
"5 	c #6E271A",
"6 	c #72281B",
"7 	c #792B1C",
"8 	c #AA6122",
"9 	c #C7AA1D",
"0 	c #CCB51B",
"a 	c #D8CC18",
"b 	c #DFD816",
"c 	c #DBD217",
"d 	c #C3B419",
"e 	c #9E3723",
"f 	c #CDB61B",
"g 	c #D6C719",
"h 	c #D1BE1A",
"i 	c #D0B71A",
"j 	c #D6BD19",
"k 	c #D2C518",
"l 	c #CAB11C",
"m 	c #B88C1F",
"n 	c #D5C619",
"o 	c #DBD118",
"p 	c #D8CB19",
"q 	c #D9CD18",
"r 	c #D7C519",
"s 	c #BDA117",
"t 	c #BEAB19",
"u 	c #C6AA1D",
"v 	c #966E1B",
"w 	c #D3C11A",
"x 	c #DDD517",
"y 	c #DED717",
"z 	c #DDD017",
"A 	c #DEC017",
"B 	c #DDBE17",
"C 	c #CFB51B",
"D 	c #9C5F1F",
"E 	c #8E311F",
"F 	c #7B2B1C",
"G 	c #A44B22",
"H 	c #B2931B",
"I 	c #D7CC18",
"J 	c #D4C119",
"K 	c #DEC617",
"L 	c #DDCC17",
"M 	c #DFD716",
"N 	c #D6CA18",
"O 	c #DCCD18",
"P 	c #DFBE16",
"Q 	c #D0B51B",
"R 	c #A66021",
"S 	c #772A1B",
"T 	c #76291B",
"U 	c #C5B11A",
"V 	c #D0BF19",
"W 	c #DFC717",
"X 	c #DFC617",
"Y 	c #DFD316",
"Z 	c #DFCE16",
"` 	c #DFC217",
" .	c #DBCC18",
"..	c #DBBB18",
"+.	c #DAC518",
"@.	c #B17721",
"#.	c #9F3823",
"$.	c #75291B",
"%.	c #B07221",
"&.	c #D3C218",
"*.	c #DDC017",
"=.	c #DFD517",
"-.	c #DACB17",
";.	c #DFD117",
">.	c #DED117",
",.	c #DBC717",
"'.	c #B27721",
").	c #A54B22",
"!.	c #BD941F",
"~.	c #DAD018",
"{.	c #DED017",
"].	c #DFC017",
"^.	c #DFCC16",
"/.	c #DFCF16",
"(.	c #DFBF16",
"_.	c #DFD516",
":.	c #DBC018",
"<.	c #D8BA19",
"[.	c #B27221",
"}.	c #8E321F",
"|.	c #DFC216",
"1.	c #DFCB17",
"2.	c #DFC817",
"3.	c #DDD117",
"4.	c #DBC117",
"5.	c #872F1E",
"6.	c #862F1E",
"7.	c #D9CF18",
"8.	c #DFCB16",
"9.	c #DEC917",
"0.	c #DABE18",
"a.	c #CAB21C",
"b.	c #CABD18",
"c.	c #DFCD17",
"d.	c #DFC917",
"e.	c #DDC817",
"f.	c #DDBF17",
"g.	c #D3B71A",
"h.	c #AD6822",
"i.	c #CDB71B",
"j.	c #D6CD17",
"k.	c #DCCD17",
"l.	c #DEC417",
"m.	c #DFC016",
"n.	c #DECE17",
"o.	c #DEC717",
"p.	c #D1BB1A",
"q.	c #D0BC1B",
"r.	c #DDD417",
"s.	c #DECC17",
"t.	c #D8CA19",
"u.	c #DAD216",
"v.	c #DFD216",
"w.	c #DFC117",
"x.	c #D1B61B",
"y.	c #CEB91B",
"z.	c #DACF18",
"A.	c #DBCE17",
"B.	c #DACE18",
"C.	c #D4CA17",
"D.	c #DFC816",
"E.	c #DDC417",
"F.	c #C29A1E",
"G.	c #DED617",
"H.	c #DECF17",
"I.	c #DED517",
"J.	c #DEC217",
"K.	c #D9C917",
"L.	c #B8931D",
"M.	c #A34B22",
"N.	c #DDCE17",
"O.	c #DBCB18",
"P.	c #DFD717",
"Q.	c #DED317",
"R.	c #9C791B",
"S.	c #8D311F",
"T.	c #8F3220",
"U.	c #CCB41C",
"V.	c #D4C31A",
"W.	c #DCD317",
"X.	c #DFC316",
"Y.	c #DEC517",
"Z.	c #DCD018",
"`.	c #AE7221",
" +	c #5F2217",
".+	c #D8CB18",
"++	c #CFC517",
"@+	c #DCD217",
"#+	c #CFBA1B",
"$+	c #B37C20",
"%+	c #D5CA17",
"&+	c #DFC616",
"*+	c #DED416",
"=+	c #B27C20",
"-+	c #D3C319",
";+	c #DFCA16",
">+	c #DAD117",
",+	c #B68220",
"'+	c #9D3622",
")+	c #852E1E",
"!+	c #BD981E",
"~+	c #DAD217",
"{+	c #D2C717",
"]+	c #73281B",
"^+	c #842E1E",
"/+	c #B29E19",
"(+	c #D8CE17",
"_+	c #AF7221",
":+	c #933420",
"<+	c #983F21",
"[+	c #AD6B21",
"}+	c #B8891F",
"|+	c #BA8C1F",
"1+	c #C6A81D",
"2+	c #A9821C",
"3+	c #8F461F",
"4+	c #9D3623",
"5+	c #602218",
"6+	c #852F1E",
"7+	c #842F1D",
"8+	c #782A1B",
"9+	c #9E3823",
"0+	c #88301E",
"a+	c #592017",
"b+	c #802C1D",
"c+	c #672519",
"d+	c #9D3722",
"e+	c #71281A",
"        . + @ #       # $ @ #           # % &               . * = #             ",
"        . + -         # @ @ #           # ; >               # , @ #             ",
"        - ' .         # ) , #           # ; !               # @ $ #             ",
"      # ) , #           - ' .           # $ @ #             # ; !               ",
"      # ~ = #           . { !             - ] -             # ^ >               ",
"        / ( _           : < [             # , ) #           . ' .       # #     ",
"        _ } | #         1 2 .             # $ @ #           > ^ #     # ) ) #   ",
"        3 4 5 .         # ) $ #             ! ; #           3 ^ #     # $ @ #   ",
"        > 6 7 #           3 ; #   8 9 0 a b c d 8           > ^ #       ! ; #   ",
"        . ' e             . ' . 8 9 f g h i j k l 8         . ' -     # $ @ #   ",
"        # ; !             . ' m b n o p q r s t u 8 #       # @ $ #   # @ $ #   ",
"          - ; .           # v a h w x y y z A B C D E #       . F !   . ; 3     ",
"          - < >           G H I J K L M N b O P Q R S >         ! F . [ ; -     ",
"        - T , #           8 U V W X Y Z ` Y  ...+.@.^ 3         # , ) #.@ ) #   ",
"      # $ $.-             %.a &.*.W =.-.P ;.>.A ,.'.^ 3         . ; 3 # , , #   ",
"        ! ; #       #   ).!.~.{.].^./.(.P ^._.:.<.[.^ 3         ! ; . . T T .   ",
"      # $ @ #     : }.# ).!.o Y |.Z 1.P P 2.3.4.<.[.F >       . F !   # 5.@ #   ",
"      # @ @ #   # 6.; . ).!.7.3.|.Z 8.P P 9.3.0.<.[.#       # ) @ #   . ' -     ",
"      # @ @ #   # @ , # 8 a.b.Y |.c.d.P (.e.{.f.g.h.        # @ @ #   # ; 3     ",
"      # ) @ #   # @ @ # 8 i.j.k.` e.l.m.|.n.2.o.p.8         # $ @ #   # $ @ #   ",
"        . ; >   # $ @ # 8 q.r.3.` s.t.b u.v.w.f.x.8           ! ; #     . F !   ",
"        # ^ 3     ! ; # 8 y.z.A.` n.B.b C._.D.E.F.).          3 ^ #       ! ; # ",
"        # ^ 3     > F # 8 h G.{.P H.I.b 3.J.m.K.L.M.          3 ^ #       . ' . ",
"        # ^ 3       #   8 i.q N.P O.P.P.Q.K D._.R.; ! - #     3 ^ #       # S.T.",
"        # ^ 3           8 U.V.x b W.b v.X.Y.Z.q `.! ^  +, #   3 ^ #         1 1 ",
"        # ; !           ).!..+++b b Q.W m.,.@+#+8   1 + @ #   3 ^ -             ",
"        # , ) #           $+b %+P._.W m.&+*+b w 8 . F E .     > ^ ^ #           ",
"        # ; _             =+b -+G._.;+;+_.>+b ,+# $ @ .         '+* .           ",
"        # | )+:           ).!+~+y b P.z.b {+a %.# ; 3         # @ 5.#           ",
"        # | ]+^+-           ! /+b G.@+W.x (+_+  . ' .         . T $.-           ",
"        . ^ :+* < .       # ; <+[+}+|+1+2+3+#   . ' .           - ; = #         ",
"        3 ; 4+, !         . ' .       # F _ #   3 ; #             '+5+-         ",
"      # 6+7+) ) #         [ ^ #         - ; > # @ @ #             ! 8+#         ",
"      e 8+7 9+#           . ' .         # ^ 3 . ; 3             . = * .         ",
"    # 0+a+b+#             > ^ #         . ^ > > ^ .           # $ $ -           ",
"      ! c+5.#             3 ^ #         > ^ . 3 ^ #           3 ; .             ",
"      . T $..             3 ^ #         > ; . 3 ^ #         # @ $ #             ",
"        d+' -             ! ; #         - $ ) ! ^ #         d+' -               ",
"          ! F #         # $ @ #       . e+- # 3 ^ #       . T T .               ",
"          > ^ .         # $ @ #         .     3 ^ #       . ' d+                "};
