/* XPM */
static char * c_xpm[] = {
"64 64 9 1",
" 	c #9BB94E",
".	c #BFBA5B",
"+	c #79A863",
"@	c #679175",
"#	c #161C2E",
"$	c #E9F044",
"%	c #CEA554",
"&	c #FFFFFF",
"*	c #AC7A58",
"     ..........+++++++++++++++++++++++++++++++++++++++++++++++++",
"      ...... +++   +++++++++++++++++++++@@@@+++++++++++++++++   ",
"  .........            ++++++++++++++++@@@@@@        @@@@+++    ",
"...........       +++++++++++++++++@@@+@@@@@@@@@@@  @@@@@@@+    ",
"..........          ++++++++++++++@@@@@@@@@@@@@@@@@@@...@@@@   .",
"     .....            +++++++++++@@@@@....@@@@....@@.....@@@@...",
"      ..... ..            +++++++@@@.......@@.................  ",
"        .......           +++++@@@@....#####..................  ",
"..       ...   .           ......@.....#######................ .",
"...                       ..  .........##$#####.................",
"...   ..                  .    ........##$$$$### ....  .........",
"...  .....                         ... ##$$$$$$##  .    ........",
"...................                 .####$%%$$$$##      ........",
".........                           #####$%%%$$%%##     .....   ",
"            ++++++                  ######%%$$%%%###            ",
"          +++++++++ ++++      ...  ###&&&###$%%%%%##            ",
"        +++++++++++++++++   ##########&&&&###%%#####            ",
"       ++++++++++++++++++.#############&&&&#######              ",
"     ++++++     ++++++++######$$$$$$####&&&$####+      +++      ",
"   +++++++       +++   #####$$$&&&&$$$####$$$###++    +++++   ++",
"+                ++    ####$$$&&&&&&&$$%###$$###     +++++++++++",
"++++                  ####$$$$&&&&&&&$$$%#######+    +++++++++++",
"                      ####$$$$&&&&&&&$$$%######+++  ++++   +++++",
"        @@@@@  @@@   ###$$$$$$&&&**&&$$$%%####+++++++++         ",
"       @@@@@@@@@@@@#####$$$$$$&&***&&$$$$%%%##+++++++++         ",
"     @@@....@@@########$$$#####***&&&$$$$%%%###   ++++          ",
"  @@@@........#######**%%#######***$$$$$$%%%###    ++++++++++   ",
".@@..........#####$$%%*%####%%##***$$$$$$%%%###    +++++++++++++",
"..........++###$$$$$%%%%###%%%$$$***$$$$$%%%%##    +++++........",
"      ..+++###$&&&&$$$%%####%%$$$$$$$$$$%%%%%##   ++............",
"          ###$$&&&&$$$%%#####%%$$$$$$$$$%%%%%##                 ",
"          ##$$&&&&&$$$$$########$$$$$$$%%%%%*##                 ",
"...      ###$$&&&&&$**$$$$#######%%$$$$%%%***##                .",
"....     ###$$&&&$$$***$$###$%###%%%%%%%%****##               ..",
".......  ##%$$$$$$$$****###$$%%##%%**********##           ......",
"   ..... ##%%$$$$$$$$***###$$$###%%%********###             ....",
"    .....##%%$$$$$$$$$****#######$$%%******###                . ",
"         ##%%$$$$$$$$$*******###$$$$%%****####....              ",
"         ##%%$$$$$$$$********###$$$$%%***#####.........+++      ",
"         ##%%%$$$$$$$***$$$$$$$$$$$$%%*****###+++++++++++++++++ ",
"++++++++ ##%%%%$$$$$$**$$$$$$$$$$$$$%%******###+++++++++++++++++",
"++++      ##%%%%$$$$$$$$$$$$$$$$$$$$%%******###+++++++++++++++++",
"          ##%%%%%$$$$$$$$$$$$$$$$$$%%%******###   ++++++++++++  ",
"          ###%%%%%%%$$$$$$$$$$$$$$%%%******####    +   ++       ",
"           ##%%%%%%%%%%$$$$$$$$$%%%%%******###                  ",
"           ###%%%%%%%%%%%%%%%%%%%%%%******####             .....",
"     @@@@@  ###%%%%%%%%%%%%%%%%%%%%******####         ..........",
"    @@@@@@@@@###*%%%%%%%%%%%%%%%%******######      ............ ",
"@@ @@@..@@@@@.####**%%%%%%%%%%%******#######...    ..........   ",
"@@@@@....@@@...#######***%%%****##########.....                @",
"@..@@............#####################.++.........             @",
".....................############  ...++++.........        ..@@@",
".....   .....    ...++++++  .       ++++++......         .......",
"....     ...   +++++++++++       +++++++++             .........",
"..       ...  +++++++++++       +++++++++++           ...   ....",
"           .  +++++++++++++++  ++++++  +++++        ....     ...",
"            ++++++++++++++++++++++++     +++++                  ",
"      ++++++++++   +++++++++++++++++                            ",
"         ++++++     ++   +++++++  ++                  +++       ",
"            +++     +      ++++    ++                +++++      ",
"      ..                                      +++   ++++++      ",
"     ....    ....                            +++++++++++++      ",
"   ................        ++++             +++++++++++++++++   ",
"++..............++++  +++++++++++  ++++    +++++++++++++++++++++"};
