/* XPM */
static char * d_xpm[] = {
"40 40 177 2",
"  	c #A13823",
". 	c #9F3723",
"+ 	c #682519",
"@ 	c #89301E",
"# 	c #A03823",
"$ 	c #89301F",
"% 	c #832E1D",
"& 	c #993521",
"* 	c #692519",
"= 	c #812D1D",
"- 	c #9E3722",
"; 	c #7A2B1C",
"> 	c #973521",
", 	c #882F1E",
"' 	c #6F271A",
") 	c #8A301F",
"! 	c #963421",
"~ 	c #882F1F",
"{ 	c #73291B",
"] 	c #70271A",
"^ 	c #792A1C",
"/ 	c #8F321F",
"( 	c #5E2217",
"_ 	c #953421",
": 	c #9B3622",
"< 	c #74291B",
"[ 	c #983521",
"} 	c #5C2117",
"| 	c #782A1C",
"1 	c #9C3622",
"2 	c #8D321F",
"3 	c #973421",
"4 	c #76291C",
"5 	c #6E271A",
"6 	c #72281B",
"7 	c #77481B",
"8 	c #927E20",
"9 	c #9C5A22",
"0 	c #A13C23",
"a 	c #6D4619",
"b 	c #869B1D",
"c 	c #57DE11",
"d 	c #5CDB12",
"e 	c #66D115",
"f 	c #6CCA16",
"g 	c #89991D",
"h 	c #9D5322",
"i 	c #71741A",
"j 	c #59D712",
"k 	c #7EAF1A",
"l 	c #68CF15",
"m 	c #63D314",
"n 	c #3EEF0C",
"o 	c #08FD06",
"p 	c #41ED0D",
"q 	c #91841F",
"r 	c #9D3622",
"s 	c #662419",
"t 	c #75291B",
"u 	c #8F831E",
"v 	c #31ED0B",
"w 	c #7EAC1B",
"x 	c #774B1B",
"y 	c #7BA41A",
"z 	c #3CF00C",
"A 	c #57DF11",
"B 	c #65D114",
"C 	c #6BCA16",
"D 	c #759819",
"E 	c #6D4919",
"F 	c #872F1E",
"G 	c #8F3220",
"H 	c #8E311F",
"I 	c #7B2B1C",
"J 	c #2EED0A",
"K 	c #78AC19",
"L 	c #976F21",
"M 	c #6EC717",
"N 	c #62D313",
"O 	c #34EF0B",
"P 	c #66D015",
"Q 	c #986F21",
"R 	c #772A1B",
"S 	c #6A8018",
"T 	c #37ED0B",
"U 	c #7FAC1B",
"V 	c #67D015",
"W 	c #66CF15",
"X 	c #679717",
"Y 	c #945020",
"Z 	c #9F3823",
"` 	c #698018",
" .	c #40ED0C",
"..	c #80AC1B",
"+.	c #67CF15",
"@.	c #2DEF0A",
"#.	c #64D214",
"$.	c #6E8019",
"%.	c #868B1D",
"&.	c #43EC0D",
"*.	c #2CF609",
"=.	c #899A1D",
"-.	c #76291B",
";.	c #788D1A",
">.	c #8D8F1E",
",.	c #8E321F",
"'.	c #966E21",
").	c #862F1E",
"!.	c #826C1D",
"~.	c #6DAB17",
"{.	c #864E1D",
"].	c #923320",
"^.	c #788D1B",
"/.	c #6B8C18",
"(.	c #88301E",
"_.	c #5F2217",
":.	c #7E2C1C",
"<.	c #42ED0D",
"[.	c #77AC19",
"}.	c #6A8C18",
"|.	c #9E3723",
"1.	c #74291A",
"2.	c #764B1B",
"3.	c #802C1D",
"4.	c #792B1C",
"5.	c #8E6D1F",
"6.	c #8D311F",
"7.	c #4E9F12",
"8.	c #59DC12",
"9.	c #6C8918",
"0.	c #3CED0C",
"a.	c #41EE0D",
"b.	c #8F8C1E",
"c.	c #63D014",
"d.	c #806B1C",
"e.	c #58CF12",
"f.	c #822D1D",
"g.	c #4ECF11",
"h.	c #866C1D",
"i.	c #76AC19",
"j.	c #945120",
"k.	c #61A816",
"l.	c #48E90E",
"m.	c #816C1D",
"n.	c #758D1A",
"o.	c #9D3722",
"p.	c #61D613",
"q.	c #2BF109",
"r.	c #4CE70F",
"s.	c #688018",
"t.	c #35ED0B",
"u.	c #7EAC1A",
"v.	c #92821F",
"w.	c #8F631F",
"x.	c #5DA815",
"y.	c #47E90E",
"z.	c #85831C",
"A.	c #29EC0A",
"B.	c #5CAA15",
"C.	c #9B5222",
"D.	c #3DEF0C",
"E.	c #35F10B",
"F.	c #8E831F",
"G.	c #6BC016",
"H.	c #45EB0D",
"I.	c #602218",
"J.	c #852F1E",
"K.	c #842F1D",
"L.	c #7A8A1B",
"M.	c #3EEF0D",
"N.	c #7AB719",
"O.	c #73C118",
"P.	c #782A1B",
"Q.	c #956F21",
"R.	c #592017",
"S.	c #672519",
"T.	c #71281A",
"        . + @ #       # $ @ #           # % &               . * = #             ",
"        . + -         # @ @ #           # ; >               # , @ #             ",
"        - ' .         # ) , #           # ; !               # @ $ #             ",
"      # ) , #           - ' .           # $ @ #             # ; !               ",
"      # ~ = #           . { !             - ] -             # ^ >               ",
"        / ( _           : < [             # , ) #           . ' .       # #     ",
"        _ } | #         1 2 .             # $ @ #           > ^ #     # ) ) #   ",
"        3 4 5 .         # ) $ #             ! ; #           3 ^ #     # $ @ #   ",
"        > 6 7 8 9 0       3 ; #             3 ^ #           > ^ #       ! ; #   ",
"        . a b c d e f g h . ' .             _ ^ #           . ' -     # $ @ #   ",
"        # i j k f l m n o o o p q       # r s t . # #       # @ $ #   # @ $ #   ",
"          u v w h         # x y z A B C D E F - # G H #       . I !   . ; 3     ",
"          u J K h         # @ $ L M l N O o P Q   : R >         ! I . [ ; -     ",
"        - S T U h         # $ @ #   - ] - Q V o n W X Y         # , ) Z @ ) #   ",
"      # $ `  ...h           ! ; # # ) , #     h g +.@.o #.g h   . ; 3 # , , #   ",
"        ! $.p ..h   #       > ^ # # @ $ #         # ^ %.&.*.=.  ! ; . . -.-..   ",
"      # $ ;.o >.  : ,.#     . ' . # ; !           # I > Q V V '.I !   # F @ #   ",
"      # @ ;.o >.# ).; .     ! ^ > # ; !             #   Q V P !.@ #   . ' -     ",
"      # @ ;.o >.# @ , #   # ^ ^ > # @ @ #                 q p ~.{.#   # ; 3     ",
"      # ) ;.o >.# @ @ #   # ; _ #   3 ; ]._               >.o ^.@ #   # $ @ #   ",
"        . /.o >.# $ @ #     ! ; -   # (._.:.#             q <.[.x #     . I !   ",
"        # }.o >.  ! ; #     . t -..   |.1.+ _ .           q <.K 2.#       ! ; # ",
"        # }.o >.  > I #     # @ , #   # (.3.4.; ! .     Q V V 5.^ #       . ' . ",
"        # }.o >.    #         ! ; #   # @ @ |.! ; ; ! - q <...Y ^ #       # 6.G ",
"        # }.o >.              _ ; #   # @ , #   . ! ^ 7.o 8.Q 3 ^ #         1 1 ",
"        # 9.0.a.b.          - * , #   # @ + .     Q c.o ;.#   3 ^ -             ",
"        # d.e.P Q         # @ f..       - * . Q V o g.h..     > ^ ^ #           ",
"        # x i.<.q         . ] r         j.k.l.o P m.@ .         r * .           ",
"        # | n.o >.          o.I # Q M p.o q.r.b.# ; 3         # @ F #           ",
"        # | s.t.u.h     h v.w.x.y.o p.M m.@ #   . ' .         . -.t -           ",
"        . ^ z.A.B.C.Q M m D.o E.r.b.  # @ $ #   . ' .           - ; = #         ",
"        3 ; F.T G.H.m l M '.' .       # I _ #   3 ; #             r I.-         ",
"      # J.K.L.T M.N.O.Q   [ ^ #         - ; > # @ @ #             ! P.#         ",
"      |.P.4.Q.P V Q       . ' .         # ^ 3 . ; 3             . = * .         ",
"    # (.R.3.#             > ^ #         . ^ > > ^ .           # $ $ -           ",
"      ! S.F #             3 ^ #         > ^ . 3 ^ #           3 ; .             ",
"      . -.t .             3 ^ #         > ; . 3 ^ #         # @ $ #             ",
"        o.' -             ! ; #         - $ ) ! ^ #         o.' -               ",
"          ! I #         # $ @ #       . T.- # 3 ^ #       . -.-..               ",
"          > ^ .         # $ @ #         .     3 ^ #       . ' o.                "};
