/* XPM */
static char * exit_xpm[] = {
"40 40 235 2",
"  	c #A13823",
". 	c #9F3723",
"+ 	c #682519",
"@ 	c #89301E",
"# 	c #A03823",
"$ 	c #89301F",
"% 	c #832E1D",
"& 	c #993521",
"* 	c #692519",
"= 	c #812D1D",
"- 	c #9E3722",
"; 	c #7A2B1C",
"> 	c #973521",
", 	c #882F1E",
"' 	c #6F271A",
") 	c #8A301F",
"! 	c #963421",
"~ 	c #882F1F",
"{ 	c #73291B",
"] 	c #70271A",
"^ 	c #792A1C",
"/ 	c #8F321F",
"( 	c #5E2217",
"_ 	c #953421",
": 	c #9B3622",
"< 	c #74291B",
"[ 	c #983521",
"} 	c #5C2117",
"| 	c #782A1C",
"1 	c #9C3622",
"2 	c #8D321F",
"3 	c #973421",
"4 	c #76291C",
"5 	c #6E271A",
"6 	c #72281B",
"7 	c #792B1C",
"8 	c #A73722",
"9 	c #BC321E",
"0 	c #BF301E",
"a 	c #A62216",
"b 	c #C22F1D",
"c 	c #CE2C1A",
"d 	c #C0311E",
"e 	c #AD3521",
"f 	c #CF2C1A",
"g 	c #B8331F",
"h 	c #A23623",
"i 	c #C72E1C",
"j 	c #FD1006",
"k 	c #FA1308",
"l 	c #FC1107",
"m 	c #FC1006",
"n 	c #F4180C",
"o 	c #B9331F",
"p 	c #D62918",
"q 	c #DE2516",
"r 	c #B13320",
"s 	c #9D3622",
"t 	c #662419",
"u 	c #75291B",
"v 	c #E62213",
"w 	c #C62F1C",
"x 	c #BA311E",
"y 	c #852A1B",
"z 	c #B03521",
"A 	c #E42313",
"B 	c #EF1C0E",
"C 	c #BB321E",
"D 	c #D32A19",
"E 	c #F81509",
"F 	c #B72919",
"G 	c #72271A",
"H 	c #932E1D",
"I 	c #B8311E",
"J 	c #C52F1C",
"K 	c #DC2113",
"L 	c #F2170B",
"M 	c #F3190C",
"N 	c #AF3421",
"O 	c #D11F12",
"P 	c #DD2214",
"Q 	c #E02515",
"R 	c #DF2415",
"S 	c #D71D11",
"T 	c #E22012",
"U 	c #DC2716",
"V 	c #F3190D",
"W 	c #AE2B1A",
"X 	c #C2301D",
"Y 	c #D72817",
"Z 	c #9F2D1D",
"` 	c #A43621",
" .	c #EA1F11",
"..	c #E32213",
"+.	c #BE2214",
"@.	c #D02718",
"#.	c #F91408",
"$.	c #C1301D",
"%.	c #D82415",
"&.	c #E12314",
"*.	c #E81E10",
"=.	c #E41A0E",
"-.	c #DD2515",
";.	c #F91509",
">.	c #C3301D",
",.	c #76291B",
"'.	c #F21A0D",
").	c #C22718",
"!.	c #922F1D",
"~.	c #AF3521",
"{.	c #E72112",
"].	c #AB2215",
"^.	c #D52818",
"/.	c #CA1F13",
"(.	c #A5321F",
"_.	c #A72C1C",
":.	c #E61C0F",
"<.	c #E82012",
"[.	c #F2180C",
"}.	c #BD2315",
"|.	c #B02A1B",
"1.	c #E02415",
"2.	c #D81C11",
"3.	c #A8311F",
"4.	c #B22F1D",
"5.	c #C22617",
"6.	c #912E1D",
"7.	c #CA2D1B",
"8.	c #B52E1D",
"9.	c #AB2618",
"0.	c #BF311E",
"a.	c #DE2314",
"b.	c #E01A0F",
"c.	c #F6170B",
"d.	c #B52919",
"e.	c #B7321F",
"f.	c #F2190D",
"g.	c #BB2115",
"h.	c #81281A",
"i.	c #F01B0E",
"j.	c #FB1207",
"k.	c #FC1106",
"l.	c #F5180C",
"m.	c #8E321F",
"n.	c #E91F11",
"o.	c #FB1107",
"p.	c #D81D11",
"q.	c #A8321F",
"r.	c #7B2B1C",
"s.	c #C12617",
"t.	c #DB2716",
"u.	c #B02A1A",
"v.	c #862F1E",
"w.	c #CA2919",
"x.	c #F7150A",
"y.	c #B92014",
"z.	c #C92E1C",
"A.	c #FC1207",
"B.	c #E12414",
"C.	c #992E1C",
"D.	c #DD1B0F",
"E.	c #F0150B",
"F.	c #E22113",
"G.	c #9E3320",
"H.	c #D72918",
"I.	c #932F1E",
"J.	c #F1150A",
"K.	c #F6150A",
"L.	c #F5180B",
"M.	c #923320",
"N.	c #DB2012",
"O.	c #9E2D1C",
"P.	c #A53622",
"Q.	c #DE2214",
"R.	c #FA1408",
"S.	c #EC1E10",
"T.	c #B43420",
"U.	c #88301E",
"V.	c #5F2217",
"W.	c #7E2C1C",
"X.	c #CB2C1B",
"Y.	c #CC2D1B",
"Z.	c #AE2416",
"`.	c #D71C10",
" +	c #9E3723",
".+	c #74291A",
"++	c #A63722",
"@+	c #AD3621",
"#+	c #A42C1B",
"$+	c #B62819",
"%+	c #802C1D",
"&+	c #B53420",
"*+	c #BE311E",
"=+	c #B62416",
"-+	c #E61E11",
";+	c #B2331F",
">+	c #8D311F",
",+	c #8F3220",
"'+	c #EE1D0F",
")+	c #EF1D0F",
"!+	c #F91409",
"~+	c #F91207",
"{+	c #F91308",
"]+	c #EF1C0F",
"^+	c #F4190C",
"/+	c #F11B0E",
"(+	c #E62113",
"_+	c #F2150A",
":+	c #F3160A",
"<+	c #D22B1A",
"[+	c #F8150A",
"}+	c #E92011",
"|+	c #E82112",
"1+	c #E21A0E",
"2+	c #E81D10",
"3+	c #DD2616",
"4+	c #DA2616",
"5+	c #872317",
"6+	c #822D1D",
"7+	c #8E311F",
"8+	c #852E1E",
"9+	c #9D3722",
"0+	c #872F1E",
"a+	c #73281B",
"b+	c #842E1E",
"c+	c #933420",
"d+	c #9D3623",
"e+	c #602218",
"f+	c #852F1E",
"g+	c #842F1D",
"h+	c #782A1B",
"i+	c #9E3823",
"j+	c #592017",
"k+	c #672519",
"l+	c #71281A",
"        . + @ #       # $ @ #           # % &               . * = #             ",
"        . + -         # @ @ #           # ; >               # , @ #             ",
"        - ' .         # ) , #           # ; !               # @ $ #             ",
"      # ) , #           - ' .           # $ @ #             # ; !               ",
"      # ~ = #           . { !             - ] -             # ^ >               ",
"        / ( _           : < [             # , ) #           . ' .       # #     ",
"        _ } | #         1 2 .             # $ @ #           > ^ #     # ) ) #   ",
"        3 4 5 .         # ) $ #             ! ; #           3 ^ #     # $ @ #   ",
"        > 6 7 #           3 ; #             3 ^ #           > ^ #       ! ; #   ",
"    8 9 0 a b c d 8 e f g h ' .             _ ^ #           . ' -     # $ @ #   ",
"  i j k l m j l n o e p q r ' .         # s t u . # #       # @ $ #   # @ $ # 8 ",
"  i j v w x y .     z A B C ; 3   8 D E F G H I J K L M q z   N O P Q R S T j j ",
"e U j d   - < >       9 V V W $ # 8 X Y Z ` J  .V ..+.@.#.j $.z %.S &.*.=.-.z   ",
"$.;.j >.- ,., #         o '.).!.~.{.E ].-       e ^./.(.        # , _. .:._.#   ",
"z <.j i $ u -             o [.}.$.j |., #       z 1.2.3.        . ; 4.'.5.6.#   ",
"z <.j 7.8.9.0.9 8   #     z a.b.c.j d.$ #       z 1.2.3.        ! ; e.f.g.h..   ",
"z i.j j.k.j j l.o : m.#   z n.o.n.~.; !         z 1.p.q.      . r.! o '.s.!.#   ",
"9 l.k t.u.!.#   # v.; .     w.m x.0.; !         z 1.1.z     # ) @ # o f.y.`     ",
"  z.A.B.C.@ #   # @ , #   ~.D.E.F.~.@ @ #       z 1.1.z     # @ @ # o '.}.G.    ",
"8 H.A.H.I.@ #   # @ @ #   C J.K.L.o 3 ; M._     z 1.1.z     # $ @ # z 1.N.O.#   ",
"8 H.A.H.P.; >   # $ @ #   z Q.=.R.S.T.U.V.W.#   z 1.1.z       ! ; # o '.X.y !   ",
"8 D #.{.~.^ 3     ! ; # 8 Y.f.Z.`.1.z  +.++ _ . z 1.1.z       3 ^ ++Y.'.o ! ; # ",
"@+B.A.z.# ^ 3     > r.# >.#.S.#+$+#.S.T.U.%+7 ; 3.1.1.z       3 ^ # o '.Y.P.' . ",
"&+S.#.>.# ^ 3       #   *+j *+! ; g '.Y.!.@  +! =+j -+;+C d 9 G.^ # *+j *+# >+,+",
"&+'+j.)+!+~+{+M ]+9   z 1.1.z _ y Y.^+q O., g /+(+[._+j :+n '.4.^ ++Y.'.o   1 1 ",
"8 <+[+}+|+1+2+'.]+9   o ]+o - * , ~.A B W + P.X 3+Q 4+5+@ #   3 ^ - z 1.1.z     ",
"        # , ) #       8 g ++@ 6+.       - * .     . r.7+.     > ^ ^ #           ",
"        # ; _             . ] s         > ^ #   # $ @ .         s * .           ",
"        # | 8+:             9+r.#       ! ; #   # ; 3         # @ 0+#           ",
"        # | a+b+-           ! < .     # $ @ #   . ' .         . ,.u -           ",
"        . ^ c+* < .       # ; !       # @ $ #   . ' .           - ; = #         ",
"        3 ; d+, !         . ' .       # r._ #   3 ; #             s e+-         ",
"      # f+g+) ) #         [ ^ #         - ; > # @ @ #             ! h+#         ",
"       +h+7 i+#           . ' .         # ^ 3 . ; 3             . = * .         ",
"    # U.j+%+#             > ^ #         . ^ > > ^ .           # $ $ -           ",
"      ! k+0+#             3 ^ #         > ^ . 3 ^ #           3 ; .             ",
"      . ,.u .             3 ^ #         > ; . 3 ^ #         # @ $ #             ",
"        9+' -             ! ; #         - $ ) ! ^ #         9+' -               ",
"          ! r.#         # $ @ #       . l+- # 3 ^ #       . ,.,..               ",
"          > ^ .         # $ @ #         .     3 ^ #       . ' 9+                "};
