/* XPM */
static char *_03e39f1b0614695ad8ec3ada04fcd57rv6Gycf6tbZCYroX[] = {
/* columns rows colors chars-per-pixel */
"25 25 103 2 ",
"   c black",
".  c #161C2E",
"X  c #21262F",
"o  c #040E2B",
"O  c #000026",
"+  c #12182B",
"@  c #646139",
"#  c #0D132D",
"$  c #11172D",
"%  c #000018",
"&  c #11192D",
"*  c #2D2C33",
"=  c #060A2A",
"-  c #141A2D",
";  c #676D37",
":  c #FFFFA1",
">  c #FFDB60",
",  c #343234",
"<  c #0E162C",
"1  c #1F2430",
"2  c #151B2D",
"3  c #0F152C",
"4  c #030829",
"5  c #000027",
"6  c #515532",
"7  c #787A39",
"8  c #434534",
"9  c #080E2C",
"0  c #2F362F",
"q  c #343A3D",
"w  c #7A7B6A",
"e  c None",
"r  c #4D4738",
"t  c black",
"y  c #000528",
"u  c #4A5130",
"i  c #B5BA7B",
"p  c #C0C298",
"a  c #464A3C",
"s  c #191C2D",
"d  c #000021",
"f  c #323934",
"g  c #55523A",
"h  c #7B7A3A",
"j  c #494237",
"k  c #00001E",
"l  c #3B412F",
"z  c #ACB182",
"x  c #725D43",
"c  c #000019",
"v  c #625C3A",
"b  c #4E3F3D",
"n  c #000011",
"m  c #5E523C",
"M  c #393137",
"N  c #000012",
"B  c #242631",
"V  c #816C44",
"C  c #272733",
"Z  c #000524",
"A  c #10172C",
"S  c #222431",
"D  c #4C413A",
"F  c #665540",
"G  c #5F4E3F",
"H  c #42383A",
"J  c #202231",
"K  c #131A2D",
"L  c #181D2E",
"P  c #071029",
"I  c #000727",
"U  c #000928",
"Y  c #000B28",
"T  c #020E28",
"R  c #0C152B",
"E  c #181D2E",
"W  c #8E8E62",
"Q  c #A8A06B",
"!  c #E0D48E",
"~  c #C5BD4B",
"^  c #D4CC71",
"/  c #6A633A",
"(  c #78713C",
")  c #D2CC47",
"_  c #D5BE4E",
"`  c #DFE061",
"'  c #D9D057",
"]  c #867344",
"[  c #66633A",
"{  c #B7A04B",
"}  c #A77E52",
"|  c #CCBC48",
" . c #DFD847",
".. c #D1C749",
"X. c #C8CC41",
"o. c #D5C54B",
"O. c #9D7252",
"+. c #C5A74E",
"@. c #D6BF4D",
"#. c #D4BD4D",
"$. c #B69151",
"%. c #755848",
"&. c white",
/* pixels */
"                                                  ",
"                                                  ",
"                                                  ",
"                                                  ",
"                                                  ",
"                                                  ",
"                                                  ",
"                                                  ",
"                                                  ",
"                          . X 3 4 o O             ",
"                          + 5 6 7 8 @ .           ",
"                    # $ 9 0 q w e r t .           ",
"                  % & y u i p W a s * .           ",
"                = d f g h Q ! ~ j k -             ",
"              . ; l z ^ / ( ) _ x c .             ",
"              . : v ` ' ] [ { } b n .             ",
"              . > m |  ...X.o.O.M N .             ",
"              . , B V +.@.#.$.%.C Z .             ",
"              . < A S D F G H J K L .             ",
"                . 1 P I U Y T R E 2 .             ",
"                                                  ",
"                                                  ",
"                                                  ",
"                                                  ",
"                                                  "
};
