/* XPM */
static char * player_xpm_xpm[] = {
"64 64 518 2",
"  	c #9BB94E",
". 	c #BFBA5B",
"+ 	c #79A863",
"@ 	c #679175",
"# 	c #9AB84E",
"$ 	c #99B74D",
"% 	c #E3E3E5",
"& 	c #E0E0E3",
"* 	c #E1E6D9",
"= 	c #DCDDE0",
"- 	c #737680",
"; 	c #7B565E",
"> 	c #76535A",
", 	c #505360",
"' 	c #9699A0",
") 	c #F2F2F3",
"! 	c #D8D9DC",
"~ 	c #464454",
"{ 	c #51333E",
"] 	c #AA5B58",
"^ 	c #C27F6C",
"/ 	c #BF7868",
"( 	c #7E5854",
"_ 	c #6E5A5E",
": 	c #B8B6BA",
"< 	c #BDB85A",
"[ 	c #78A762",
"} 	c #444452",
"| 	c #6A3B46",
"1 	c #B25555",
"2 	c #BF7265",
"3 	c #C4806C",
"4 	c #C17A69",
"5 	c #BE7365",
"6 	c #C07D6B",
"7 	c #996661",
"8 	c #BEB6B9",
"9 	c #BEB95B",
"0 	c #79A763",
"a 	c #ABACB3",
"b 	c #3F2D41",
"c 	c #964A53",
"d 	c #A55051",
"e 	c #955A56",
"f 	c #9B6A5F",
"g 	c #B27767",
"h 	c #BF7567",
"i 	c #B27163",
"j 	c #B97868",
"k 	c #523D46",
"l 	c #E5E5E7",
"m 	c #AAACB2",
"n 	c #593649",
"o 	c #AD5254",
"p 	c #5C3545",
"q 	c #38293F",
"r 	c #252235",
"s 	c #362E3A",
"t 	c #A87263",
"u 	c #9C695E",
"v 	c #7F5853",
"w 	c #96605A",
"x 	c #8B8C95",
"y 	c #C0C1C6",
"z 	c #3D2C41",
"A 	c #8F4956",
"B 	c #824559",
"C 	c #683D5A",
"D 	c #583651",
"E 	c #1E1F32",
"F 	c #342937",
"G 	c #AB6B61",
"H 	c #6D4247",
"I 	c #975456",
"J 	c #5C5C69",
"K 	c #7D7E89",
"L 	c #423043",
"M 	c #4E324A",
"N 	c #4A314A",
"O 	c #383346",
"P 	c #9FA0A8",
"Q 	c #414250",
"R 	c #8B484E",
"S 	c #5B3848",
"T 	c #673D52",
"U 	c #797984",
"V 	c #EFF0F1",
"W 	c #B1B3B9",
"X 	c #545865",
"Y 	c #535764",
"Z 	c #95989F",
"` 	c #C2C2C5",
" .	c #3F4150",
"..	c #6E3C48",
"+.	c #503143",
"@.	c #3D2D3B",
"#.	c #A9ABB1",
"$.	c #E1E7DB",
"%.	c #7AA662",
"&.	c #669074",
"*.	c #9FA2A8",
"=.	c #68615E",
"-.	c #867263",
";.	c #372B40",
">.	c #362A3E",
",.	c #1E2032",
"'.	c #8C847F",
").	c #838284",
"!.	c #787B85",
"~.	c #78A763",
"{.	c #F8F3EC",
"].	c #E2CDAC",
"^.	c #F9F6F0",
"/.	c #7AA863",
"(.	c #C2C4C8",
"_.	c #313341",
":.	c #47474F",
"<.	c #C4BAA6",
"[.	c #F7F3E5",
"}.	c #F7F2E4",
"|.	c #F4EEE0",
"1.	c #ECDFC3",
"2.	c #A29782",
"3.	c #444346",
"4.	c #9598A0",
"5.	c #F8F3EA",
"6.	c #E1CBA9",
"7.	c #C5B7A4",
"8.	c #E9E8E7",
"9.	c #7B7E88",
"0.	c #594D4E",
"a.	c #9A806C",
"b.	c #D4C294",
"c.	c #EFE2B0",
"d.	c #F3E9C5",
"e.	c #F5EDD8",
"f.	c #F8F4E5",
"g.	c #EFE5CA",
"h.	c #D0B88D",
"i.	c #666569",
"j.	c #F1F1F2",
"k.	c #DEDFE0",
"l.	c #B0A595",
"m.	c #F3EDE5",
"n.	c #8D8E86",
"o.	c #E0E1E3",
"p.	c #2A2D3B",
"q.	c #7F695F",
"r.	c #BD9F7A",
"s.	c #DDC390",
"t.	c #ECDCA7",
"u.	c #EFE1AC",
"v.	c #F0E3B2",
"w.	c #F2EACD",
"x.	c #908E8B",
"y.	c #E5D6A6",
"z.	c #9B8F78",
"A.	c #C5C6CA",
"B.	c #79A662",
"C.	c #AEA291",
"D.	c #D8D7CB",
"E.	c #EEE8CD",
"F.	c #8A8B7E",
"G.	c #BABCC2",
"H.	c #2E2F3C",
"I.	c #876F63",
"J.	c #CEAE80",
"K.	c #D6B785",
"L.	c #E0C895",
"M.	c #EDDFA9",
"N.	c #F1E5B7",
"O.	c #F3F0E5",
"P.	c #34363F",
"Q.	c #BCAA8A",
"R.	c #B4AD92",
"S.	c #7F828B",
"T.	c #D3D3D4",
"U.	c #C5BCAF",
"V.	c #F1E8CB",
"W.	c #DBC598",
"X.	c #89897B",
"Y.	c #CDCED2",
"Z.	c #CECFD3",
"`.	c #90939C",
" +	c #3B3841",
".+	c #9D816D",
"++	c #D4B483",
"@+	c #D5B583",
"#+	c #D5B683",
"$+	c #DBC08D",
"%+	c #F1E4B4",
"&+	c #F0EAD5",
"*+	c #212636",
"=+	c #8F7D64",
"-+	c #D3C4A0",
";+	c #818183",
">+	c #74777B",
",+	c #D0CDB7",
"'+	c #DBC28F",
")+	c #A49676",
"!+	c #6E717B",
"~+	c #E4E5E7",
"{+	c #404553",
"]+	c #72695F",
"^+	c #AEB0B5",
"/+	c #545866",
"(+	c #2E2E3A",
"_+	c #7F6A5F",
":+	c #C0A27B",
"<+	c #B89E77",
"[+	c #907E64",
"}+	c #91846B",
"|+	c #9C9780",
"1+	c #818386",
"2+	c #1B2032",
"3+	c #292B37",
"4+	c #464648",
"5+	c #282C3B",
"6+	c #99B64D",
"7+	c #BCBDC2",
"8+	c #6D6E62",
"9+	c #DDCC98",
"0+	c #CAAD7F",
"a+	c #504C4B",
"b+	c #E3E4E5",
"c+	c #43424F",
"d+	c #59504B",
"e+	c #7D6F5D",
"f+	c #72747B",
"g+	c #6B6F7A",
"h+	c #212534",
"i+	c #7D685E",
"j+	c #BFA07A",
"k+	c #D2B282",
"l+	c #A99B7B",
"m+	c #5C5B55",
"n+	c #383B42",
"o+	c #363B45",
"p+	c #1A2031",
"q+	c #191E2F",
"r+	c #5D5954",
"s+	c #484A4E",
"t+	c #A8ABB1",
"u+	c #B6C992",
"v+	c #5D6169",
"w+	c #B3AF89",
"x+	c #C1AA7F",
"y+	c #A38D6D",
"z+	c #919297",
"A+	c #6C4F59",
"B+	c #7F4449",
"C+	c #69564F",
"D+	c #978367",
"E+	c #353741",
"F+	c #1C2131",
"G+	c #665754",
"H+	c #A38770",
"I+	c #D7B987",
"J+	c #E2CB97",
"K+	c #D2C89E",
"L+	c #D8D5CB",
"M+	c #595D69",
"N+	c #4C4846",
"O+	c #E3D0A8",
"P+	c #96917D",
"Q+	c #A7A9AF",
"R+	c #C9CACE",
"S+	c #868573",
"T+	c #AFA280",
"U+	c #B29974",
"V+	c #645E5B",
"W+	c #D9D9DC",
"X+	c #75525B",
"Y+	c #B25454",
"Z+	c #B55555",
"`+	c #7D6058",
" @	c #9F866C",
".@	c #6B6154",
"+@	c #434143",
"@@	c #7C6C61",
"#@	c #A58D6F",
"$@	c #D3B382",
"%@	c #D5B684",
"&@	c #ECDCA6",
"*@	c #EBDEAD",
"=@	c #75767B",
"-@	c #A79272",
";@	c #F0E5BE",
">@	c #857D6B",
",@	c #5C5B65",
"'@	c #B0AFB4",
")@	c #76767B",
"!@	c #AEA784",
"~@	c #736559",
"{@	c #968368",
"]@	c #6D707B",
"^@	c #9AB84D",
"/@	c #75535B",
"(@	c #B45655",
"_@	c #BB645D",
":@	c #C48A6F",
"<@	c #A68F6E",
"[@	c #6D6356",
"}@	c #5D5952",
"|@	c #948E73",
"1@	c #3C3C41",
"2@	c #B49A74",
"3@	c #D1B281",
"4@	c #E5D09C",
"5@	c #EEE1AF",
"6@	c #DAD7CC",
"7@	c #E2D5AE",
"8@	c #D4C89B",
"9@	c #3E3D43",
"0@	c #714C4D",
"a@	c #6A4449",
"b@	c #6B6259",
"c@	c #5A544E",
"d@	c #907D66",
"e@	c #4D4949",
"f@	c #E7E7E9",
"g@	c #B35455",
"h@	c #BB655D",
"i@	c #D4A983",
"j@	c #DCC591",
"k@	c #D0B181",
"l@	c #746758",
"m@	c #7A7260",
"n@	c #32323B",
"o@	c #1C2031",
"p@	c #4F4947",
"q@	c #B6A883",
"r@	c #E1D3A2",
"s@	c #F0E6C3",
"t@	c #DDCFA2",
"u@	c #706258",
"v@	c #5D4448",
"w@	c #814F4E",
"x@	c #3A2A37",
"y@	c #877660",
"z@	c #4F4748",
"A@	c #7E6B5F",
"B@	c #7F8187",
"C@	c #BEB95A",
"D@	c #7A5F61",
"E@	c #B45555",
"F@	c #B75957",
"G@	c #CE9B7B",
"H@	c #E0CA95",
"I@	c #D7BB88",
"J@	c #A18A6C",
"K@	c #776B5B",
"L@	c #31313A",
"M@	c #493049",
"N@	c #2B2439",
"O@	c #1F2433",
"P@	c #767365",
"Q@	c #515050",
"R@	c #4E334C",
"S@	c #453043",
"T@	c #9B5352",
"U@	c #7E4147",
"V@	c #3F323C",
"W@	c #4C4347",
"X@	c #413B43",
"Y@	c #3E4050",
"Z@	c #81776C",
"`@	c #CEA87D",
" #	c #C6826E",
".#	c #C6826D",
"+#	c #DABF8B",
"@#	c #82725E",
"##	c #34323B",
"$#	c #974B55",
"%#	c #844558",
"&#	c #683C55",
"*#	c #36293F",
"=#	c #262336",
"-#	c #51344C",
";#	c #934A56",
">#	c #3C2B3F",
",#	c #38313C",
"'#	c #6B4046",
")#	c #6B3C4F",
"!#	c #412D45",
"~#	c #282337",
"{#	c #6E3E4C",
"]#	c #626672",
"^#	c #E1E2E4",
"/#	c #686361",
"(#	c #D1B383",
"_#	c #E0CB96",
":#	c #DAB78F",
"<#	c #C78A6F",
"[#	c #D3B281",
"}#	c #AC9171",
"|#	c #A38A6E",
"1#	c #944A56",
"2#	c #B45455",
"3#	c #A85156",
"4#	c #824558",
"5#	c #653B55",
"6#	c #964B55",
"7#	c #603849",
"8#	c #1F2132",
"9#	c #937968",
"0#	c #AD9371",
"a#	c #3E3840",
"b#	c #362A3F",
"c#	c #473049",
"d#	c #29273A",
"e#	c #DBDCDE",
"f#	c #595D68",
"g#	c #BFA47A",
"h#	c #DBC18D",
"i#	c #DCBF92",
"j#	c #C27969",
"k#	c #BB685E",
"l#	c #886558",
"m#	c #82705F",
"n#	c #32313B",
"o#	c #7B4257",
"p#	c #A04E55",
"q#	c #A95155",
"r#	c #A85055",
"s#	c #A34F53",
"t#	c #663A49",
"u#	c #232738",
"v#	c #222737",
"w#	c #8D7665",
"x#	c #CAAB7E",
"y#	c #AF9672",
"z#	c #393A44",
"A#	c #545765",
"B#	c #92959D",
"C#	c #56514D",
"D#	c #CBAD7F",
"E#	c #CFA57B",
"F#	c #BC675E",
"G#	c #B55756",
"H#	c #7B4046",
"I#	c #594D4D",
"J#	c #2A2B37",
"K#	c #2C2439",
"L#	c #32283B",
"M#	c #38293A",
"N#	c #362839",
"O#	c #332738",
"P#	c #3D404E",
"Q#	c #413F50",
"R#	c #322D3C",
"S#	c #444044",
"T#	c #424043",
"U#	c #898C93",
"V#	c #AFB1B6",
"W#	c #72695E",
"X#	c #CAA87D",
"Y#	c #BC6A5F",
"Z#	c #AC5253",
"`#	c #6A4549",
" $	c #51484C",
".$	c #1D2234",
"+$	c #282E3E",
"@$	c #848791",
"#$	c #7E818B",
"$$	c #23293A",
"%$	c #3C4150",
"&$	c #DEDFE1",
"*$	c #474455",
"=$	c #49354C",
"-$	c #878A93",
";$	c #BEC0C4",
">$	c #B0B2B7",
",$	c #5E5650",
"'$	c #AF645C",
")$	c #573640",
"!$	c #302E3B",
"~$	c #7A7D88",
"{$	c #1F2536",
"]$	c #8F929B",
"^$	c #888B95",
"/$	c #7F838D",
"($	c #BEC0C5",
"_$	c #C1C3C8",
":$	c #ACAEB5",
"<$	c #C5C6CB",
"[$	c #F0F1F2",
"}$	c #ADAFB4",
"|$	c #3E3543",
"1$	c #4B454B",
"2$	c #83858D",
"3$	c #9EA1A9",
"4$	c #4B505E",
"5$	c #434856",
"6$	c #6C6F7B",
"7$	c #444957",
"8$	c #5A5E6B",
"9$	c #AFB1B7",
"0$	c #B6B8BE",
"a$	c #B8BAC0",
"b$	c #D4D5D9",
"c$	c #9AB74E",
"d$	c #ADB0B6",
"e$	c #80848E",
"f$	c #B3B5BB",
"g$	c #B7B9BF",
"h$	c #D3D4D8",
"i$	c #EAEAEC",
"j$	c #C0C2C7",
"k$	c #BCBEC4",
"l$	c #B9BBC0",
"m$	c #C5C7CC",
"n$	c #DDDEE1",
"o$	c #DBD9BD",
"p$	c #F1F2F3",
"q$	c #ECECEE",
"r$	c #EEEEEF",
"s$	c #CDD8BB",
"          . . . . . . . . . . + + + + + + + + + + + + + + + + + + + + + + + + + + + + + + + + + + + + + + + + + + + + + + + + + ",
"            . . . . . .   + + +       + + + + + + + + + + + + + + + + + + + + + @ @ @ @ + + + + + + + + + + + + + + + + +       ",
"    . . . . . . . . .                         + + + + + + + + + + + + + + + + @ @ @ @ @ @                 @ @ @ @ + + +         ",
". . . . . . . . . . .               + + + + + + + + + + + + + + + + + @ @ @ + @ @ @ @ @ @ @ @ @ @ @     @ @ @ @ @ @ @ +         ",
". . . . . . . . . .                     + + + + + + + + + + + + + + @ @ @ @ @ @ @ @ @ @ @ @ @ @ @ @ @ @ @ . . . @ @ @ @       . ",
"          . . . . .                         + + + + + + + + + + + @ @ @ @ @ . . . . @ @ @ @ . . . . @ @ . . . . . @ @ @ @ . . . ",
"            . . . . .   . .                         + + + + + + + @ @ @ . . . . . . . @ @ . . . . . . . . . . . . . . . . .     ",
"                . . . . . . .                       + + + + + @ @ @ @ . . . . . . . . @ . . . . . . . . . . . . . . . . . .     ",
". .               . . .       .                       . . . . . . @ . . . . . . . . . . . . . . . . . . . . . . . . . . . .   . ",
". . .                                               . .     . . . . . . . . . . . . . . . . . . . . . . . . . . . . . . . . . . ",
". . .       . .                                     .         . . . . . . . .       . . . . .     . . . .     . . . . . . . . . ",
". . .     . . . . .                                                   . . .           . .             .         . . . . . . . . ",
". . . . . . . . . . . . . . . . . . .                                   . .           .                         . . . . . . . . ",
". . . . . . . . .                                                                     .                         . . . . .       ",
"                        + + + + + +               # $ % & * #                                                                   ",
"                    + + + + + + + + +   + + + +   = - ; > , ' ) .                                                               ",
"                + + + + + + + + + + + + + + + + ! ~ { ] ^ / ( _ : <                     + + +                                   ",
"              + + + + + + + + + + + + + + + + [ } | 1 2 3 4 5 6 7 8 9 . . . + + +     + + + + +                                 ",
"          + + + + + +           + + + + + + 0 a b c d e f g h i j k l . . + + + + + + +     + + +             + + +             ",
"      + + + + + + +               + + +     # m n o p q r s t u v w x + + +     + + +         + + +         + + + + +       + + ",
"+                                 + +         y z A B C D E F G H I J                                     + + + + + + + + + + + ",
"+ + + +                                       # K L M N O P Q R S T U       + +           + + + +         + + + + + + + + + + + ",
"                                              @ V W X Y Z `  ...+.@.#.$.+ + + + +   + + + + %.+ + +     + + + +       + + + + + ",
"                @ @ @ @ @     @ @ @       . . . . @ &.*.=.-.;.>.,.'.).!.~.+ + + + + + + + {.].^./.+ + + + + +                   ",
"              @ @ @ @ @ @ @ @ @ @ @ @   . . . . . . (._.:.<.[.}.|.1.2.3.4.~.+ + + + + + 5.6.7.8.+ + + + + + +                   ",
"          @ @ @ . . . . @ @ @ . . @ @ . . . . . . < 9.0.a.b.c.d.e.f.g.h.i.j.. . + + + k.l.m.n.o.    + + + +                     ",
"    @ @ @ @ . . . . . . . . . . . . . . . . . . . < p.q.r.s.t.u.v.w.x.y.z.A.. . . + B.C.D.E.F.o.      + + + + + + + + + +       ",
". @ @ . . . . . . . . . . . . . . . . . . . . + + G.H.I.J.K.L.M.N.O.P.Q.R.S.9 . . . T.U.V.W.X.o.      + + + + + + + + + + + + + ",
". . . . . . . . . . + + + . . . . . . . < Y.Z.[ + `. +.+++@+#+$+%+&+*+=+-+;+< . . < >+,+'+)+!+        + + + + + . . . . . . . . ",
"            . . + + + + + + + . . + + + ~+{+]+^+[ /+(+_+:+<+[+}+|+1+2+3+4+5+6+    7+8+9+0+a+b+      + + . . . . . . . . . . . . ",
"                        + + + + + + + + o.c+d+e+f+g+h+i+j+k+l+m+n+o+p+q+r+s+t+  u+v+w+x+y+z+#                                   ",
"                                + + + + o.A+B+C+D+E+F+G+H+:+I+J+K+L+M+N+O+P+Q+[ R+S+T+U+V+W+                                    ",
". . .                                   o.X+Y+Z+`+ @.@+@@@#@$@%@&@*@=@-@;@>@,@'@)@!@~@{@]@^@                                  . ",
". . . .                         + + + + o./@(@_@:@<@[@}@|@1@2@3@4@5@6@7@8@9@0@a@b@c@d@e@f@                                  . . ",
". . . . . . .         + + + + + + + + + o./@g@h@i@j@k@l@m@n@o@p@q@r@s@t@u@v@w@x@y@z@A@B@C@                          . . . . . . ",
"      . . . . .                         o.D@E@F@G@H@I@J@K@L@M@N@O@4+P@Q@R@S@T@U@V@W@X@Y@= .                             . . . . ",
"        . . . . .                       o.Z@`@ #.#+#I@r.@###$#%#&#*#=#-#;#>#,#'#)#!#~#{#]#9                                 .   ",
"                                        ^#/#(#_#:#<#[#}#|###1#2#3#4#5#6#7#8#9#0#a#b#c#d#e#9 . . . .                             ",
"                                        ) f#g#h#i#j#k#l#m#n#o#p#q#r#s#t#u#v#w#x#y#z#A#B#~.. . . . . . . . . . + + +             ",
"                                          7+C#D#E#F#G#H#I#J#K#L#M#N#O#P#B#Q#R#S#T#U#~.+ + + + + + + + + + + + + + + + + + + +   ",
"+ + + + + + + +                           # V#W#X#Y#Z#`# $.$+$@$#$$$%$= &$*$=$-$;$~.+ + + + + + + + + + + + + + + + + + + + + + ",
"+ + + +                                     $ >$,$'$)$!$~$]#{$]$^$2+/$($_$:$<$[$#   + + + + + + + + + + + + + + + + + + + + + + ",
"                                              # }$|$1$2$3$4$5$4.6$7$8$9$0$a$b$        + + +         + + + + + + + + + + + +     ",
"                                    @ @ @ @ @   c$d$e$f$0$0$0$0$0$0$0$0$0$g$h$. .     + +             +       + +               ",
"                                @ @ @ @ @ @ @ @   # i$Y.j$k$0$0$0$0$l$j$m$n$. . . .   + +                                       ",
"                              @ @ @ . . . @ @ @ @ @ @ @ o$p$q$q$q$q$r$s$< . . . . . . . + +                           . . . . . ",
"          @ @ @ @ @     @ @ @ @ @ . . . . . . @ @ @ @ . . . . . . . @   . . . . . . . . .                   . . . . . . . . . . ",
"        @ @ @ @ @ @ @ @ @ @ @ @ @ . . . . . . . . @ . . . . . . . . . . . . . . . . . . .             . . . . . . . . . . . .   ",
"@ @   @ @ @ . . @ @ @ @ @ . . @ @ @ . . . . . . . . . . . . . . . . . . . . . . . . . . . . .         . . . . . . . . . .       ",
"@ @ @ @ @ . . . . @ @ @ . . . . . @ . . . . . . . . . . . . . . . . . . . . . . . . . . . . .                                 @ ",
"@ . . @ @ . . . . . . . . . . . . . . . . . . . . . . . . .         . . . . . + + . . . . . . . . .                           @ ",
". . . . . . . . . . . . . . . . . . . . . + + + + . . . .             . . . + + + + . . . . . . . . .                 . . @ @ @ ",
". . . . .       . . . . .         . . . + + + + + +     .               + + + + + + . . . . . .                   . . . . . . . ",
". . . .           . . .       + + + + + + + + + + +               + + + + + + + + +                           . . . . . . . . . ",
". .               . . .     + + + + + + + + + + +               + + + + + + + + + + +                       . . .       . . . . ",
"                      .     + + + + + + + + + + + + + + +     + + + + + +     + + + + +                 . . . .           . . . ",
"                        + + + + + + + + + + + + + + + + + + + + + + + +           + + + + +                                     ",
"            + + + + + + + + + +       + + + + + + + + + + + + + + + + +                                                         ",
"                  + + + + + +           + +       + + + + + + +     + +                                     + + +               ",
"                        + + +           +             + + + +         + +                                 + + + + +             ",
"            . .                                                                             + + +       + + + + + +             ",
"          . . . .         . . . .                                                         + + + + + + + + + + + + +             ",
"      . . . . . . . . . . . . . . . .                 + + + +                           + + + + + + + + + + + + + + + + +       ",
"+ + . . . . . . . . . . . . . . + + + +     + + + + + + + + + + +     + + + +         + + + + + + + + + + + + + + + + + + + + + "};
