/* XPM */
static char *_bc42b716a654d34915cdf87b5b9cef4iJSeS85mcaivzyjH[] = {
/* columns rows colors chars-per-pixel */
"40 40 250 2 ",
"   c #340100",
".  c #3D0000",
"X  c #3E0E00",
"o  c #2E0000",
"O  c #3D1A3A",
"+  c #192F3C",
"@  c #470500",
"#  c #540500",
"$  c #531A00",
"%  c #52071C",
"&  c #681600",
"*  c #7D1E08",
"=  c #781510",
"-  c #503E00",
";  c #7B2607",
":  c #683A07",
">  c #7B3706",
",  c #7E2B15",
"<  c #6F310D",
"1  c #490834",
"2  c #550B37",
"3  c #571437",
"4  c #491130",
"5  c #671A2A",
"6  c #741F28",
"7  c #631330",
"8  c #7E2B2D",
"9  c #762C34",
"0  c #4A2E3C",
"q  c #197C0F",
"w  c #286E0D",
"e  c #267C17",
"r  c #377619",
"t  c #306F10",
"y  c #2B7C24",
"u  c #297739",
"i  c #2C6C2F",
"p  c #18792C",
"a  c #584F12",
"s  c #6C4109",
"d  c #6C4513",
"f  c #77481A",
"g  c #66571A",
"h  c #7A511C",
"j  c #72541C",
"k  c #61590E",
"l  c #486A18",
"z  c #55651B",
"x  c #4B7117",
"c  c #7A4929",
"v  c #665625",
"b  c #755328",
"n  c #685337",
"m  c #754F32",
"M  c #4E7824",
"N  c #6C6B2B",
"B  c #291A59",
"V  c #381551",
"C  c #063248",
"Z  c #172653",
"A  c #0E3651",
"S  c #21254A",
"D  c #1B0F7B",
"F  c #350D74",
"G  c #102A6C",
"H  c #2A2265",
"J  c #3D2062",
"K  c #461648",
"L  c #4F114E",
"P  c #611347",
"I  c #762A46",
"U  c #7A3449",
"Y  c #7F3A5A",
"T  c #7A325A",
"R  c #672C59",
"E  c #460A69",
"W  c #44137B",
"Q  c #490F6F",
"!  c #502464",
"~  c #732E67",
"^  c #385E53",
"/  c #2C7054",
"(  c #067C66",
")  c #376A61",
"_  c #2D6B60",
"`  c #624B45",
"'  c #871E0B",
"]  c #931E0C",
"[  c #9C1E0F",
"{  c #8C1F1D",
"}  c #9A1B14",
"|  c #A41B14",
" . c #A81C16",
".. c #B81F1A",
"X. c #8C230C",
"o. c #8D2C0C",
"O. c #872704",
"+. c #932906",
"@. c #95240D",
"#. c #99230D",
"$. c #932B0C",
"%. c #992B0E",
"&. c #962605",
"*. c #88320A",
"=. c #98340A",
"-. c #8D2414",
";. c #852D13",
":. c #8C2A13",
">. c #8C231B",
",. c #852718",
"<. c #942413",
"1. c #9C2513",
"2. c #942B14",
"3. c #9B2A13",
"4. c #94251A",
"5. c #9C251B",
"6. c #942B1B",
"7. c #9D2D1B",
"8. c #8C3D12",
"9. c #8A381B",
"0. c #94331C",
"q. c #9D321B",
"w. c #943D1A",
"e. c #983916",
"r. c #AD290D",
"t. c #A42C0B",
"y. c #B32C0C",
"u. c #BA2D09",
"i. c #AB320B",
"p. c #AA3900",
"a. c #B63206",
"s. c #A22314",
"d. c #A22B16",
"f. c #AC2B15",
"g. c #A3241B",
"h. c #A42D1B",
"j. c #AC2D1C",
"k. c #AC2418",
"l. c #BA2613",
"z. c #B42B15",
"x. c #B5261D",
"c. c #BC241C",
"v. c #B22D1D",
"b. c #B92C1C",
"n. c #B82A14",
"m. c #A43514",
"M. c #AC3315",
"N. c #A5321B",
"B. c #AA331D",
"V. c #A63A19",
"C. c #B23115",
"Z. c #B3321D",
"A. c #B8351D",
"S. c #842A25",
"D. c #882929",
"F. c #9A2924",
"G. c #8A3A25",
"H. c #943424",
"J. c #9C3324",
"K. c #933B23",
"L. c #9A3A24",
"P. c #9B3A29",
"I. c #9A352C",
"U. c #882B37",
"Y. c #893A38",
"T. c #983537",
"R. c #A32D23",
"E. c #AC2D22",
"W. c #A42D2C",
"Q. c #A92725",
"!. c #B32D21",
"~. c #BA2B22",
"^. c #B32B2A",
"/. c #BA2928",
"(. c #A33422",
"). c #AC3322",
"_. c #A43924",
"`. c #AB3A24",
"'. c #AD332B",
"]. c #A93A2B",
"[. c #A3372C",
"{. c #B23323",
"}. c #BC3223",
"|. c #B1332B",
" X c #B6382A",
".X c #A62D36",
"XX c #A43332",
"oX c #A53837",
"OX c #BB3532",
"+X c #B02D33",
"@X c #C31E0B",
"#X c #C4220E",
"$X c #C52818",
"%X c #C13226",
"&X c #C3342B",
"*X c #844C1C",
"=X c #884619",
"-X c #92411A",
";X c #80410B",
":X c #884B23",
">X c #964223",
",X c #9C442B",
"<X c #854634",
"1X c #8A512F",
"2X c #A6452C",
"3X c #AB4534",
"4X c #B44738",
"5X c #AA5539",
"6X c #956139",
"7X c #853747",
"8X c #983844",
"9X c #923459",
"0X c #8B3151",
"qX c #A83C4B",
"wX c #963966",
"eX c #844655",
"rX c #B77D55",
"tX c #A57E47",
"yX c #C27A57",
"uX c #CD7353",
"iX c #17850C",
"pX c #0A8713",
"aX c #138A13",
"sX c #188719",
"dX c #0F9117",
"fX c #268419",
"gX c #32861C",
"hX c #24830D",
"jX c #1C8521",
"kX c #118930",
"lX c #2E8823",
"zX c #378721",
"xX c #508229",
"cX c #048C42",
"vX c #318051",
"bX c #969650",
"nX c #B19259",
"mX c #BD9561",
"MX c #A5B167",
"NX c #CC855D",
"BX c #C88863",
"VX c #D78865",
"CX c #C6926B",
"ZX c #D8956F",
"AX c #D59C72",
"SX c #C4A76D",
"DX c #E6886C",
"FX c #3E0D82",
"GX c #FFDCAF",
"HX c #FFE5BA",
/* pixels */
"b.b.v.j.!.|.E.g.Q.OX| Q.'.(.[.J.].'.E./././././.} ] _.L.0.9.; L.E.!.v.v.v.v.v.v.",
"b.b.v.j.E.E.g.g.OX| g.} 5.4XP.:.6.3XR.R.^.&XQ.OX5.<.].J.0.0.:._.!.!.v.v.v.v.v.v.",
"b.z.j.{.h.1.<.5.R.4X<.4.[.,.K.5X9.G.5X;.2X6._.<.6.2.].(.7.g.s.!.!.!.v.v.v.v.v.v.",
"b.f.j.{.N.-.-.J.J.J.4X& K.,X.   @ o @ . . # K.,X:.6.(.h.s. . .c.!.!.v.v.v.v.v.v.",
"v.f.j.`.N.-.:.L.3X' * L., . & .   X   $   . @ 9.;.0.(.h.s. ...c.!.!.v.v.v.v.v.v.",
"v.j.j.(.q.:.:.H.,.0.L.; K.. @ BXrXAXCX6XCX$   9.;.L.(.).g. .~.!.!.!.v.v.v.v.v.v.",
"v.j.B.N.6.:.:.6.' 6.3X3X* & VX# ZXBXBX< yX@ # ;.X._.N.(.7.<.`.N.).E.j.v.v.v.v.v.",
"v.Z.B.3.<.:.-.-.7.7.<.(.4XX.DXuXVXrXNXZXyX2X0.2.] ).h.(.7.:.L.0.(.).B.j.v.v.v.v.",
"Z.B.B.h.<.X.<.<.h.).).h.7.2XuXVXHXGXGXZXNXw.V.#.v.~.v.j.q.:., >X_.h.). X{.!.{.j.",
"j.B.j.7.1.<.5.R.E.j.).).q.e.5XNXmXSXnXnX:Xw.O.s.b.~.c.v.).2.;.K.2.@.d.B.j.v.{.v.",
"j.j.h.1.1.1.h.{.{.h.N.`.w.*.:XtXbXMXbXnXd h ; 3.v.$Xc.c.}.h.:.L.2.' #.j.h.v.{.v.",
"j.B.h.1.1.s.j.j.).N.q.>X*Xd j N l x M l a - : *.B.b.c.$X%Xj.1.(.q.@.1.B.B.j.Z.x.",
"B.).).d.1.s.s.1.7.L.-Xf g z z l r w zXw xXl N 1X-XN.j.b.%Xv.s.h.(.<.3.).B.j.v.x.",
"B.).).d.1.g.1.@.:.9.c g z M zXe gXfXe e e r l a h -Xq.j.}.k.| j.(.X.@.N.B.j.v.v.",
"B.).B.1.1.h.h.2.;.f v z r e sXaXfXfXq fXsXlXr M g h 9.q.B.s.[ B.(.X.X.N.B.h.v.v.",
"j.).h.<.4.J.P.G.< d j N l w pXdXsXfXfXsXsXe l z g j j f 8.O.X.N.`.@.@.B.).h.j.v.",
"z.Z.E.4.D.Y.<Xm a j :X*Xj z fXpXsXjXy e e t f G.:Xj z z k s O.m.B.h.d.N.).N.B.B.",
"l.b.E.4.S.Y.m n v b =X8.;Xk e pXpXsXfXlXgXx >X).>Xh z l z a > N.).h.s.h.).).N.B.",
"n.Z.h.<.>.G.<Xb g j =X8.;Xg e sXiXiXiXiXhXl =X2.w.=Xf v N v S.R.|.h.1.h.).).B.B.",
"z.C.h.2.:.9.:Xb : d 8.-X=Xv y jXlXfXaXpXaXr h V.N.e.9.:Xm m S.F.'.j.1.3.N.).B.N.",
"f.M.m.3.$.o.=X*X: > 8.w.:Xv i p y e sXpXdXy h m.z.Z.q.K.<XY.8 D.'.j.1.1.h.).B.B.",
"M.B.m.3.$.o.8.=X> *.2.K.<Xn / vXu u u kXcXu f t.l.$Xf.h.[.I.S.,.'.j.d.1.3.N.B.B.",
"N.B.B.N.%.+.*.8.*.*.7.P.<X` ^ _ ) ) ) _ ( / c A.#X$Xy.f.B.q.;.;.(.).h.1.3.N.).).",
"(.(.`.N.3.+.+.=.+.%.(.T.9 0 + C Z Z A C A A 8 A.@X$Xl.r.M.m.*.o.h.).h.1.@.h.).).",
"-.4.R.).N.+.+.=.V.#.'.8XU O S Z H B Z G G H 8Xv.$X#X$Xy.V.e.O.$.B.).B.1.] h.`.h.",
">.4.R.'.N.@.$.m.Z.[ .X8XY V B B B V B H D F 8Xv.b.l.$Xz.V.w.O.3.).E.B.1.] h.`.h.",
">.F.W.'.(.2.2.B.v.} W.8XY K V J K K K ! F E .Xn.b.x.!.E.[.P.-.7.).E.B.3.@.7.`.N.",
">.F.W.|.(.2.2.B.j.| W.8XY K V ! R U U ~ FXE .Xn.b.v.'.R.XXXX{ J.).j.B.d.@.3.B.N.",
">.4.Q.'.q.:.o.N.x. .F.U.` 4 K R U Y.8X9XW E W.u.n.j.].W.+X+X{ J.).j.).h.@.3.B.B.",
"-.4.E.).q.X.o.q.x. .F.U.eX4 K T 8 H.J.0XW E J.a.z.j.'.W.^.^.} (.).j.).N.@.1.N.B.",
":.<.j.).q.o.o.m.v.k.F.D.eX4 2 9X,.2.0.7XQ E H.p.i.z.}.x.!.j.#.B.{.j.).N.@.@.N.B.",
"<.1.j.{.N.$.=.V.v.k.F.D.eX4 2 9X{ <.0.U Q E Y.=.m.z.%Xc.z.M.#.B.{.h.).B.@.@.h.B.",
"R.E.x.b.M.&.+.m.A.).I.8XU 3 P 9XT.>.,.7XL ! U P.(.f.b.l.a.i.<.[.E.j.Z.B.@.%.N.N.",
"'.'.x.b.C.&.&.m.f.R.I.8XU 3 P wXT.>.8 7X1 L I 8X[.f.b.l.a.i.-.XX{.j.Z.B.@.@.N.N.",
"(.).v.b.Z.t.+.N.j.'.XXY.9 % 2 9XoX-.,.Y.1 1 7 U.(.j.}.n.a.i.-.XX{.v.Z.h.@.@.N.N.",
"h.E.x.b.A.h.%.N.{.|.XXU.5 % 7 8XXX<.,.Y.3 2 5 D.7.f.}.n.y.i.-.W.{.v.Z.h.@.@.N.B.",
"N.B.b.z.Z.m.%.h.E.E.F.D.8 6 U.qXR.] ' T.I I 9 T.<.f.}.n.y.M.4.W.{.v.Z.h.@.@.N.N.",
"N.Z.v.z.Z.h.<.1.E.Q.} { S.8 D.oXj.s.' T.U.7X6 D.<.f.A.z.C.B.4.J.{.j.Z.B.@.@.N.N.",
"m.Z.b.z.{.).1.5.^.^.Q.4.S.S.>.R.j.M.@.J.D.U.6 >.1.f.A.y.C.B.-.4.E.j.{.B.3.3.N.h.",
"%.M.z.z.}.{.R.R.^.^.Q.F.P.P.(. Xr.A.3.J.D.8XT.oXh.j.A.r.M.B.-.-.j.j.{.B.3.%.h.d."
};
