/* XPM */
static char * test_xpm[] = {
"40 40 97 2",
"  	c #615757",
". 	c #605656",
"+ 	c #443C3C",
"@ 	c #110F0F",
"# 	c #3A3333",
"$ 	c #0B0A0A",
"% 	c #413A3A",
"& 	c #100E0E",
"* 	c #605757",
"= 	c #5C5353",
"- 	c #3E3737",
"; 	c #1C1919",
"> 	c #4A4242",
", 	c #131111",
"' 	c #463F3F",
") 	c #463E3E",
"! 	c #121010",
"~ 	c #494242",
"{ 	c #171414",
"] 	c #5E5454",
"^ 	c #554D4D",
"/ 	c #544B4B",
"( 	c #473F3F",
"_ 	c #4B4343",
": 	c #423C3C",
"< 	c #3B3434",
"[ 	c #403939",
"} 	c #312B2B",
"| 	c #342E2E",
"1 	c #363030",
"2 	c #181515",
"3 	c #1B1818",
"4 	c #1D1A1A",
"5 	c #141212",
"6 	c #292424",
"7 	c #332E2E",
"8 	c #4A4343",
"9 	c #3C3535",
"0 	c #3C3636",
"a 	c #393232",
"b 	c #282323",
"c 	c #161313",
"d 	c #302A2A",
"e 	c #484040",
"f 	c #514949",
"g 	c #5A5151",
"h 	c #5B5151",
"i 	c #5B5252",
"j 	c #564D4D",
"k 	c #383232",
"l 	c #554C4C",
"m 	c #534B4B",
"n 	c #5D5454",
"o 	c #5D5353",
"p 	c #5F5555",
"q 	c #4F4747",
"r 	c #1E1B1B",
"s 	c #433C3C",
"t 	c #514848",
"u 	c #453E3E",
"v 	c #2A2626",
"w 	c #282424",
"x 	c #2C2727",
"y 	c #2F2A2A",
"z 	c #3B3535",
"A 	c #443D3D",
"B 	c #474040",
"C 	c #524949",
"D 	c #4C4444",
"E 	c #3B3636",
"F 	c #393333",
"G 	c #2D2828",
"H 	c #292525",
"I 	c #252121",
"J 	c #2B2626",
"K 	c #151212",
"L 	c #1C1818",
"M 	c #1A1717",
"N 	c #2A2525",
"O 	c #1F1B1B",
"P 	c #211D1D",
"Q 	c #241F1F",
"R 	c #141111",
"S 	c #1E1A1A",
"T 	c #120F0F",
"U 	c #151313",
"V 	c #242020",
"W 	c #494141",
"X 	c #423B3B",
"Y 	c #3E3838",
"Z 	c #534A4A",
"` 	c #595050",
" .	c #1B1717",
"..	c #504747",
"+.	c #524A4A",
"@.	c #3A3434",
"#.	c #322C2C",
"                    . + @ + .                                                   ",
"                    . # $ # .                                                   ",
"                    . % & + *                                                   ",
"                    = - ; >                                                     ",
"                    = - ; >                                                     ",
"                    . + , ' *                                                   ",
"                    * ) ! ) *                                                   ",
"                    * ) ! ) *                                                   ",
"  .               * * ~ { >                                       * * * * ] ^ ^ ",
"/ ( > _ _ _ _ _ > ' ) : < ( _ _ _ _ _ _ _ _ _ _ _ _ _ _ _ _ _ _ > ' ) ) ) [ } | ",
"1 2 3 4 4 4 4 4 ; , ! , ; 4 4 4 4 4 4 4 4 3 2 ; 4 4 4 4 4 4 4 4 ; , ! ! ! 5 6 7 ",
"8 1 # 9 9 9 9 0 - + ) + - 0 9 9 9 9 9 9 a b c d 9 9 9 9 9 9 9 0 - + ) ) ) e f ^ ",
"] g h i i i i i = . * . = i i i i i i i j k 3 ' i i i i i i i i = . * * * *     ",
"                                        i 9 4 _                                 ",
"                                        i 9 4 _                                 ",
"                                        i 9 4 _                                 ",
"                                        i 9 4 _                                 ",
"                                        i 9 4 _                                 ",
"                                        i 9 4 _                                 ",
"                                        i 9 4 _                                 ",
"                                        i 9 4 _                                 ",
"                                        i 0 4 _               . = g l m m l h . ",
"n . *             . o p = i i i g l m m q k r s m m m m m m t u - k v w x y z > ",
"A B B _ C m m C D e [ % 9 E 9 9 F y G G G H I J G G G G G G 6 K ; L 2 M w N O P ",
"Q ; R S N G G N O 4 ; T U 3 4 4 O N G G G G G G G G G G G G } % > [ Q V ' C W k ",
"_ [ X < y G G y F Y % H r - _ _ D C m m m m m m m m m m m m l ]   Z x x Z   . ` ",
". o p h l m m l g = D ;  ._ *                                     C N y l       ",
"                    ..I H +.                                      D O F g       ",
"                    _ S @.h                                       _ 4 9 i       ",
"                  * B R % p                                       _ 4 0 i       ",
"                    > ; - =                                       > ; - =       ",
"                    D O F g                                     * ' , + .       ",
"                    t b #.j                                     * ' , s .       ",
"                    D O F g                                       _ S < h       ",
"                    _ 4 9 i                                       C N y l       ",
"                    _ 4 9 i                                       m G G m       ",
"                    D O F g                                       m G G m       ",
"                    C N y l                                       m G G m       ",
"                    f w } ^                                       m G G m       ",
"                  * e 5 [ ]                                       ^ 7 7 ^       "};
